<svg xmlns="http://www.w3.org/2000/svg" viewBox="0 0 800 800" opacity="1" xmlns:v="https://vecta.io/nano"><style><![CDATA[.B{fill:none}.C{stroke:#00a19d}.D{fill:#00a19d}.E{fill:#2c2891}.F{stroke:#2c2891}.G{stroke:#ffa6d5}.H{fill:#ffbd9b}.I{stroke:#ffbd9b}.J{fill:#ffa6d5}.K{stroke:#ff5c58}.L{fill:#ff5c58}.M{stroke-width:22}.N{stroke-linecap:round}]]></style><defs><symbol id="A" viewBox="0 0 194 167"><path d="m97 0 96.129 166.5H.871L97 0Z"/></symbol><symbol id="B" viewBox="0 0 126 115"><path d="m63 0 62.77 43.877-23.976 70.996H24.206L.23 43.877 63 0Z"/></symbol><symbol id="C" viewBox="0 0 131 127"><path d="m66 0 66 63.5L66 127 0 63.5 66 0Z"/></symbol><symbol id="D" viewBox="0 0 149 143"><path d="M71.647 2.781c.898-2.764 4.808-2.764 5.706 0l15.445 47.534a3 3 0 0 0 2.853 2.073h49.98c2.906 0 4.115 3.719 1.764 5.427L106.96 87.193a2.999 2.999 0 0 0-1.09 3.354l15.445 47.534c.898 2.764-2.266 5.062-4.617 3.354l-40.435-29.378a3 3 0 0 0-3.526 0l-40.435 29.378c-2.351 1.708-5.515-.59-4.617-3.354L43.13 90.547a3 3 0 0 0-1.09-3.354L1.605 57.815c-2.35-1.708-1.142-5.427 1.764-5.427h49.98a3 3 0 0 0 2.853-2.073L71.647 2.781Z"/></symbol><symbol id="E" viewBox="0 0 145 145"><circle cx="72.5" cy="72.5" r="72.5"/></symbol><symbol id="F" viewBox="0 0 133 116"><path d="M59.749 10.251c-13.668-13.668-35.829-13.668-49.497 0s-13.668 35.829 0 49.497l49.497-49.497zM66.5 66.5L41.751 91.249 66.5 115.997l24.749-24.748L66.5 66.5zm56.249-6.751c13.668-13.668 13.668-35.829 0-49.497s-35.829-13.668-49.498 0l49.498 49.497zm-112.498 0l31.5 31.5 49.497-49.497-31.5-31.5-49.497 49.497zm80.997 31.5l31.5-31.5-49.498-49.497-31.5 31.5 49.497 49.497z"/></symbol><symbol id="G" viewBox="0 0 139 124"><path fill-rule="evenodd" d="M70.164 15.092C54.609.765 37.829-2.108 24.403 2.826 10.38 7.979.763 21.459 1 37.061c.107 7.027 2.861 13.732 7.004 20.2s9.849 12.971 16.246 19.642c3.821 3.984 7.887 8.031 12.077 12.201h0c10.034 9.986 20.775 20.677 30.55 32.896a4 4 0 0 0 5.622.624c.671-.536 1.123-1.244 1.344-2.011 9.577-11.748 20.033-22.073 29.816-31.735l12.078-12.106c6.396-6.618 12.106-13.075 16.247-19.491s6.905-13.081 7.012-20.069c.237-15.512-9.399-28.89-23.411-33.999-13.32-4.857-29.954-2.086-45.421 11.88zm-3.735 7.492C52.128 8.449 37.683 6.469 27.163 10.335 16.286 14.332 8.815 24.782 9 36.939c.076 4.984 2.038 10.223 5.742 16.007s8.975 11.842 15.283 18.419c3.58 3.733 7.498 7.633 11.6 11.716 9.048 9.006 18.991 18.905 28.179 29.867 9.3-11.068 19.404-21.047 28.584-30.114l.001-.001 11.598-11.622c6.307-6.525 11.573-12.53 15.278-18.27s5.658-10.924 5.734-15.853c.184-12.028-7.267-22.391-18.153-26.361-10.71-3.905-25.472-1.8-40.002 12.867a4 4 0 0 1-5.657.026c-.315-.312-.567-.663-.756-1.037z"/></symbol><symbol id="H" viewBox="0 0 87 168"><path d="M12 12l31.255 18.075c16.41 9.49 20.014 31.633 7.46 45.837L36.33 92.188c-12.568 14.221-8.939 36.392 7.507 45.864L75 156" stroke-width="14" stroke-linejoin="round" class="N"/></symbol><symbol id="I" viewBox="0 0 182 172"><path d="M13.581 69.845L91 13.597l77.419 56.248-29.571 91.012H43.152L13.581 69.845z" class="M"/></symbol><symbol id="J" viewBox="0 0 145 145"><circle cx="72.5" cy="72.5" r="61.5" class="B M"/></symbol><symbol id="K" viewBox="0 0 194 167"><path d="M10.398 161 97 11l86.603 150H10.397Z" stroke-width="11"/></symbol><symbol id="L" viewBox="0 0 170 151"><path d="M69.373 54.212L85 10.003l15.627 44.209a10 10 0 0 0 9.428 6.667h49.312l-39.149 26.145a10 10 0 0 0-3.875 11.649l15.179 42.94-40.968-27.36a10 10 0 0 0-11.107 0l-40.968 27.36 15.179-42.94a10 10 0 0 0-3.875-11.649L10.633 60.88h49.311a10 10 0 0 0 9.428-6.667z" stroke-width="12"/></symbol><symbol id="M" viewBox="0 0 159 159"><path d="M11 11h137v137H11z" class="M"/></symbol><symbol id="N" viewBox="0 0 185 109"><path d="M168 16.5C168 58.198 134.197 92 92.5 92S17 58.198 17 16.5" stroke-width="33" class="N"/></symbol></defs><use href="#M" width="17.813" opacity=".71" transform="matrix(.831459 .555585 -.555585 .831459 742.441274 362.74971)" class="B G"/><use href="#D" width="9.827" opacity=".87" transform="matrix(.998893 .047037 -.047037 .998893 769.623118 278.052991)" class="H"/><use href="#D" width="24.366" opacity=".503" transform="matrix(.924525 -.381122 .381122 .924525 601.896642 -60.726671)" class="E"/><g class="B"><use href="#M" width="27.02" opacity=".612" transform="matrix(.99961 .027943 -.027943 .99961 428.365389 281.510334)" class="C"/><use href="#L" width="27.214" opacity=".695" transform="matrix(.756899 -.653532 .653532 .756899 301.650633 302.594774)" class="F"/></g><use href="#A" width="28.125" opacity=".641" transform="matrix(.995898 -.090483 .090483 .995898 503.385146 141.590162)" class="E"/><g class="J"><use href="#B" width="15.575" opacity=".712" transform="matrix(.747977 -.663725 .663725 .747977 241.299282 486.952603)"/><use href="#G" width="38.779" opacity=".291" transform="matrix(.99939 .034932 -.034932 .99939 208.919935 -.46855)"/><use href="#D" width="62.925" opacity=".147" transform="matrix(.942829 .333277 -.333277 .942829 311.593284 -201.600462)"/></g><g class="D"><use href="#A" width="11.508" opacity=".836" transform="matrix(.84913 .528183 -.528183 .84913 930.382108 311.818055)"/><use href="#C" width="14.043" opacity=".805" transform="matrix(.800416 .599445 -.599445 .800416 922.358791 316.08331)"/></g><use href="#E" width="34.649" opacity=".334" transform="matrix(.853578 -.520965 .520965 .853578 537.002829 -196.871829)" class="J"/><use href="#B" width="11.542" opacity=".875" transform="matrix(.985831 -.167742 .167742 .985831 606.924429 373.968146)" class="E"/><use href="#M" width="15.588" opacity=".791" transform="matrix(.949715 -.313114 .313114 .949715 521.360123 272.618254)" class="B C"/><use href="#C" width="15.427" opacity=".795" transform="matrix(.720201 .693765 -.693765 .720201 985.978564 320.093647)" class="H"/><use href="#H" width="20.029" opacity=".511" transform="matrix(.952909 .303255 -.303255 .952909 428.598622 340.9348)" class="B F"/><use href="#D" width="7.639" opacity=".926" transform="matrix(.725361 -.688369 .688369 .725361 461.022205 469.838637)" class="D"/><use href="#N" width="11.87" opacity=".88" transform="matrix(.76507 .643948 -.643948 .76507 971.323464 402.171719)" class="B I"/><use href="#G" width="12.295" opacity=".891" transform="matrix(.92535 -.379114 .379114 .92535 591.579592 335.857265)" class="D"/><use href="#H" width="18.5" opacity=".635" transform="matrix(.997907 -.064664 .064664 .997907 400.786635 381.892916)" class="B F"/><use href="#F" width="24.852" opacity=".569" transform="matrix(.778727 -.627362 .627362 .778727 117.316282 408.864365)" class="E"/><use href="#B" width="12.023" opacity=".782" transform="matrix(.999613 .027815 -.027815 .999613 588.161509 383.992451)" class="H"/><g class="B C"><use href="#I" width="37.233" opacity=".253" transform="matrix(.934059 -.357118 .357118 .934059 -106.455575 393.176061)"/><use href="#H" width="14.07" opacity=".793" transform="matrix(.986576 -.163302 .163302 .986576 689.596632 203.219592)"/></g><g class="D"><use href="#D" width="11.329" opacity=".771" transform="matrix(.875596 .483044 -.483044 .875596 973.216416 218.430794)"/><use href="#F" width="13.524" opacity=".856" transform="matrix(.840027 -.542545 .542545 .840027 463.068347 380.802519)"/><use href="#C" width="8.072" opacity=".93" transform="matrix(.96882 -.247766 .247766 .96882 651.351007 360.624611)"/></g><use href="#D" width="9.387" opacity=".86" transform="matrix(.962825 -.270127 .270127 .962825 674.121388 277.118961)" class="J"/><use href="#N" width="10.637" opacity=".864" transform="matrix(.832852 .553496 -.553496 .832852 944.073513 349.156793)" class="B I"/><use href="#C" width="16.67" opacity=".792" transform="matrix(.989609 -.143782 .143782 .989609 563.712992 285.74664)" class="E"/><use href="#J" width="22.646" opacity=".543" transform="matrix(.902879 .429894 -.429894 .902879 505.398331 408.13733)" class="B I"/><g class="J"><use href="#A" width="12.96" opacity=".762" transform="matrix(.930112 .367277 -.367277 .930112 707.015591 381.291798)"/><use href="#G" width="34.54" opacity=".237" transform="matrix(.99191 .126946 -.126946 .99191 767.133442 -359.155271)"/><use href="#C" width="42.559" opacity=".195" transform="matrix(.815193 .579189 -.579189 .815193 256.82361 188.792999)"/></g><use href="#C" width="30.562" opacity=".582" transform="matrix(.99642 .084544 -.084544 .99642 565.489187 67.724822)" class="D"/><g class="B"><use href="#J" width="18.26" opacity=".749" transform="matrix(.775823 -.630951 .630951 .775823 306.858903 402.46257)" class="K"/><use href="#J" width="15.123" opacity=".825" transform="matrix(.839023 -.544095 .544095 .839023 440.370794 358.337497)" class="G"/></g><use href="#E" width="30.943" opacity=".551" transform="matrix(.856084 -.516837 .516837 .856084 191.934303 240.359036)" class="D"/><use href="#E" width="20.221" opacity=".662" transform="matrix(.984073 -.177766 .177766 .984073 396.203576 309.414882)" class="J"/><use href="#B" width="26.176" opacity=".675" transform="matrix(.840201 -.542275 .542275 .840201 453.578702 168.343804)" class="H"/><g class="B"><use href="#L" width="13.198" opacity=".644" transform="matrix(.983583 .180459 -.180459 .983583 843.95754 50.000194)" class="K"/><use href="#J" width="5.476" opacity=".981" transform="matrix(.798264 -.602307 .602307 .798264 539.079348 476.772748)" class="G"/></g><use href="#B" width="12.275" opacity=".837" transform="matrix(.934444 .35611 -.35611 .934444 774.031501 409.030418)" class="H"/><use href="#H" width="29.179" opacity=".499" transform="matrix(.933516 .358536 -.358536 .933516 448.042441 284.885075)" class="B C"/><use href="#A" width="10.775" opacity=".883" transform="matrix(.938292 .345845 -.345845 .938292 835.800785 357.272031)" class="D"/><use href="#B" width="15.982" opacity=".773" transform="matrix(.91179 -.410656 .410656 .91179 564.249813 220.633077)" class="H"/><use href="#N" width="29.22" opacity=".645" transform="matrix(.999529 .030697 -.030697 .999529 610.445816 98.106441)" class="B F"/><use href="#G" width="51.441" opacity=".192" transform="matrix(.99762 .068945 -.068945 .99762 161.740609 -94.755534)" class="D"/><g class="B"><g class="G"><use href="#J" width="17.217" opacity=".792" transform="matrix(.993723 -.111868 .111868 .993723 557.207973 316.591312)"/><use href="#L" width="28.875" opacity=".588" transform="matrix(.99394 .109923 -.109923 .99394 515.070359 135.33398)"/></g><use href="#H" width="44.088" opacity=".211" transform="matrix(.971553 .236824 -.236824 .971553 642.387558 -348.107642)" class="F"/></g><use href="#D" width="7.945" opacity=".913" transform="matrix(.859121 .511773 -.511773 .859121 968.361472 373.43419)" class="L"/><g class="B"><use href="#M" width="32.987" opacity=".291" transform="matrix(.988157 -.153445 .153445 .988157 585.365483 -288.149676)" class="C"/><use href="#K" width="18.531" opacity=".555" transform="matrix(.999508 .031377 -.031377 .999508 753.138744 -42.37383)" class="I"/><use href="#I" width="13.78" opacity=".69" transform="matrix(.975002 -.222197 .222197 .975002 399.991366 351.917841)" class="F"/><use href="#L" width="31.182" opacity=".517" transform="matrix(.920659 .390369 -.390369 .920659 619.022139 66.24682)" class="G"/><use href="#M" width="8.932" opacity=".863" transform="matrix(.992097 -.125473 .125473 .992097 608.96834 390.948835)" class="I"/><use href="#M" width="29.086" opacity=".558" transform="matrix(.994123 .108257 -.108257 .994123 702.301039 -22.525452)" class="C"/></g><use href="#D" width="12.394" opacity=".81" transform="matrix(.915521 .40227 -.40227 .915521 765.752899 412.629431)" class="D"/><use href="#A" width="38.269" opacity=".31" transform="matrix(.82583 -.56392 .56392 .82583 -88.134741 241.361693)" class="H"/><use href="#K" width="6.222" opacity=".939" transform="matrix(.999733 .023099 -.023099 .999733 749.313642 376.744921)" class="B K"/><g class="L"><use href="#A" width="7.337" opacity=".938" transform="matrix(.74502 -.667042 .667042 .74502 520.748475 443.326318)"/><use href="#G" width="8.349" opacity=".908" transform="matrix(.978793 .204851 -.204851 .978793 820.619019 335.836447)"/></g><g class="B"><use href="#K" width="16.949" opacity=".841" transform="matrix(.998441 -.055821 .055821 .998441 665.100965 280.295985)" class="C"/><use href="#J" width="7.973" opacity=".889" transform="matrix(.923875 -.382694 .382694 .923875 532.457767 422.521234)" class="F"/><use href="#K" width="16.95" opacity=".713" transform="matrix(.74552 -.666483 .666483 .74552 391.624582 254.130892)" class="C"/></g><use href="#C" width="44.522" opacity=".242" transform="matrix(.960705 -.277571 .277571 .960705 -8.632825 79.363054)" class="J"/><use href="#K" width="44.836" opacity=".309" transform="matrix(.868981 -.494845 .494845 .868981 186.05419 -102.969782)" class="B I"/><g class="E"><use href="#G" width="5.36" opacity=".974" transform="matrix(.995505 -.094704 .094704 .995505 752.63627 376.698288)"/><use href="#F" width="7.919" opacity=".806" transform="matrix(.99946 .032854 -.032854 .99946 797.992586 206.182049)"/></g><use href="#D" width="6.506" opacity=".933" transform="matrix(.99999 .004519 -.004519 .99999 732.491576 391.073759)" class="D"/><use href="#F" width="8.368" opacity=".897" transform="matrix(.974988 .222256 -.222256 .974988 863.5367 308.171002)" class="E"/><g class="B F"><use href="#I" width="41.233" opacity=".376" transform="matrix(.887589 .460637 -.460637 .887589 473.318955 51.995525)"/><use href="#H" width="27.517" opacity=".431" transform="matrix(.969015 .247004 -.247004 .969015 848.715718 -158.556024)"/></g><use href="#G" width="6.36" opacity=".945" transform="matrix(.999656 -.026219 .026219 .999656 743.85552 365.776955)" class="J"/><g class="B"><use href="#J" width="28.97" opacity=".484" transform="matrix(.724897 .688858 -.688858 .724897 863.989609 25.124054)" class="G"/><use href="#N" width="39.931" opacity=".153" transform="matrix(.956305 .292371 -.292371 .956305 509.609784 -341.651701)" class="C"/></g><use href="#C" width="8.492" opacity=".918" transform="matrix(.970016 .243039 -.243039 .970016 816.889176 380.766343)" class="E"/><use href="#C" width="29.558" opacity=".647" transform="matrix(.734173 .678963 -.678963 .734173 771.002709 293.696918)" class="D"/><use href="#J" width="25.044" opacity=".629" transform="matrix(.960925 .276808 -.276808 .960925 810.871226 52.080109)" class="B C"/><use href="#A" width="11.977" opacity=".823" transform="matrix(.988424 .151715 -.151715 .988424 822.618577 229.244953)" class="L"/><g class="B"><use href="#H" width="42.335" opacity=".265" transform="matrix(.972977 -.230902 .230902 .972977 364.190944 -244.231709)" class="F"/><use href="#K" width="9.686" opacity=".817" transform="matrix(.729366 -.684123 .684123 .729366 464.294487 338.333623)" class="C"/></g><use href="#G" width="47.573" opacity=".321" transform="matrix(.994998 .099891 -.099891 .994998 594.171175 -242.584734)" class="L"/><use href="#F" width="7.82" opacity=".958" transform="matrix(.883697 -.468059 .468059 .883697 600.879703 406.738273)" class="D"/><use href="#E" width="9.078" opacity=".882" transform="matrix(.778337 -.627846 .627846 .778337 532.505364 373.732276)" class="L"/><use href="#C" width="16.971" opacity=".632" transform="matrix(.757012 .653401 -.653401 .757012 692.567328 426.542178)" class="H"/><g class="B"><use href="#J" width="4.989" opacity=".957" transform="matrix(.728624 .684914 -.684914 .728624 1033.50054 487.805451)" class="F"/><use href="#M" width=".113" opacity=".742" transform="matrix(.996119 .088019 -.088019 .996119 835.022661 144.003418)" class="I"/></g><use href="#F" width="25.919" opacity=".697" transform="matrix(.999959 -.009078 .009078 .999959 598.506401 159.540472)" class="J"/><use href="#C" width="6.117" opacity=".962" transform="matrix(.783066 .621939 -.621939 .783066 1021.135002 455.969706)" class="D"/><g class="B C"><use href="#N" width="4.428" opacity=".99" transform="matrix(.935375 .353659 -.353659 .935375 933.760762 416.780368)"/><use href="#J" width="59.351" opacity=".288" transform="matrix(.993024 .117911 -.117911 .993024 315.448066 -105.85273)"/></g><use href="#F" width="19.211" opacity=".6" transform="matrix(.994563 .104141 -.104141 .994563 796.785354 2.953434)" class="D"/><g class="B"><use href="#N" width="5.636" opacity=".931" transform="matrix(.967974 .251052 -.251052 .967974 868.026363 349.477054)" class="C"/><g class="I"><use href="#H" width="38.141" opacity=".516" transform="matrix(.941555 -.336858 .336858 .941555 266.994546 130.276441)"/><use href="#H" width="5.485" opacity=".974" transform="matrix(.999687 -.025021 .025021 .999687 768.910296 382.341454)"/></g><use href="#J" width="11.39" opacity=".815" transform="matrix(.940633 -.339426 .339426 .940633 481.209207 375.387713)" class="G"/></g><use href="#D" width="38.676" opacity=".368" transform="matrix(.993568 -.11324 .11324 .993568 173.923043 113.938547)" class="E"/><use href="#J" width="48.944" opacity=".197" transform="matrix(.726677 -.686979 .686979 .726677 44.418398 -129.341928)" class="B C"/><use href="#B" width="13.888" opacity=".731" transform="matrix(.946915 .321485 -.321485 .946915 658.52743 362.740619)" class="D"/><use href="#D" width="13.051" opacity=".861" transform="matrix(.96548 -.260476 .260476 .96548 563.92426 356.049276)" class="E"/><use href="#M" width="29.19" opacity=".44" transform="matrix(.907563 -.419915 .419915 .907563 68.29781 339.866827)" class="B K"/><use href="#F" width="23.58" opacity=".225" transform="matrix(.998568 .053494 -.053494 .998568 43.447831 280.678984)" class="E"/><g class="B"><use href="#J" width="31.35" opacity=".555" transform="matrix(.947792 .318889 -.318889 .947792 704.572137 22.954108)" class="I"/><use href="#K" width="6.004" opacity=".951" transform="matrix(.948763 .315989 -.315989 .948763 875.347505 412.532843)" class="G"/></g><g class="E"><use href="#E" width="5.553" opacity=".948" transform="matrix(.888019 -.459807 .459807 .888019 587.934336 401.34895)"/><use href="#C" width="16.423" opacity=".701" transform="matrix(.866447 .499269 -.499269 .866447 922.907037 158.905978)"/></g><use href="#H" width="6.777" opacity=".916" transform="matrix(.978507 .206216 -.206216 .978507 869.862569 324.626877)" class="B C"/><use href="#B" width="13.042" opacity=".782" transform="matrix(.966041 .25839 -.25839 .966041 687.425499 353.216279)" class="E"/><g class="B"><use href="#H" width="18.709" opacity=".592" transform="matrix(.999672 -.025621 .025621 .999672 373.926308 371.075512)" class="I"/><use href="#J" width="31.36" opacity=".398" transform="matrix(.945666 .325141 -.325141 .945666 535.709873 -50.30663)" class="C"/></g><use href="#G" width="10.833" opacity=".848" transform="matrix(.842034 .539425 -.539425 .842034 970.923341 313.359174)" class="D"/><use href="#B" width="16.231" opacity=".744" transform="matrix(.883824 .467819 -.467819 .883824 945.380422 188.664646)" class="E"/><g class="B"><use href="#M" width="9.076" opacity=".893" transform="matrix(.999186 -.040345 .040345 .999186 681.692661 357.642354)" class="G"/><use href="#N" width="7.74" opacity=".837" transform="matrix(.732471 .680798 -.680798 .732471 1058.003927 341.310319)" class="F"/></g><use href="#F" width="13.026" opacity=".675" transform="matrix(.998762 -.049754 .049754 .998762 732.336243 78.437845)" class="D"/><use href="#A" width="15.788" opacity=".737" transform="matrix(.996372 .085106 -.085106 .996372 739.908463 152.741296)" class="H"/><use href="#C" width="46.893" opacity=".069" transform="matrix(.955746 .294192 -.294192 .955746 334.167785 -332.684654)" class="E"/><g class="B"><use href="#K" width="13.382" opacity=".747" transform="matrix(.962079 .272773 -.272773 .962079 650.52708 397.462106)" class="C"/><g class="G"><use href="#J" width="30.28" opacity=".484" transform="matrix(.99546 -.095184 .095184 .99546 633.075529 -99.897741)"/><use href="#N" width="33.938" opacity=".339" transform="matrix(.978231 -.207519 .207519 .978231 40.132283 376.428214)"/><use href="#N" width="28.159" opacity=".556" transform="matrix(.926511 -.376269 .376269 .926511 220.566776 278.233361)"/></g></g><use href="#F" width="11.094" opacity=".846" transform="matrix(.956173 -.292801 .292801 .956173 529.005728 376.824038)" class="J"/><use href="#B" width="15.996" opacity=".828" transform="matrix(.999942 .010738 -.010738 .999942 643.141926 321.444549)" class="D"/><use href="#A" width="33.869" opacity=".412" transform="matrix(.999073 -.043039 .043039 .999073 178.908675 362.181956)" class="E"/><use href="#E" width="22.075" opacity=".612" transform="matrix(.762852 -.646573 .646573 .762852 186.874357 326.599511)" class="D"/><g class="B"><g class="G"><use href="#L" width="19.385" opacity=".708" transform="matrix(.812772 -.582582 .582582 .812772 310.138742 327.820573)"/><use href="#H" width="14.493" opacity=".674" transform="matrix(.967222 -.253934 .253934 .967222 365.940383 391.513105)"/></g><use href="#M" width="7.591" opacity=".915" transform="matrix(.856703 -.515809 .515809 .856703 505.789012 451.084001)" class="K"/></g><use href="#F" width="29.301" opacity=".411" transform="matrix(.999747 -.022484 .022484 .999747 591.346073 -159.038033)" class="E"/><g class="B"><use href="#K" width="59.02" opacity=".136" transform="matrix(.95108 -.308944 .308944 .95108 -101.216595 -2.917755)" class="F"/><use href="#H" width="43.384" opacity=".479" transform="matrix(.777807 .628503 -.628503 .777807 750.09684 38.357444)" class="G"/><use href="#K" width="35.267" opacity=".262" transform="matrix(.877263 -.48001 .48001 .877263 -124.963414 283.152904)" class="C"/><use href="#J" width="28.297" opacity=".615" transform="matrix(.994236 .107217 -.107217 .994236 677.228755 46.38735)" class="G"/><use href="#L" width="41.043" opacity=".44" transform="matrix(.931363 -.364091 .364091 .931363 226.911941 50.986624)" class="F"/></g><use href="#C" width="14.686" opacity=".762" transform="matrix(.999211 .039708 -.039708 .999211 690.927749 193.203774)" class="H"/><use href="#B" width="14.444" opacity=".755" transform="matrix(.992472 -.122469 .122469 .992472 532.774225 279.528408)" class="E"/><g class="B"><g class="C"><use href="#N" width="36.115" opacity=".378" transform="matrix(.809895 .586575 -.586575 .809895 420.147142 300.262217)"/><use href="#M" width="10.379" opacity=".905" transform="matrix(.985745 .168249 -.168249 .985745 786.536648 347.886217)"/></g><use href="#H" width="28.812" opacity=".428" transform="matrix(.894356 -.447357 .447357 .894356 72.458092 248.712606)" class="F"/><use href="#L" width="54.057" opacity=".059" transform="matrix(.979474 -.201569 .201569 .979474 -43.538824 -171.721529)" class="C"/><use href="#I" width="32.442" opacity=".391" transform="matrix(.769264 .638931 -.638931 .769264 933.860148 -117.30072)" class="K"/></g><use href="#G" width="21.483" opacity=".669" transform="matrix(.714972 -.699153 .699153 .714972 213.314965 379.853923)" class="D"/><g class="B"><use href="#H" width="31.614" opacity=".489" transform="matrix(.886662 -.462419 .462419 .886662 136.098928 240.050629)" class="F"/><use href="#L" width="44.276" opacity=".387" transform="matrix(.970944 -.239305 .239305 .970944 397.205745 -125.192614)" class="C"/><use href="#K" width="38.574" opacity=".454" transform="matrix(.991216 .13225 -.13225 .991216 370.749571 110.348446)" class="F"/><use href="#N" width="27.839" opacity=".34" transform="matrix(.906799 .421563 -.421563 .906799 304.444485 323.147306)" class="G"/><use href="#M" width="21.091" opacity=".748" transform="matrix(.812278 .58327 -.58327 .812278 864.459282 274.327117)" class="C"/><use href="#K" width="55.355" opacity="-.024" transform="matrix(.966511 .256624 -.256624 .966511 155.9916 -322.976094)" class="F"/></g><use href="#B" width="7.831" opacity=".902" transform="matrix(.808198 -.588911 .588911 .808198 465.799468 456.487697)" class="D"/><g class="B"><use href="#H" width="11.71" opacity=".711" transform="matrix(.9754 -.220441 .220441 .9754 689.072187 122.331922)" class="G"/><use href="#L" width="23.26" opacity=".478" transform="matrix(.945332 -.326109 .326109 .945332 137.31737 396.753188)" class="C"/></g><use href="#C" width="17.217" opacity=".746" transform="matrix(.995013 .099745 -.099745 .995013 637.508221 237.624049)" class="L"/><use href="#N" width="5.295" opacity=".968" transform="matrix(.995871 -.090782 .090782 .995871 729.798269 394.751437)" class="B C"/></svg>