<svg xmlns="http://www.w3.org/2000/svg" version="1.1" xmlns:xlink="http://www.w3.org/1999/xlink" xmlns:svgjs="http://svgjs.dev/svgjs" viewBox="0 0 800 800" opacity="1"><defs><symbol id="bbburst-shape-1" viewBox="0 0 194 167"><path d="m97 0 96.129 166.5H.871L97 0Z"></path></symbol><symbol id="bbburst-shape-2" viewBox="0 0 126 115"><path d="m63 0 62.77 43.877-23.976 70.996H24.206L.23 43.877 63 0Z"></path></symbol><symbol id="bbburst-shape-3" viewBox="0 0 131 127"><path d="m66 0 66 63.5L66 127 0 63.5 66 0Z"></path></symbol><symbol id="bbburst-shape-4" viewBox="0 0 149 143"><path d="M71.647 2.781c.898-2.764 4.808-2.764 5.706 0l15.445 47.534a3 3 0 0 0 2.853 2.073h49.98c2.906 0 4.115 3.719 1.764 5.427L106.96 87.193a2.999 2.999 0 0 0-1.09 3.354l15.445 47.534c.898 2.764-2.266 5.062-4.617 3.354l-40.435-29.378a3 3 0 0 0-3.526 0l-40.435 29.378c-2.351 1.708-5.515-.59-4.617-3.354L43.13 90.547a3 3 0 0 0-1.09-3.354L1.605 57.815c-2.35-1.708-1.142-5.427 1.764-5.427h49.98a3 3 0 0 0 2.853-2.073L71.647 2.781Z"></path></symbol><symbol id="bbburst-shape-5" viewBox="0 0 145 145"><circle cx="72.5" cy="72.5" r="72.5"></circle></symbol><symbol id="bbburst-shape-6" viewBox="0 0 133 116"><path d="M59.7487 10.2513c-13.6683-13.66839-35.8291-13.66839-49.4974 0-13.66839 13.6683-13.66839 35.8291 0 49.4974l49.4974-49.4974ZM66.5 66.5 41.7513 91.2487 66.5 115.997l24.7487-24.7483L66.5 66.5Zm56.249-6.7513c13.668-13.6683 13.668-35.8291 0-49.4974-13.669-13.66839-35.8294-13.66839-49.4977 0l49.4977 49.4974Zm-112.4977 0 31.5 31.5 49.4974-49.4974-31.5-31.5-49.4974 49.4974Zm80.9974 31.5 31.5003-31.5-49.4977-49.4974-31.5 31.5 49.4974 49.4974Z"></path></symbol><symbol id="bbburst-shape-7" viewBox="0 0 139 124"><path fill-rule="evenodd" clip-rule="evenodd" d="M70.1641 15.0917C54.6093.764854 37.8293-2.10782 24.4032 2.82615 10.3804 7.97941.763366 21.4591 1.00047 37.0608c.1068 7.0273 2.86132 13.7317 7.0039 20.2001C12.1442 63.7249 17.853 70.2322 24.25 76.9024c3.8209 3.9842 7.8871 8.0312 12.0767 12.201h.0001c10.0335 9.9862 20.7748 20.6766 30.5497 32.8956 1.38 1.725 3.8972 2.005 5.6223.624.6706-.536 1.1228-1.244 1.3439-2.011 9.5768-11.748 20.0328-22.0735 29.8163-31.7351 4.19-4.1373 8.256-8.1528 12.078-12.1062 6.396-6.6176 12.106-13.0752 16.247-19.4911 4.144-6.4196 6.905-13.0811 7.012-20.0691.237-15.5124-9.399-28.8902-23.411-33.99923-13.32-4.85681-29.9542-2.08621-45.4209 11.88043Zm-3.7351 7.4919C52.1278 8.44857 37.6826 6.46918 27.1626 10.3352 16.2859 14.3323 8.8148 24.7824 8.99955 36.9392c.07575 4.9844 2.03755 10.2234 5.74165 16.0072 3.707 5.7881 8.9752 11.8418 15.2827 18.4187 3.5798 3.7328 7.4978 7.6329 11.6 11.7163 9.0476 9.0063 18.9911 18.9046 28.1786 29.8666 9.2999-11.068 19.4036-21.0473 28.5839-30.1144l.0007-.0006c4.1019-4.0508 8.0189-7.9196 11.5979-11.6222 6.307-6.5252 11.573-12.5298 15.278-18.2697 3.703-5.7362 5.658-10.924 5.734-15.8531.184-12.0276-7.267-22.3914-18.153-26.3608-10.71-3.90518-25.4722-1.80041-40.0023 12.867-1.5547 1.5694-4.0874 1.5813-5.6568.0265-.3146-.3116-.5666-.6625-.7559-1.0371Z"></path></symbol><symbol id="bbburst-shape-8" viewBox="0 0 87 168"><path d="m12 12 31.2546 18.0749c16.4102 9.4902 20.014 31.6325 7.4603 45.8369L36.3296 92.1884c-12.5684 14.2206-8.9394 36.3916 7.5068 45.8636L75 156" stroke-width="14" stroke-linecap="round" stroke-linejoin="round"></path></symbol><symbol id="bbburst-shape-9" viewBox="0 0 182 172"><path d="M13.5809 69.845 91 13.5967l77.419 56.2483-29.571 91.012H43.1524L13.5809 69.845Z" stroke-width="22"></path></symbol><symbol id="bbburst-shape-10" viewBox="0 0 145 145"><circle cx="72.5" cy="72.5" r="61.5" fill="none" stroke-width="22"></circle></symbol><symbol id="bbburst-shape-11" viewBox="0 0 194 167"><path d="M10.398 161 97 11l86.603 150H10.397Z" stroke-width="11"></path></symbol><symbol id="bbburst-shape-12" viewBox="0 0 170 151"><path d="M69.3728 54.2122 85 10.0031l15.627 44.2091c1.413 3.9958 5.19 6.6672 9.428 6.6673h49.312l-39.149 26.1447c-3.803 2.5401-5.399 7.3367-3.875 11.6488l15.179 42.94-40.9683-27.36c-3.3621-2.245-7.7453-2.245-11.1074 0l-40.9682 27.36 15.1785-42.94c1.5243-4.3121-.0712-9.1087-3.8746-11.6488L10.6333 60.8795h49.3112c4.2381-.0001 8.0159-2.6715 9.4283-6.6673Z" stroke-width="12"></path></symbol><symbol id="bbburst-shape-13" viewBox="0 0 159 159"><path stroke-width="22" d="M11 11h137v137H11z"></path></symbol><symbol id="bbburst-shape-14" viewBox="0 0 185 109"><path d="M168 16.5C168 58.1975 134.197 92 92.5 92 50.8025 92 17 58.1975 17 16.5" stroke-width="33" stroke-linecap="round"></path></symbol></defs><use xlink:href="#bbburst-shape-13" width="17.813203532558905" opacity="0.7099334247129989" transform="matrix(0.831459444132386,0.5555854504602002,-0.5555854504602002,0.831459444132386,742.4412737196626,362.7497102255327)" fill="none" stroke="#ffa6d5"></use><use xlink:href="#bbburst-shape-4" width="9.826649567609397" opacity="0.8700541912292232" transform="matrix(0.998893165938016,0.04703661384844031,-0.04703661384844031,0.998893165938016,769.6231184559624,278.0529907203784)" fill="#ffbd9b"></use><use xlink:href="#bbburst-shape-4" width="24.36611978610624" opacity="0.5032271528182843" transform="matrix(0.9245249154129093,-0.38112160891341873,0.38112160891341873,0.9245249154129093,601.8966424622942,-60.726670843300155)" fill="#2c2891"></use><use xlink:href="#bbburst-shape-13" width="27.01996610922219" opacity="0.6122178596132353" transform="matrix(0.9996095311916381,0.027942533006752902,-0.027942533006752902,0.9996095311916381,428.3653892286551,281.5103339795929)" fill="none" stroke="#00a19d"></use><use xlink:href="#bbburst-shape-12" width="27.213683341283126" opacity="0.695430506867043" transform="matrix(0.7568990381436957,-0.6535318248235109,0.6535318248235109,0.7568990381436957,301.6506328190449,302.5947741036774)" fill="none" stroke="#2c2891"></use><use xlink:href="#bbburst-shape-1" width="28.12473496308538" opacity="0.64079035231691" transform="matrix(0.9958980146822607,-0.09048284009651578,0.09048284009651578,0.9958980146822607,503.3851464680251,141.590161889211)" fill="#2c2891"></use><use xlink:href="#bbburst-shape-2" width="15.574936378828408" opacity="0.7119793745220258" transform="matrix(0.7479768684391422,-0.6637247955892368,0.6637247955892368,0.7479768684391422,241.29928169713418,486.95260263064085)" fill="#ffa6d5"></use><use xlink:href="#bbburst-shape-7" width="38.77869407496532" opacity="0.2908683615307267" transform="matrix(0.9993896874337269,0.03493211489614842,-0.03493211489614842,0.9993896874337269,208.91993456438044,-0.46854966201925663)" fill="#ffa6d5"></use><use xlink:href="#bbburst-shape-4" width="62.92535418751517" opacity="0.1470369065799937" transform="matrix(0.9428289998566908,0.3332768774296115,-0.3332768774296115,0.9428289998566908,311.5932841966678,-201.60046235223837)" fill="#ffa6d5"></use><use xlink:href="#bbburst-shape-1" width="11.507895543788306" opacity="0.835845168261231" transform="matrix(0.8491304256252677,0.5281832260470334,-0.5281832260470334,0.8491304256252677,930.3821080646613,311.81805513008226)" fill="#00a19d"></use><use xlink:href="#bbburst-shape-3" width="14.043211897405003" opacity="0.8052372618463499" transform="matrix(0.8004162004204508,0.5994446647560463,-0.5994446647560463,0.8004162004204508,922.3587907972466,316.0833100548611)" fill="#00a19d"></use><use xlink:href="#bbburst-shape-5" width="34.64917285652335" opacity="0.3343414942135676" transform="matrix(0.8535778009451777,-0.5209653901494751,0.5209653901494751,0.8535778009451777,537.0028287492429,-196.87182916181638)" fill="#ffa6d5"></use><use xlink:href="#bbburst-shape-2" width="11.542235550449849" opacity="0.8753513289043223" transform="matrix(0.9858308627353832,-0.16774239201349755,0.16774239201349755,0.9858308627353832,606.9244292498043,373.9681459513565)" fill="#2c2891"></use><use xlink:href="#bbburst-shape-13" width="15.587603538865194" opacity="0.79072862093182" transform="matrix(0.9497154039766006,-0.31311443826429075,0.31311443826429075,0.9497154039766006,521.3601229247262,272.6182542046125)" fill="none" stroke="#00a19d"></use><use xlink:href="#bbburst-shape-3" width="15.427004687864743" opacity="0.7947163180386649" transform="matrix(0.7202014838534047,0.693764962112785,-0.693764962112785,0.7202014838534047,985.9785641289543,320.09364674443384)" fill="#ffbd9b"></use><use xlink:href="#bbburst-shape-8" width="20.02864555096791" opacity="0.5110737325992065" transform="matrix(0.9529094593315507,0.3032549460708789,-0.3032549460708789,0.9529094593315507,428.59862168608527,340.93480031159726)" fill="none" stroke="#2c2891"></use><use xlink:href="#bbburst-shape-4" width="7.639457057656401" opacity="0.9256789782888675" transform="matrix(0.7253608930092841,-0.6883687782669795,0.6883687782669795,0.7253608930092841,461.0222048546479,469.8386368084115)" fill="#00a19d"></use><use xlink:href="#bbburst-shape-14" width="11.869594850551621" opacity="0.8799247115954703" transform="matrix(0.765069619928064,0.6439475729150066,-0.6439475729150066,0.765069619928064,971.3234641380038,402.1717194502498)" fill="none" stroke="#ffbd9b"></use><use xlink:href="#bbburst-shape-7" width="12.295158195371236" opacity="0.8909675042563046" transform="matrix(0.9253498699742478,-0.37911425472889115,0.37911425472889115,0.9253498699742478,591.5795916745705,335.8572654356666)" fill="#00a19d"></use><use xlink:href="#bbburst-shape-8" width="18.499698533500453" opacity="0.6353586701934711" transform="matrix(0.9979070947416795,-0.06466397965034802,0.06466397965034802,0.9979070947416795,400.7866346979042,381.8929164227333)" fill="none" stroke="#2c2891"></use><use xlink:href="#bbburst-shape-6" width="24.851609476106916" opacity="0.568974858721508" transform="matrix(0.7787274442751133,-0.6273623893195626,0.6273623893195626,0.7787274442751133,117.31628191386778,408.86436491419937)" fill="#2c2891"></use><use xlink:href="#bbburst-shape-2" width="12.023313931946989" opacity="0.7824557380984074" transform="matrix(0.9996130884291264,0.027814985910177562,-0.027814985910177562,0.9996130884291264,588.161508538945,383.9924507501315)" fill="#ffbd9b"></use><use xlink:href="#bbburst-shape-9" width="37.23324494921171" opacity="0.2528195560682004" transform="matrix(0.9340591015180812,-0.3571184605578867,0.3571184605578867,0.9340591015180812,-106.45557468373437,393.17606133241617)" fill="none" stroke="#00a19d"></use><use xlink:href="#bbburst-shape-8" width="14.070347421403394" opacity="0.7931541457253222" transform="matrix(0.9865760945724864,-0.16330220334735343,0.16330220334735343,0.9865760945724864,689.5966324224661,203.21959229309857)" fill="none" stroke="#00a19d"></use><use xlink:href="#bbburst-shape-4" width="11.329124785626295" opacity="0.77090248246533" transform="matrix(0.8755960763934437,0.4830440052463199,-0.4830440052463199,0.8755960763934437,973.216416133263,218.43079425820457)" fill="#00a19d"></use><use xlink:href="#bbburst-shape-6" width="13.524281274174623" opacity="0.856496766718926" transform="matrix(0.8400268856005623,-0.5425447736991114,0.5425447736991114,0.8400268856005623,463.06834702895657,380.8025185776656)" fill="#00a19d"></use><use xlink:href="#bbburst-shape-3" width="8.071621371033956" opacity="0.9301912794807987" transform="matrix(0.9688198435929585,-0.24776624197116817,0.24776624197116817,0.9688198435929585,651.3510071643813,360.6246108906288)" fill="#00a19d"></use><use xlink:href="#bbburst-shape-4" width="9.386653977258973" opacity="0.860337023475278" transform="matrix(0.9628245985807965,-0.2701273632339533,0.2701273632339533,0.9628245985807965,674.121387511207,277.11896081356497)" fill="#ffa6d5"></use><use xlink:href="#bbburst-shape-14" width="10.63713088474831" opacity="0.8640410676549396" transform="matrix(0.8328520517327427,0.5534956729050019,-0.5534956729050019,0.8328520517327427,944.0735126669832,349.15679321881856)" fill="none" stroke="#ffbd9b"></use><use xlink:href="#bbburst-shape-3" width="16.670107884025327" opacity="0.7917553002079645" transform="matrix(0.9896094079328825,-0.14378184770940186,0.14378184770940186,0.9896094079328825,563.7129924188141,285.7466395235422)" fill="#2c2891"></use><use xlink:href="#bbburst-shape-10" width="22.645691597584555" opacity="0.5429327701903515" transform="matrix(0.9028794410407296,0.4298938414841269,-0.4298938414841269,0.9028794410407296,505.3983308955244,408.1373301920752)" fill="none" stroke="#ffbd9b"></use><use xlink:href="#bbburst-shape-1" width="12.959798551744832" opacity="0.7619793827546297" transform="matrix(0.9301117223028106,0.36727671316719673,-0.36727671316719673,0.9301117223028106,707.0155913415862,381.2917984673677)" fill="#ffa6d5"></use><use xlink:href="#bbburst-shape-7" width="34.54028916207436" opacity="0.23693410902966983" transform="matrix(0.9919096575944131,0.12694578043769025,-0.12694578043769025,0.9919096575944131,767.1334417239874,-359.155270932295)" fill="#ffa6d5"></use><use xlink:href="#bbburst-shape-3" width="42.55925733793882" opacity="0.19502506855545287" transform="matrix(0.8151929548108554,0.5791894736843433,-0.5791894736843433,0.8151929548108554,256.8236098077796,188.79299869298535)" fill="#ffa6d5"></use><use xlink:href="#bbburst-shape-3" width="30.562200710767634" opacity="0.5822736270384341" transform="matrix(0.9964197069768518,0.08454447083141958,-0.08454447083141958,0.9964197069768518,565.4891874333204,67.72482193519636)" fill="#00a19d"></use><use xlink:href="#bbburst-shape-10" width="18.260205578363266" opacity="0.7485076670967667" transform="matrix(0.7758230211910341,-0.6309505842694944,0.6309505842694944,0.7758230211910341,306.8589029549388,402.46257000719766)" fill="none" stroke="#ff5c58"></use><use xlink:href="#bbburst-shape-10" width="15.122555504776377" opacity="0.8252518369387427" transform="matrix(0.8390234981037683,-0.5440951843471103,0.5440951843471103,0.8390234981037683,440.3707943500774,358.33749725098824)" fill="none" stroke="#ffa6d5"></use><use xlink:href="#bbburst-shape-5" width="30.943356832723964" opacity="0.5513048688598753" transform="matrix(0.8560837290944939,-0.5168371588611494,0.5168371588611494,0.8560837290944939,191.93430286272917,240.359036434733)" fill="#00a19d"></use><use xlink:href="#bbburst-shape-5" width="20.221207443656603" opacity="0.6624889717162266" transform="matrix(0.9840728409334873,-0.17776569898913355,0.17776569898913355,0.9840728409334873,396.203576001393,309.4148822823283)" fill="#ffa6d5"></use><use xlink:href="#bbburst-shape-2" width="26.175535755652927" opacity="0.6749383119825961" transform="matrix(0.8402010361807852,-0.5422750398098135,0.5422750398098135,0.8402010361807852,453.5787020824505,168.3438040478668)" fill="#ffbd9b"></use><use xlink:href="#bbburst-shape-12" width="13.197741090950188" opacity="0.6439831783942469" transform="matrix(0.9835825203510585,0.18045893067360086,-0.18045893067360086,0.9835825203510585,843.9575402557442,50.00019438615311)" fill="none" stroke="#ff5c58"></use><use xlink:href="#bbburst-shape-10" width="5.4758293838201775" opacity="0.9813370595546741" transform="matrix(0.7982643905380207,-0.6023071996904589,0.6023071996904589,0.7982643905380207,539.0793479036977,476.7727477724304)" fill="none" stroke="#ffa6d5"></use><use xlink:href="#bbburst-shape-2" width="12.274773393129244" opacity="0.836633547012302" transform="matrix(0.9344440438798638,0.35610999544725946,-0.35610999544725946,0.9344440438798638,774.0315013616997,409.0304181537657)" fill="#ffbd9b"></use><use xlink:href="#bbburst-shape-8" width="29.17858919576587" opacity="0.49928868461343634" transform="matrix(0.9335158515117158,0.3585361278537439,-0.3585361278537439,0.9335158515117158,448.0424409220916,284.8850751758441)" fill="none" stroke="#00a19d"></use><use xlink:href="#bbburst-shape-1" width="10.774877924159886" opacity="0.8825260442225272" transform="matrix(0.9382915635448383,0.34584525698725804,-0.34584525698725804,0.9382915635448383,835.8007854383513,357.272031113144)" fill="#00a19d"></use><use xlink:href="#bbburst-shape-2" width="15.98246991622258" opacity="0.7727996542131919" transform="matrix(0.9117903777142917,-0.4106559473666847,0.4106559473666847,0.9117903777142917,564.2498132063891,220.63307672583824)" fill="#ffbd9b"></use><use xlink:href="#bbburst-shape-14" width="29.219707309430525" opacity="0.6449490239948645" transform="matrix(0.9995287492382344,0.030696570594297038,-0.030696570594297038,0.9995287492382344,610.4458155298587,98.10644119136765)" fill="none" stroke="#2c2891"></use><use xlink:href="#bbburst-shape-7" width="51.44128442165523" opacity="0.19158475572438827" transform="matrix(0.9976204847749942,0.0689446760620828,-0.0689446760620828,0.9976204847749942,161.7406086431477,-94.75553419244432)" fill="#00a19d"></use><use xlink:href="#bbburst-shape-10" width="17.217257248368" opacity="0.7915410832220082" transform="matrix(0.9937230849830986,-0.11186791484457669,0.11186791484457669,0.9937230849830986,557.2079728725387,316.5913115207597)" fill="none" stroke="#ffa6d5"></use><use xlink:href="#bbburst-shape-12" width="28.874593452460033" opacity="0.5884069271832739" transform="matrix(0.9939401298792143,0.10992278296918462,-0.10992278296918462,0.9939401298792143,515.0703590134751,135.33398044837668)" fill="none" stroke="#ffa6d5"></use><use xlink:href="#bbburst-shape-8" width="44.08819856880891" opacity="0.21117585561228658" transform="matrix(0.9715526542693412,0.23682364743031434,-0.23682364743031434,0.9715526542693412,642.3875578505534,-348.1076415751113)" fill="none" stroke="#2c2891"></use><use xlink:href="#bbburst-shape-4" width="7.944770775450771" opacity="0.9126627649080312" transform="matrix(0.8591206108969115,0.51177316843707,-0.51177316843707,0.8591206108969115,968.3614721255394,373.4341902379613)" fill="#ff5c58"></use><use xlink:href="#bbburst-shape-13" width="32.98706295090403" opacity="0.2912240929540869" transform="matrix(0.988157134840821,-0.1534453546484202,0.1534453546484202,0.988157134840821,585.3654834339072,-288.14967558419437)" fill="none" stroke="#00a19d"></use><use xlink:href="#bbburst-shape-11" width="18.53088970389889" opacity="0.5551219565059058" transform="matrix(0.9995076186658552,0.03137706533299937,-0.03137706533299937,0.9995076186658552,753.1387436889806,-42.37383032400385)" fill="none" stroke="#ffbd9b"></use><use xlink:href="#bbburst-shape-9" width="13.779750563425646" opacity="0.6898435218323451" transform="matrix(0.9750017855819321,-0.22219702543473493,0.22219702543473493,0.9750017855819321,399.99136645599356,351.91784069681034)" fill="none" stroke="#2c2891"></use><use xlink:href="#bbburst-shape-12" width="31.181884999587844" opacity="0.5169585551171428" transform="matrix(0.9206586693644697,0.3903685624176772,-0.3903685624176772,0.9206586693644697,619.022138654719,66.24681993864874)" fill="none" stroke="#ffa6d5"></use><use xlink:href="#bbburst-shape-13" width="8.932168996901257" opacity="0.8629916682314369" transform="matrix(0.9920970309702303,-0.12547302953246106,0.12547302953246106,0.9920970309702303,608.9683403800509,390.94883526228216)" fill="none" stroke="#ffbd9b"></use><use xlink:href="#bbburst-shape-13" width="29.086027440302082" opacity="0.5581878546483612" transform="matrix(0.9941229101210899,0.1082572841538875,-0.1082572841538875,0.9941229101210899,702.301039032488,-22.525451929076723)" fill="none" stroke="#00a19d"></use><use xlink:href="#bbburst-shape-4" width="12.39428299485819" opacity="0.8096046985437979" transform="matrix(0.9155212543640052,0.4022696021423423,-0.4022696021423423,0.9155212543640052,765.7528988733516,412.62943095337613)" fill="#00a19d"></use><use xlink:href="#bbburst-shape-1" width="38.26901127197378" opacity="0.31041478881091666" transform="matrix(0.8258297119305267,-0.5639195748444482,0.5639195748444482,0.8258297119305267,-88.1347411720796,241.3616928157773)" fill="#ffbd9b"></use><use xlink:href="#bbburst-shape-11" width="6.221957928549294" opacity="0.9386244755450788" transform="matrix(0.9997331755358523,0.023099301569545747,-0.023099301569545747,0.9997331755358523,749.3136418493785,376.7449205441039)" fill="none" stroke="#ff5c58"></use><use xlink:href="#bbburst-shape-1" width="7.336719244043357" opacity="0.9381142385228263" transform="matrix(0.7450202759027497,-0.6670418191491376,0.6670418191491376,0.7450202759027497,520.7484751101108,443.3263180226021)" fill="#ff5c58"></use><use xlink:href="#bbburst-shape-7" width="8.349295049993101" opacity="0.9082106897076578" transform="matrix(0.9787931950158432,0.20485087598220705,-0.20485087598220705,0.9787931950158432,820.6190185658796,335.8364474416433)" fill="#ff5c58"></use><use xlink:href="#bbburst-shape-11" width="16.949443675295747" opacity="0.8407003476399029" transform="matrix(0.9984408054760994,-0.05582076638884334,0.05582076638884334,0.9984408054760994,665.1009649878647,280.29598524340867)" fill="none" stroke="#00a19d"></use><use xlink:href="#bbburst-shape-10" width="7.973093578234138" opacity="0.8888158610873027" transform="matrix(0.9238750264073579,-0.38269431088115713,0.38269431088115713,0.9238750264073579,532.4577665028764,422.5212336083372)" fill="none" stroke="#2c2891"></use><use xlink:href="#bbburst-shape-11" width="16.949665257924963" opacity="0.712955976658358" transform="matrix(0.7455199439336466,-0.6664833180186676,0.6664833180186676,0.7455199439336466,391.62458200683193,254.1308917806076)" fill="none" stroke="#00a19d"></use><use xlink:href="#bbburst-shape-3" width="44.52230139864011" opacity="0.2421003563654507" transform="matrix(0.9607051268859189,-0.2775709984402377,0.2775709984402377,0.9607051268859189,-8.632825372684735,79.36305413178633)" fill="#ffa6d5"></use><use xlink:href="#bbburst-shape-11" width="44.83645489222735" opacity="0.3091111258333893" transform="matrix(0.8689811474863371,-0.4948451932810187,0.4948451932810187,0.8689811474863371,186.05418998027253,-102.9697822075376)" fill="none" stroke="#ffbd9b"></use><use xlink:href="#bbburst-shape-7" width="5.360058344450463" opacity="0.9737518613777018" transform="matrix(0.9955054881751121,-0.09470387010693827,0.09470387010693827,0.9955054881751121,752.6362698486062,376.69828773315174)" fill="#2c2891"></use><use xlink:href="#bbburst-shape-6" width="7.918501599852063" opacity="0.8057733920170497" transform="matrix(0.9994601779377515,0.03285350387154958,-0.03285350387154958,0.9994601779377515,797.9925857806824,206.18204852261925)" fill="#2c2891"></use><use xlink:href="#bbburst-shape-4" width="6.506393577292515" opacity="0.9333373242905556" transform="matrix(0.9999897874159047,0.004519409684203045,-0.004519409684203045,0.9999897874159047,732.4915755242628,391.0737585883599)" fill="#00a19d"></use><use xlink:href="#bbburst-shape-6" width="8.368046599272784" opacity="0.8968753173472743" transform="matrix(0.9749882673965108,0.22225633498091804,-0.22225633498091804,0.9749882673965108,863.5367003424866,308.17100243706375)" fill="#2c2891"></use><use xlink:href="#bbburst-shape-9" width="41.23305767168495" opacity="0.3757571372999452" transform="matrix(0.8875885353113189,0.46063715870944205,-0.46063715870944205,0.8875885353113189,473.3189554573748,51.99552464272506)" fill="none" stroke="#2c2891"></use><use xlink:href="#bbburst-shape-8" width="27.51657947339856" opacity="0.43125931481558166" transform="matrix(0.9690145067477489,0.2470038172021173,-0.2470038172021173,0.9690145067477489,848.7157177688797,-158.55602420005974)" fill="none" stroke="#2c2891"></use><use xlink:href="#bbburst-shape-7" width="6.359854226972595" opacity="0.9453307875239447" transform="matrix(0.9996562203209642,-0.026219099404893812,0.026219099404893812,0.9996562203209642,743.8555197286703,365.776954679829)" fill="#ffa6d5"></use><use xlink:href="#bbburst-shape-10" width="28.969828375398126" opacity="0.4842581021895539" transform="matrix(0.7248967487512304,0.6888575350897278,-0.6888575350897278,0.7248967487512304,863.989609050305,25.124054156852196)" fill="none" stroke="#ffa6d5"></use><use xlink:href="#bbburst-shape-14" width="39.930612154933286" opacity="0.1525037296412075" transform="matrix(0.9563048306484219,0.29237146043773354,-0.29237146043773354,0.9563048306484219,509.6097843825918,-341.6517007157389)" fill="none" stroke="#00a19d"></use><use xlink:href="#bbburst-shape-3" width="8.49239020910282" opacity="0.9180604311155017" transform="matrix(0.9700164118046035,0.24303942237777368,-0.24303942237777368,0.9700164118046035,816.8891755409745,380.7663429360702)" fill="#2c2891"></use><use xlink:href="#bbburst-shape-3" width="29.557887062016142" opacity="0.64657061606366" transform="matrix(0.7341725925267145,0.6789628888110181,-0.6789628888110181,0.7341725925267145,771.0027092249054,293.6969181510658)" fill="#00a19d"></use><use xlink:href="#bbburst-shape-10" width="25.04427613144574" opacity="0.6293623022774825" transform="matrix(0.9609253785967247,0.2768075446384026,-0.2768075446384026,0.9609253785967247,810.8712259022475,52.08010911826335)" fill="none" stroke="#00a19d"></use><use xlink:href="#bbburst-shape-1" width="11.97705001032705" opacity="0.8225716552229435" transform="matrix(0.9884243044154617,0.1517148458154662,-0.1517148458154662,0.9884243044154617,822.6185765315518,229.2449530508004)" fill="#ff5c58"></use><use xlink:href="#bbburst-shape-8" width="42.335425444365455" opacity="0.26533032925224764" transform="matrix(0.9729770774819176,-0.23090172518789567,0.23090172518789567,0.9729770774819176,364.19094406329106,-244.2317085076936)" fill="none" stroke="#2c2891"></use><use xlink:href="#bbburst-shape-11" width="9.685718364883359" opacity="0.8172619302121154" transform="matrix(0.7293662039002106,-0.6841234834503173,0.6841234834503173,0.7293662039002106,464.29448742576596,338.3336230272662)" fill="none" stroke="#00a19d"></use><use xlink:href="#bbburst-shape-7" width="47.57313618652289" opacity="0.32054992100987834" transform="matrix(0.9949984246330931,0.09989061506299253,-0.09989061506299253,0.9949984246330931,594.1711747093682,-242.58473441367937)" fill="#ff5c58"></use><use xlink:href="#bbburst-shape-6" width="7.819859149497794" opacity="0.957539458278049" transform="matrix(0.8836973952229324,-0.46805866478060665,0.46805866478060665,0.8836973952229324,600.8797029217981,406.73827291626145)" fill="#00a19d"></use><use xlink:href="#bbburst-shape-5" width="9.07822569681064" opacity="0.8815213139890243" transform="matrix(0.7783371951621347,-0.6278464865133363,0.6278464865133363,0.7783371951621347,532.5053638049959,373.73227551546756)" fill="#ff5c58"></use><use xlink:href="#bbburst-shape-3" width="16.97081036857691" opacity="0.6318834873038803" transform="matrix(0.7570119692515173,0.6534010088834726,-0.6534010088834726,0.7570119692515173,692.567327988808,426.5421784122659)" fill="#ffbd9b"></use><use xlink:href="#bbburst-shape-10" width="4.988720373454339" opacity="0.9569183116299667" transform="matrix(0.7286238444671139,0.6849140772928842,-0.6849140772928842,0.7286238444671139,1033.5005398251265,487.80545103901557)" fill="none" stroke="#2c2891"></use><use xlink:href="#bbburst-shape-13" width="0.11311028070371557" opacity="0.7424558729476992" transform="matrix(0.9961187738717434,0.08801924982783278,-0.08801924982783278,0.9961187738717434,835.022661473352,144.0034176287092)" fill="none" stroke="#ffbd9b"></use><use xlink:href="#bbburst-shape-6" width="25.918563125584754" opacity="0.6965616609633278" transform="matrix(0.9999587957508713,-0.00907781914709216,0.00907781914709216,0.9999587957508713,598.5064012280847,159.54047230519643)" fill="#ffa6d5"></use><use xlink:href="#bbburst-shape-3" width="6.117379827830146" opacity="0.961648174689724" transform="matrix(0.783066023958122,0.6219385838830213,-0.6219385838830213,0.783066023958122,1021.1350017477804,455.96970623046315)" fill="#00a19d"></use><use xlink:href="#bbburst-shape-14" width="4.427950742175587" opacity="0.98997715552532" transform="matrix(0.9353745603641385,0.3536586374225783,-0.3536586374225783,0.9353745603641385,933.7607615445411,416.78036788772533)" fill="none" stroke="#00a19d"></use><use xlink:href="#bbburst-shape-10" width="59.350876731088114" opacity="0.28766354234940616" transform="matrix(0.993024218358582,0.11791056675856984,-0.11791056675856984,0.993024218358582,315.4480655761829,-105.85272957124806)" fill="none" stroke="#00a19d"></use><use xlink:href="#bbburst-shape-6" width="19.21097297026941" opacity="0.6002155061560359" transform="matrix(0.9945625687795366,0.1041407546671789,-0.1041407546671789,0.9945625687795366,796.7853544298439,2.9534340086441375)" fill="#00a19d"></use><use xlink:href="#bbburst-shape-14" width="5.636430692510643" opacity="0.9306969372736008" transform="matrix(0.9679736696435894,0.2510517374501186,-0.2510517374501186,0.9679736696435894,868.0263630646806,349.4770537528962)" fill="none" stroke="#00a19d"></use><use xlink:href="#bbburst-shape-8" width="38.14090731699068" opacity="0.5159046530045595" transform="matrix(0.9415552869929862,-0.3368584888874783,0.3368584888874783,0.9415552869929862,266.994546442059,130.27644064870736)" fill="none" stroke="#ffbd9b"></use><use xlink:href="#bbburst-shape-8" width="5.485340102084793" opacity="0.9744061110092987" transform="matrix(0.999686929278251,-0.025020859901715493,0.025020859901715493,0.999686929278251,768.9102963496287,382.3414539627091)" fill="none" stroke="#ffbd9b"></use><use xlink:href="#bbburst-shape-10" width="11.390052377516257" opacity="0.8153555888068574" transform="matrix(0.9406326214758448,-0.33942638585631507,0.33942638585631507,0.9406326214758448,481.2092071794941,375.3877125983653)" fill="none" stroke="#ffa6d5"></use><use xlink:href="#bbburst-shape-4" width="38.67629340439442" opacity="0.3675753449423368" transform="matrix(0.9935676092051084,-0.11324047835665922,0.11324047835665922,0.9935676092051084,173.92304336514098,113.93854736727218)" fill="#2c2891"></use><use xlink:href="#bbburst-shape-10" width="48.94441298246642" opacity="0.19748337736997357" transform="matrix(0.7266774524956088,-0.6869788061028463,0.6869788061028463,0.7266774524956088,44.41839799066162,-129.34192839190652)" fill="none" stroke="#00a19d"></use><use xlink:href="#bbburst-shape-2" width="13.887859968827659" opacity="0.7305701002859236" transform="matrix(0.946914728980194,0.3214848301870024,-0.3214848301870024,0.946914728980194,658.5274303086006,362.74061902222974)" fill="#00a19d"></use><use xlink:href="#bbburst-shape-4" width="13.051154994746739" opacity="0.8610430784874945" transform="matrix(0.9654803445238147,-0.2604759189218382,0.2604759189218382,0.9654803445238147,563.9242599308064,356.04927550865176)" fill="#2c2891"></use><use xlink:href="#bbburst-shape-13" width="29.189858769826138" opacity="0.43991315225102" transform="matrix(0.9075633120652881,-0.4199152707309947,0.4199152707309947,0.9075633120652881,68.29781042446999,339.8668271481845)" fill="none" stroke="#ff5c58"></use><use xlink:href="#bbburst-shape-6" width="23.580065047315745" opacity="0.22459648993371784" transform="matrix(0.9985681444815708,0.053494493423461735,-0.053494493423461735,0.9985681444815708,43.447830606881126,280.67898396573815)" fill="#2c2891"></use><use xlink:href="#bbburst-shape-10" width="31.349545161161895" opacity="0.5553526067658953" transform="matrix(0.9477920594119208,0.31888902790110235,-0.31888902790110235,0.9477920594119208,704.57213716192,22.954108360104044)" fill="none" stroke="#ffbd9b"></use><use xlink:href="#bbburst-shape-11" width="6.003564703646784" opacity="0.9512785990201281" transform="matrix(0.9487628404112132,0.3159890388207267,-0.3159890388207267,0.9487628404112132,875.3475047615453,412.5328428560559)" fill="none" stroke="#ffa6d5"></use><use xlink:href="#bbburst-shape-5" width="5.553222828174893" opacity="0.9484324242547914" transform="matrix(0.888019010994081,-0.45980673778566383,0.45980673778566383,0.888019010994081,587.9343357991418,401.3489495486928)" fill="#2c2891"></use><use xlink:href="#bbburst-shape-3" width="16.423499202097222" opacity="0.7013841368348852" transform="matrix(0.8664469143270548,0.4992692105999782,-0.4992692105999782,0.8664469143270548,922.9070374654016,158.90597752324499)" fill="#2c2891"></use><use xlink:href="#bbburst-shape-8" width="6.776654436295176" opacity="0.9162095937470303" transform="matrix(0.9785065475426018,0.2062157521050659,-0.2062157521050659,0.9785065475426018,869.8625688145927,324.6268773485744)" fill="none" stroke="#00a19d"></use><use xlink:href="#bbburst-shape-2" width="13.042147087049141" opacity="0.7823104371345019" transform="matrix(0.9660407378453538,0.25838980789343147,-0.25838980789343147,0.9660407378453538,687.4254991314217,353.21627868200915)" fill="#2c2891"></use><use xlink:href="#bbburst-shape-8" width="18.709135725701795" opacity="0.5924718749388558" transform="matrix(0.9996717273524577,-0.025621036906288537,0.025621036906288537,0.9996717273524577,373.9263083571422,371.075512027226)" fill="none" stroke="#ffbd9b"></use><use xlink:href="#bbburst-shape-10" width="31.35964048265047" opacity="0.39827802763850584" transform="matrix(0.9456656914507456,0.3251405849982177,-0.3251405849982177,0.9456656914507456,535.7098726900817,-50.30663026509683)" fill="none" stroke="#00a19d"></use><use xlink:href="#bbburst-shape-7" width="10.833157915079157" opacity="0.8477021326746627" transform="matrix(0.8420337276470821,0.5394248803167682,-0.5394248803167682,0.8420337276470821,970.923340782114,313.35917435009736)" fill="#00a19d"></use><use xlink:href="#bbburst-shape-2" width="16.23065159352911" opacity="0.7436419500191502" transform="matrix(0.8838242826920333,0.4678190219774232,-0.4678190219774232,0.8838242826920333,945.3804221280544,188.66464555622957)" fill="#2c2891"></use><use xlink:href="#bbburst-shape-13" width="9.075717639290279" opacity="0.8933689168097012" transform="matrix(0.9991858261407127,-0.040344576333150195,0.040344576333150195,0.9991858261407127,681.6926612882538,357.64235395470416)" fill="none" stroke="#ffa6d5"></use><use xlink:href="#bbburst-shape-14" width="7.740050593183481" opacity="0.8365228428250853" transform="matrix(0.732471478554342,0.6807977181985968,-0.6807977181985968,0.732471478554342,1058.0039265441367,341.31031941422754)" fill="none" stroke="#2c2891"></use><use xlink:href="#bbburst-shape-6" width="13.026326938266411" opacity="0.6749890143080487" transform="matrix(0.998761514247253,-0.04975377029466409,0.04975377029466409,0.998761514247253,732.3362428100016,78.43784478043597)" fill="#00a19d"></use><use xlink:href="#bbburst-shape-1" width="15.78761608984105" opacity="0.7373691502562038" transform="matrix(0.9963719127317963,0.0851058841630934,-0.0851058841630934,0.9963719127317963,739.9084626999805,152.74129603128767)" fill="#ffbd9b"></use><use xlink:href="#bbburst-shape-3" width="46.892607240174385" opacity="0.06868986037359015" transform="matrix(0.955746212750938,0.29419241460690104,-0.29419241460690104,0.955746212750938,334.16778525253676,-332.6846541718301)" fill="#2c2891"></use><use xlink:href="#bbburst-shape-11" width="13.382465587547937" opacity="0.7473193598021826" transform="matrix(0.9620785577984273,0.27277252175484634,-0.27277252175484634,0.9620785577984273,650.5270803990757,397.4621060150149)" fill="none" stroke="#00a19d"></use><use xlink:href="#bbburst-shape-10" width="30.279728995444422" opacity="0.48414079397510335" transform="matrix(0.9954596936789502,-0.09518402313734554,0.09518402313734554,0.9954596936789502,633.0755290348915,-99.89774059136607)" fill="none" stroke="#ffa6d5"></use><use xlink:href="#bbburst-shape-14" width="33.93812109126679" opacity="0.33875781308192265" transform="matrix(0.9782309321969842,-0.20751926005318005,0.20751926005318005,0.9782309321969842,40.13228293332048,376.4282138156675)" fill="none" stroke="#ffa6d5"></use><use xlink:href="#bbburst-shape-14" width="28.158629399694625" opacity="0.5556355692785249" transform="matrix(0.9265105270787676,-0.37626884432839275,0.37626884432839275,0.9265105270787676,220.5667763396674,278.23336064579826)" fill="none" stroke="#ffa6d5"></use><use xlink:href="#bbburst-shape-6" width="11.094103041667234" opacity="0.845517193512096" transform="matrix(0.9561733883020525,-0.29280104423135606,0.29280104423135606,0.9561733883020525,529.0057284299305,376.82403838310125)" fill="#ffa6d5"></use><use xlink:href="#bbburst-shape-2" width="15.995603993068574" opacity="0.8278979849954914" transform="matrix(0.9999423434402707,0.010738239854825594,-0.010738239854825594,0.9999423434402707,643.1419259558936,321.4445494761846)" fill="#00a19d"></use><use xlink:href="#bbburst-shape-1" width="33.86907538972688" opacity="0.41174948434171244" transform="matrix(0.999073405032494,-0.04303871927437277,0.04303871927437277,0.999073405032494,178.90867513097623,362.1819557232214)" fill="#2c2891"></use><use xlink:href="#bbburst-shape-5" width="22.075141241658" opacity="0.6120144662231246" transform="matrix(0.7628523904816936,-0.6465726798561517,0.6465726798561517,0.7628523904816936,186.87435656660392,326.59951069972607)" fill="#00a19d"></use><use xlink:href="#bbburst-shape-12" width="19.385226984721662" opacity="0.7079724104651753" transform="matrix(0.812772138932334,-0.5825817111576356,0.5825817111576356,0.812772138932334,310.1387422893823,327.8205727400259)" fill="none" stroke="#ffa6d5"></use><use xlink:href="#bbburst-shape-8" width="14.492783669126698" opacity="0.6736800902845831" transform="matrix(0.9672215014568848,-0.25393417871466095,0.25393417871466095,0.9672215014568848,365.94038252008875,391.5131054873809)" fill="none" stroke="#ffa6d5"></use><use xlink:href="#bbburst-shape-13" width="7.590612947171614" opacity="0.9149686649176318" transform="matrix(0.856703362475237,-0.5158094112398712,0.5158094112398712,0.856703362475237,505.78901214716007,451.08400057291624)" fill="none" stroke="#ff5c58"></use><use xlink:href="#bbburst-shape-6" width="29.30082220578534" opacity="0.41073306100065776" transform="matrix(0.999747211048083,-0.02248363853071648,0.02248363853071648,0.999747211048083,591.3460725691441,-159.03803282037586)" fill="#2c2891"></use><use xlink:href="#bbburst-shape-11" width="59.019884642454336" opacity="0.13561358703378512" transform="matrix(0.9510802297242482,-0.30894400241414505,0.30894400241414505,0.9510802297242482,-101.21659486580361,-2.9177548562386164)" fill="none" stroke="#2c2891"></use><use xlink:href="#bbburst-shape-8" width="43.383735053286706" opacity="0.4786830508490719" transform="matrix(0.7778071622908506,0.6285029978361714,-0.6285029978361714,0.7778071622908506,750.0968395429941,38.357443765210064)" fill="none" stroke="#ffa6d5"></use><use xlink:href="#bbburst-shape-11" width="35.26672385101621" opacity="0.2619228810393117" transform="matrix(0.8772628834266041,-0.48001024297616873,0.48001024297616873,0.8772628834266041,-124.96341402342149,283.15290360647305)" fill="none" stroke="#00a19d"></use><use xlink:href="#bbburst-shape-10" width="28.2971433614402" opacity="0.6145389245624922" transform="matrix(0.9942356275014976,0.107217148846177,-0.107217148846177,0.9942356275014976,677.2287547119008,46.387349573492145)" fill="none" stroke="#ffa6d5"></use><use xlink:href="#bbburst-shape-12" width="41.04317645334869" opacity="0.4395762708109715" transform="matrix(0.9313632300903276,-0.3640913808863257,0.3640913808863257,0.9313632300903276,226.9119406932921,50.9866236590604)" fill="none" stroke="#2c2891"></use><use xlink:href="#bbburst-shape-3" width="14.686108791497569" opacity="0.7621039755958476" transform="matrix(0.9992113217836884,0.03970811528257365,-0.03970811528257365,0.9992113217836884,690.9277487138829,193.20377428178847)" fill="#ffbd9b"></use><use xlink:href="#bbburst-shape-2" width="14.444257782087625" opacity="0.755009923190584" transform="matrix(0.992472393510408,-0.12246855971930862,0.12246855971930862,0.992472393510408,532.7742254656196,279.5284078302792)" fill="#2c2891"></use><use xlink:href="#bbburst-shape-14" width="36.114985545250306" opacity="0.3778298057923962" transform="matrix(0.8098946577736335,0.586575351774799,-0.586575351774799,0.8098946577736335,420.1471420143,300.26221690850934)" fill="none" stroke="#00a19d"></use><use xlink:href="#bbburst-shape-13" width="10.378875701630669" opacity="0.9053161315031757" transform="matrix(0.985744514402546,0.16824907823013158,-0.16824907823013158,0.985744514402546,786.5366477792036,347.88621699952677)" fill="none" stroke="#00a19d"></use><use xlink:href="#bbburst-shape-8" width="28.812135427348807" opacity="0.42817257015712273" transform="matrix(0.8943556695502038,-0.44735660981302894,0.44735660981302894,0.8943556695502038,72.45809215728289,248.71260641443638)" fill="none" stroke="#2c2891"></use><use xlink:href="#bbburst-shape-12" width="54.05711488037185" opacity="0.059325716139616236" transform="matrix(0.9794742174433634,-0.20156948519979642,0.20156948519979642,0.9794742174433634,-43.538824275021504,-171.72152863903446)" fill="none" stroke="#00a19d"></use><use xlink:href="#bbburst-shape-9" width="32.44158028792911" opacity="0.39103429585608396" transform="matrix(0.7692636697472397,0.6389314567361744,-0.6389314567361744,0.7692636697472397,933.8601483881644,-117.30071996053996)" fill="none" stroke="#ff5c58"></use><use xlink:href="#bbburst-shape-7" width="21.483017667664356" opacity="0.6688590503911276" transform="matrix(0.7149723683291926,-0.6991527104472566,0.6991527104472566,0.7149723683291926,213.31496526483346,379.85392251300226)" fill="#00a19d"></use><use xlink:href="#bbburst-shape-8" width="31.61363288601595" opacity="0.4887806892684843" transform="matrix(0.8866615262213299,-0.46241900687456816,0.46241900687456816,0.8866615262213299,136.0989277075008,240.050629372164)" fill="none" stroke="#2c2891"></use><use xlink:href="#bbburst-shape-12" width="44.27589630821149" opacity="0.3873458532264542" transform="matrix(0.9709443989598012,-0.2393051903502938,0.2393051903502938,0.9709443989598012,397.20574485891484,-125.19261379337826)" fill="none" stroke="#00a19d"></use><use xlink:href="#bbburst-shape-11" width="38.573546804490576" opacity="0.4535284157827616" transform="matrix(0.9912163504107114,0.1322503182547012,-0.1322503182547012,0.9912163504107114,370.7495705371676,110.34844551247818)" fill="none" stroke="#2c2891"></use><use xlink:href="#bbburst-shape-14" width="27.838697610355172" opacity="0.33951758383481834" transform="matrix(0.9067988959848737,0.4215634735607606,-0.4215634735607606,0.9067988959848737,304.4444853905656,323.14730569723224)" fill="none" stroke="#ffa6d5"></use><use xlink:href="#bbburst-shape-13" width="21.09099575363053" opacity="0.7478809828710467" transform="matrix(0.8122780495884875,0.5832704091214662,-0.5832704091214662,0.8122780495884875,864.4592816605482,274.3271174070165)" fill="none" stroke="#00a19d"></use><use xlink:href="#bbburst-shape-11" width="55.354729728045086" opacity="-0.024382103991880566" transform="matrix(0.9665112314482918,0.25662431584771284,-0.25662431584771284,0.9665112314482918,155.9915999636607,-322.9760938195793)" fill="none" stroke="#2c2891"></use><use xlink:href="#bbburst-shape-2" width="7.831089156065764" opacity="0.9019008399548231" transform="matrix(0.8081981765605347,-0.5889106107077939,0.5889106107077939,0.8081981765605347,465.79946773091586,456.48769705646873)" fill="#00a19d"></use><use xlink:href="#bbburst-shape-8" width="11.71000542514938" opacity="0.7106991017116474" transform="matrix(0.9754004116178002,-0.2204405521128677,0.2204405521128677,0.9754004116178002,689.0721874442978,122.33192244082915)" fill="none" stroke="#ffa6d5"></use><use xlink:href="#bbburst-shape-12" width="23.25959961351225" opacity="0.4779701085863646" transform="matrix(0.9453321009287383,-0.3261092132302577,0.3261092132302577,0.9453321009287383,137.31737028290453,396.7531877386648)" fill="none" stroke="#00a19d"></use><use xlink:href="#bbburst-shape-3" width="17.217491598520663" opacity="0.7464718679659963" transform="matrix(0.9950129844028414,0.09974548044774252,-0.09974548044774252,0.9950129844028414,637.508220633515,237.62404865443432)" fill="#ff5c58"></use><use xlink:href="#bbburst-shape-14" width="5.294812299664251" opacity="0.9679400986591561" transform="matrix(0.9958707546862989,-0.0907823769271406,0.0907823769271406,0.9958707546862989,729.7982692714138,394.7514368892572)" fill="none" stroke="#00a19d"></use></svg>