<svg xmlns="http://www.w3.org/2000/svg" viewBox="0 0 800 800" opacity="1" xmlns:v="https://vecta.io/nano"><style><![CDATA[.B{fill:none}.C{stroke:#2c2891}.D{fill:#2c2891}.E{fill:#00a19d}.F{stroke:#00a19d}.G{fill:#ffa6d5}.H{stroke:#ffa6d5}.I{fill:#ffbd9b}.J{fill:#ff5c58}.K{stroke:#ff5c58}.L{stroke:#ffbd9b}.M{opacity:.749}.N{stroke-width:22}.O{opacity:.628}.P{opacity:.862}.Q{stroke-linecap:round}]]></style><defs><symbol id="A" viewBox="0 0 194 167"><path d="m97 0 96.129 166.5H.871L97 0Z"/></symbol><symbol id="B" viewBox="0 0 126 115"><path d="m63 0 62.77 43.877-23.976 70.996H24.206L.23 43.877 63 0Z"/></symbol><symbol id="C" viewBox="0 0 131 127"><path d="m66 0 66 63.5L66 127 0 63.5 66 0Z"/></symbol><symbol id="D" viewBox="0 0 149 143"><path d="M71.647 2.781c.898-2.764 4.808-2.764 5.706 0l15.445 47.534a3 3 0 0 0 2.853 2.073h49.98c2.906 0 4.115 3.719 1.764 5.427L106.96 87.193a2.999 2.999 0 0 0-1.09 3.354l15.445 47.534c.898 2.764-2.266 5.062-4.617 3.354l-40.435-29.378a3 3 0 0 0-3.526 0l-40.435 29.378c-2.351 1.708-5.515-.59-4.617-3.354L43.13 90.547a3 3 0 0 0-1.09-3.354L1.605 57.815c-2.35-1.708-1.142-5.427 1.764-5.427h49.98a3 3 0 0 0 2.853-2.073L71.647 2.781Z"/></symbol><symbol id="E" viewBox="0 0 145 145"><circle cx="72.5" cy="72.5" r="72.5"/></symbol><symbol id="F" viewBox="0 0 133 116"><path d="M59.749 10.251c-13.668-13.668-35.829-13.668-49.497 0s-13.668 35.829 0 49.497l49.497-49.497zM66.5 66.5L41.751 91.249 66.5 115.997l24.749-24.748L66.5 66.5zm56.249-6.751c13.668-13.668 13.668-35.829 0-49.497s-35.829-13.668-49.498 0l49.498 49.497zm-112.498 0l31.5 31.5 49.497-49.497-31.5-31.5-49.497 49.497zm80.997 31.5l31.5-31.5-49.498-49.497-31.5 31.5 49.497 49.497z"/></symbol><symbol id="G" viewBox="0 0 139 124"><path fill-rule="evenodd" d="M70.164 15.092C54.609.765 37.829-2.108 24.403 2.826 10.38 7.979.763 21.459 1 37.061c.107 7.027 2.861 13.732 7.004 20.2s9.849 12.971 16.246 19.642c3.821 3.984 7.887 8.031 12.077 12.201h0c10.034 9.986 20.775 20.677 30.55 32.896a4 4 0 0 0 5.622.624c.671-.536 1.123-1.244 1.344-2.011 9.577-11.748 20.033-22.073 29.816-31.735l12.078-12.106c6.396-6.618 12.106-13.075 16.247-19.491s6.905-13.081 7.012-20.069c.237-15.512-9.399-28.89-23.411-33.999-13.32-4.857-29.954-2.086-45.421 11.88zm-3.735 7.492C52.128 8.449 37.683 6.469 27.163 10.335 16.286 14.332 8.815 24.782 9 36.939c.076 4.984 2.038 10.223 5.742 16.007s8.975 11.842 15.283 18.419c3.58 3.733 7.498 7.633 11.6 11.716 9.048 9.006 18.991 18.905 28.179 29.867 9.3-11.068 19.404-21.047 28.584-30.114l.001-.001 11.598-11.622c6.307-6.525 11.573-12.53 15.278-18.27s5.658-10.924 5.734-15.853c.184-12.028-7.267-22.391-18.153-26.361-10.71-3.905-25.472-1.8-40.002 12.867a4 4 0 0 1-5.657.026c-.315-.312-.567-.663-.756-1.037z"/></symbol><symbol id="H" viewBox="0 0 87 168"><path d="M12 12l31.255 18.075c16.41 9.49 20.014 31.633 7.46 45.837L36.33 92.188c-12.568 14.221-8.939 36.392 7.507 45.864L75 156" stroke-width="14" stroke-linejoin="round" class="Q"/></symbol><symbol id="I" viewBox="0 0 182 172"><path d="M13.581 69.845L91 13.597l77.419 56.248-29.571 91.012H43.152L13.581 69.845z" class="N"/></symbol><symbol id="J" viewBox="0 0 145 145"><circle cx="72.5" cy="72.5" r="61.5" class="B N"/></symbol><symbol id="K" viewBox="0 0 194 167"><path d="M10.398 161 97 11l86.603 150H10.397Z" stroke-width="11"/></symbol><symbol id="L" viewBox="0 0 170 151"><path d="M69.373 54.212L85 10.003l15.627 44.209a10 10 0 0 0 9.428 6.667h49.312l-39.149 26.145a10 10 0 0 0-3.875 11.649l15.179 42.94-40.968-27.36a10 10 0 0 0-11.107 0l-40.968 27.36 15.179-42.94a10 10 0 0 0-3.875-11.649L10.633 60.88h49.311a10 10 0 0 0 9.428-6.667z" stroke-width="12"/></symbol><symbol id="M" viewBox="0 0 159 159"><path d="M11 11h137v137H11z" class="N"/></symbol><symbol id="N" viewBox="0 0 185 109"><path d="M168 16.5C168 58.198 134.197 92 92.5 92S17 58.198 17 16.5" stroke-width="33" class="Q"/></symbol></defs><use href="#H" width="15.583" opacity=".671" transform="matrix(.806642 -.59104 .59104 .806642 66.635006 -35.206898)" class="B K"/><use href="#G" width="26.355" opacity=".243" transform="matrix(.795918 .605404 -.605404 .795918 320.47074 212.525908)" class="E"/><g class="B C"><use href="#M" width="20.945" opacity=".502" transform="matrix(.836762 .547567 -.547567 .836762 425.074761 186.035871)"/><use href="#H" width="23.152" opacity=".095" transform="matrix(.948913 -.315536 .315536 .948913 435.365613 392.794083)"/></g><use href="#F" width="13.014" opacity=".679" transform="matrix(.879516 -.475869 .475869 .879516 256.765997 185.621901)" class="G"/><use href="#C" width="24.482" opacity=".472" transform="matrix(.982534 -.186083 .186083 .982534 82.049914 63.239538)" class="I"/><g class="B"><g class="C"><use href="#K" width="7.173" opacity=".887" transform="matrix(.836231 -.548377 .548377 .836231 152.396385 111.41373)"/><use href="#L" width="22.193" opacity=".429" transform="matrix(.86039 .509636 -.509636 .86039 567.212384 305.772938)"/></g><g class="F"><use href="#H" width="4.602" opacity=".924" transform="matrix(.996229 .086768 -.086768 .996229 437.237796 -32.359996)"/><use href="#M" width="6.254" opacity=".901" transform="matrix(.716228 .697866 -.697866 .716228 650.763975 75.166658)"/></g></g><use href="#F" width="4.71" opacity=".949" transform="matrix(.98186 .189609 -.189609 .98186 464.694 28.069583)" class="I"/><use href="#N" width="7.532" opacity=".799" transform="matrix(.818237 .574882 -.574882 .818237 643.136422 159.646718)" class="B K"/><use href="#A" width="23.34" opacity=".52" transform="matrix(.964301 .26481 -.26481 .964301 416.697154 -190.232029)" class="D"/><g class="B"><use href="#J" width="15.171" opacity=".718" transform="matrix(.945946 -.324323 .324323 .945946 387.521393 -.943332)" class="C"/><use href="#J" width="6.942" opacity=".889" transform="matrix(.757286 -.653084 .653084 .757286 96.141266 69.127061)" class="H"/><use href="#J" width="4.576" opacity=".965" transform="matrix(.721034 -.6929 .6929 .721034 134.161407 104.515473)" class="C"/></g><use href="#E" width="19.96" opacity=".533" transform="matrix(.787554 -.616246 .616246 .787554 1.343503 244.179832)" class="E"/><g class="B"><use href="#I" width="4.817" opacity=".933" transform="matrix(.833956 -.55183 .55183 .833956 158.727912 43.718794)" class="L"/><use href="#H" width="25.999" opacity=".46" transform="matrix(.970855 .239667 -.239667 .970855 265.637366 -99.186468)" class="F"/><use href="#J" width="4.534" opacity=".923" transform="matrix(.914251 .405148 -.405148 .914251 578.534955 3.898665)" class="C"/><use href="#L" width="30.935" opacity=".304" transform="matrix(.97566 .219289 -.219289 .97566 411.628495 313.676926)" class="K"/></g><use href="#F" width="16.611" opacity=".459" transform="matrix(.745559 -.66644 .66644 .745559 370.242215 94.240517)" class="G"/><g class="B"><use href="#M" width="23.686" opacity=".274" transform="matrix(.776553 -.630052 .630052 .776553 26.127643 -209.700238)" class="L"/><use href="#K" width="22.052" opacity=".551" transform="matrix(.75486 .655886 -.655886 .75486 777.629355 -69.648292)" class="C"/><use href="#H" width="22.132" opacity=".567" transform="matrix(.939838 -.34162 .34162 .939838 447.238259 40.870684)" class="H"/><use href="#L" width="23.886" opacity=".503" transform="matrix(.851445 .524445 -.524445 .851445 702.814985 251.648699)" class="F"/></g><use href="#B" width="9.252" opacity=".764" transform="matrix(.800834 .598886 -.598886 .800834 543.734642 129.376909)" class="G"/><g class="B"><use href="#H" width="13.859" transform="matrix(.992895 .118994 -.118994 .992895 552.246975 126.596734)" class="C O"/><use href="#H" width="8.522" opacity=".846" transform="matrix(.801583 -.597883 .597883 .801583 114.317608 136.318463)" class="F"/></g><use href="#G" width="7.538" transform="matrix(.908732 .417381 -.417381 .908732 615.810652 1.257605)" class="E P"/><use href="#B" width="30.261" opacity="-.111" transform="matrix(.964724 -.263265 .263265 .964724 638.325871 366.598593)" class="G"/><use href="#N" width="22.092" opacity=".521" transform="matrix(.75286 .65818 -.65818 .75286 556.806528 283.679258)" class="B C"/><use href="#C" width="37.422" opacity="-.102" transform="matrix(.926228 -.376964 .376964 .926228 -117.869998 388.53679)" class="E"/><g class="G"><use href="#A" width="4.601" opacity=".965" transform="matrix(.994465 -.105065 .105065 .994465 347.11796 -10.853117)"/><use href="#B" width="21.897" opacity=".326" transform="matrix(.790197 .612853 -.612853 .790197 491.248257 343.436276)"/></g><use href="#H" width="14.52" opacity=".741" transform="matrix(.954048 .299655 -.299655 .954048 434.673803 102.383278)" class="B K"/><g class="D"><use href="#F" width="15.242" opacity=".598" transform="matrix(.746531 .665351 -.665351 .746531 715.529162 268.610607)"/><use href="#G" width="10.26" opacity=".795" transform="matrix(.788629 -.614869 .614869 .788629 98.925142 164.605562)"/></g><g class="B F"><use href="#K" width="33.558" opacity=".195" transform="matrix(.759541 .650459 -.650459 .759541 290.491443 23.645034)"/><use href="#L" width="9.071" opacity=".791" transform="matrix(.879748 .47544 -.47544 .879748 678.345115 28.224963)"/></g><use href="#D" width="4.798" opacity=".947" transform="matrix(.770335 -.637639 .637639 .770335 124.339913 108.470198)" class="E"/><use href="#B" width="32.682" opacity=".346" transform="matrix(.858834 .512254 -.512254 .858834 356.241107 -129.241435)" class="I"/><use href="#M" width="34.376" opacity=".081" transform="matrix(.999503 -.031536 .031536 .999503 674.60824 280.678848)" class="B C"/><use href="#F" width="24.503" opacity=".362" transform="matrix(.888708 .458474 -.458474 .888708 823.259134 178.553866)" class="D"/><use href="#D" width="9.031" opacity=".82" transform="matrix(.984258 -.176737 .176737 .984258 376.519185 69.70747)" class="G"/><g class="B"><use href="#K" width="4.523" opacity=".943" transform="matrix(.990476 -.137684 .137684 .990476 337.286563 -20.980324)" class="H"/><use href="#L" width="10.482" opacity=".68" transform="matrix(.956791 -.290777 .290777 .956791 330.564981 -115.582968)" class="F"/><use href="#N" width="16.468" opacity=".473" transform="matrix(.842061 -.539382 .539382 .842061 194.191466 304.228955)" class="L"/><g class="C"><use href="#J" width="26.245" opacity=".437" transform="matrix(.979692 -.200509 .200509 .979692 53.953714 -4.685497)"/><use href="#K" width="35.837" opacity=".231" transform="matrix(.908541 -.417795 .417795 .908541 440.182615 307.673074)"/></g></g><use href="#E" width="6.966" opacity=".875" transform="matrix(.973649 -.228054 .228054 .973649 253.896893 33.500264)" class="J"/><use href="#M" width="5.44" opacity=".944" transform="matrix(.7455 -.666506 .666506 .7455 134.914679 128.672871)" class="B H"/><use href="#D" width="24.691" opacity=".407" transform="matrix(.999874 .015895 -.015895 .999874 624.671678 -134.000011)" class="E"/><use href="#G" width="38.529" opacity=".254" transform="matrix(.938772 .344538 -.344538 .938772 323.358319 -254.53535)" class="D"/><use href="#D" width="33.412" opacity=".016" transform="matrix(.724003 .689796 -.689796 .724003 925.950906 455.611577)" class="I"/><use href="#D" width="8.349" opacity=".801" transform="matrix(.985113 -.171911 .171911 .985113 260.554748 66.312318)" class="G"/><use href="#N" width="6.583" opacity=".857" transform="matrix(.899745 .436417 -.436417 .899745 507.48111 31.463038)" class="B L"/><g class="D"><use href="#C" width="15.466" opacity=".688" transform="matrix(.981548 -.191214 .191214 .981548 191.175169 -55.896176)"/><use href="#B" width="25.766" opacity=".17" transform="matrix(.957686 -.287817 .287817 .957686 644.387058 -13.52144)"/><use href="#C" width="29.419" opacity=".111" transform="matrix(.866952 .498392 -.498392 .866952 955.050847 -109.932899)"/></g><use href="#J" width="15.628" opacity=".608" transform="matrix(.999417 -.034154 .034154 .999417 206.621957 40.462526)" class="B C"/><use href="#B" width="24.433" opacity=".434" transform="matrix(.996657 .081696 -.081696 .996657 271.196067 206.537581)" class="D"/><use href="#J" width="29.696" opacity=".173" transform="matrix(.960527 .278186 -.278186 .960527 285.09653 317.767663)" class="B F"/><use href="#D" width="26.455" opacity=".223" transform="matrix(.998255 -.059045 .059045 .998255 535.393843 305.726248)" class="E"/><use href="#E" width="8.993" opacity=".802" transform="matrix(.931469 .36382 -.36382 .931469 578.932411 106.528697)" class="G"/><use href="#E" width="21.628" opacity=".402" transform="matrix(.955381 .295377 -.295377 .955381 386.43607 -225.441858)" class="E"/><use href="#D" width="23.641" opacity=".313" transform="matrix(.757797 .65249 -.65249 .757797 737.813407 -207.876347)" class="J"/><use href="#J" width="14.466" transform="matrix(.743139 .669137 -.669137 .743139 587.094549 -51.829851)" class="B C O"/><use href="#E" width="10.943" opacity=".692" transform="matrix(.782019 -.623255 .623255 .782019 223.889321 205.739955)" class="J"/><use href="#I" width="13.057" opacity=".762" transform="matrix(.976183 .21695 -.21695 .976183 373.155691 9.303949)" class="B F"/><use href="#A" width="5.828" opacity=".943" transform="matrix(.967339 .253488 -.253488 .967339 473.581645 17.572971)" class="E"/><use href="#C" width="14.545" opacity=".621" transform="matrix(.907725 -.419566 .419566 .907725 393.139733 9.249248)" class="G"/><use href="#C" width="10.267" opacity=".722" transform="matrix(.970233 -.242173 .242173 .970233 317.659282 -110.46022)" class="D"/><g class="B"><use href="#K" width="5.847" opacity=".891" transform="matrix(.986024 .166603 -.166603 .986024 493.603423 -34.036499)" class="K"/><use href="#K" width="15.714" opacity=".488" transform="matrix(.992616 -.121301 .121301 .992616 406.288471 225.533127)" class="C"/></g><use href="#A" width="25.607" opacity=".04" transform="matrix(.792043 .610466 -.610466 .792043 1000.931399 303.563634)" class="I"/><g class="B"><use href="#J" width="24" opacity=".4" transform="matrix(.991065 .133378 -.133378 .991065 390.27786 -263.254488)" class="L"/><use href="#N" width="5.687" opacity=".922" transform="matrix(.731746 .681578 -.681578 .731746 635.518894 103.531008)" class="C"/><use href="#K" width="20.161" opacity=".512" transform="matrix(.990958 .134174 -.134174 .990958 658.064881 -45.201186)" class="H"/></g><use href="#C" width="12.796" opacity=".603" transform="matrix(.956521 -.291665 .291665 .956521 366.81203 173.759201)" class="D"/><g class="B"><use href="#K" width="7.427" opacity=".848" transform="matrix(.869169 -.494515 .494515 .869169 148.643762 7.58501)" class="K"/><use href="#K" width="7.046" opacity=".875" transform="matrix(.882396 -.470507 .470507 .882396 165.777419 85.191383)" class="L"/></g><use href="#E" width="23.388" opacity=".142" transform="matrix(.983003 -.183588 .183588 .983003 686.507031 114.723968)" class="E"/><use href="#A" width="10.699" opacity=".717" transform="matrix(.785948 -.618292 .618292 .785948 117.443527 -34.786644)" class="G"/><g class="B C"><use href="#H" width="6.164" opacity=".906" transform="matrix(.952506 .30452 -.30452 .952506 517.991296 60.335549)"/><use href="#L" width="8.247" opacity=".837" transform="matrix(.825926 .563779 -.563779 .825926 614.078222 140.361846)"/></g><use href="#G" width="12.691" opacity=".78" transform="matrix(.976998 -.213249 .213249 .976998 401.54919 44.2298)" class="D"/><g class="B K"><use href="#L" width="6.322" opacity=".893" transform="matrix(.900132 -.435618 .435618 .900132 234.119446 -5.456284)"/><use href="#L" width="6.827" opacity=".912" transform="matrix(.929205 .369565 -.369565 .929205 535.623019 -11.688432)"/></g><use href="#D" width="9.363" opacity=".783" transform="matrix(.979015 -.203789 .203789 .979015 218.876009 -13.332)" class="E"/><use href="#B" width="6.261" opacity=".864" transform="matrix(.998576 -.053355 .053355 .998576 416.975647 45.493813)" class="I"/><use href="#F" width="21.621" opacity=".372" transform="matrix(.796869 -.604152 .604152 .796869 262.242944 347.077955)" class="E"/><g class="B"><use href="#L" width="31.267" opacity=".304" transform="matrix(.992367 -.123318 .123318 .992367 563.441128 -209.69726)" class="L"/><use href="#M" width="8.53" opacity=".808" transform="matrix(.744263 -.667886 .667886 .744263 216.075994 110.691162)" class="C"/></g><use href="#A" width="30.137" opacity=".087" transform="matrix(.960759 -.277386 .277386 .960759 -17.96389 308.094868)" class="J"/><g class="B"><g class="K"><use href="#I" width="7.921" opacity=".895" transform="matrix(.993629 .112699 -.112699 .993629 488.210697 -3.987105)"/><use href="#J" width="17.702" opacity=".523" transform="matrix(.982164 .188028 -.188028 .982164 257.768018 -45.198758)"/></g><use href="#J" width="5.484" opacity=".955" transform="matrix(.997778 -.066629 .066629 .997778 377.165026 -17.910984)" class="F"/></g><use href="#B" width="23.782" opacity=".471" transform="matrix(.995827 .091257 -.091257 .995827 645.356171 90.202556)" class="D"/><use href="#M" width="12.084" opacity=".638" transform="matrix(.983438 -.181244 .181244 .983438 164.531457 -36.138122)" class="B K"/><use href="#D" width="29.198" opacity=".182" transform="matrix(.84273 -.538336 .538336 .84273 114.900085 -292.960329)" class="I"/><use href="#A" width="21.542" opacity=".542" transform="matrix(.927476 -.373882 .373882 .927476 34.732543 40.988418)" class="G"/><g class="B"><use href="#J" width="23.442" opacity=".417" transform="matrix(.873248 .487275 -.487275 .873248 496.687973 292.362888)" class="F"/><g class="C"><use href="#K" width="7.116" opacity=".912" transform="matrix(.98681 .161881 -.161881 .98681 425.090456 20.556787)"/><use href="#N" width="9.856" opacity=".725" transform="matrix(.71446 .699677 -.699677 .71446 556.741968 78.348924)"/></g></g><use href="#C" width="31.038" opacity=".16" transform="matrix(.887233 -.461321 .461321 .887233 -76.247763 -204.19036)" class="J"/><g class="B"><use href="#L" width="13.628" opacity=".688" transform="matrix(.775051 .631899 -.631899 .775051 574.194563 205.215274)" class="F"/><use href="#I" width="35.236" opacity=".027" transform="matrix(.804366 -.594134 .594134 .804366 -212.663435 -159.681246)" class="L"/></g><use href="#A" width="8.536" opacity=".81" transform="matrix(.994985 .10002 -.10002 .994985 483.71354 -69.200731)" class="D"/><use href="#C" width="27.612" opacity=".394" transform="matrix(.896242 .443565 -.443565 .896242 320.933439 156.682257)" class="J"/><g class="B"><use href="#I" width="29.173" opacity=".282" transform="matrix(.985154 -.171674 .171674 .985154 100.706292 248.08518)" class="H"/><use href="#H" width="12.857" opacity=".702" transform="matrix(.907775 .419456 -.419456 .907775 661.598459 124.254865)" class="F"/></g><use href="#E" width="14.826" opacity=".691" transform="matrix(.853711 .520746 -.520746 .853711 687.299536 -55.157915)" class="G"/><use href="#C" width="12.779" opacity=".652" transform="matrix(.966294 -.25744 .25744 .966294 182.801765 128.466565)" class="I"/><use href="#B" width="23.223" opacity=".181" transform="matrix(.908411 -.418078 .418078 .908411 261.390312 -324.878382)" class="J"/><use href="#N" width="32.764" opacity=".04" transform="matrix(.92152 -.388331 .388331 .92152 -134.230633 270.942895)" class="B C"/><use href="#F" width="5.76" opacity=".84" transform="matrix(.939241 -.343259 .343259 .939241 272.128599 96.291731)" class="E"/><g class="B"><use href="#M" width="8.714" opacity=".825" transform="matrix(.995395 -.095854 .095854 .995395 282.15575 -21.34451)" class="K"/><use href="#M" width="9.862" opacity=".786" transform="matrix(.784774 -.619782 .619782 .784774 75.632567 26.165847)" class="C"/><use href="#M" width="11.961" opacity=".746" transform="matrix(.820708 -.571347 .571347 .820708 216.847628 -27.506751)" class="K"/></g><use href="#C" width="28.644" opacity=".237" transform="matrix(.888233 -.459394 .459394 .888233 477.68667 257.734418)" class="G"/><g class="B H"><use href="#N" width="12.692" opacity=".643" transform="matrix(.980905 -.194489 .194489 .980905 437.36606 -96.464294)"/><use href="#L" width="26.549" opacity=".031" transform="matrix(.713821 .700328 -.700328 .713821 439.708327 475.1745)"/></g><use href="#G" width="9.238" opacity=".78" transform="matrix(.854575 .519328 -.519328 .854575 562.742748 -34.440194)" class="E"/><g class="B"><use href="#K" width="8.791" opacity=".794" transform="matrix(.834633 -.550806 .550806 .834633 170.866823 161.063422)" class="K"/><g class="C"><use href="#K" width="3.83" opacity=".984" transform="matrix(.902059 .431613 -.431613 .902059 577.555339 40.560506)"/><use href="#N" width="13.426" opacity=".729" transform="matrix(.879659 .475606 -.475606 .879659 689.698531 106.580403)"/><use href="#N" width="9.892" opacity=".831" transform="matrix(.998961 -.045584 .045584 .998961 449.245843 23.856243)"/></g></g><use href="#C" width="10.797" opacity=".723" transform="matrix(.96811 .250527 -.250527 .96811 594.730855 -62.978868)" class="D"/><use href="#H" width="33.178" opacity=".319" transform="matrix(.875634 .482975 -.482975 .875634 579.380488 -264.516357)" class="B H"/><use href="#F" width="10.25" opacity=".7" transform="matrix(.91003 .414543 -.414543 .91003 584.875946 166.936035)" class="E"/><use href="#G" width="6.43" opacity=".877" transform="matrix(.999605 .028117 -.028117 .999605 405.509459 -55.234457)" class="G"/><use href="#K" width="7.483" opacity=".846" transform="matrix(.766476 -.642273 .642273 .766476 150.977958 27.247367)" class="B H"/><use href="#G" width="11.794" transform="matrix(.800079 .599895 -.599895 .800079 640.798118 189.266466)" class="E M"/><use href="#B" width="19.471" opacity=".59" transform="matrix(.941685 .336497 -.336497 .941685 361.778738 -64.774949)" class="D"/><use href="#D" width="7.505" opacity=".869" transform="matrix(.915028 .40339 -.40339 .915028 609.931694 60.378866)" class="J"/><use href="#D" width="17.711" opacity=".607" transform="matrix(.890561 .454864 -.454864 .890561 716.784713 144.478955)" class="E"/><g class="B"><use href="#K" width="9.303" opacity=".715" transform="matrix(.822129 -.569302 .569302 .822129 111.623768 -41.338586)" class="H"/><use href="#K" width="28.822" opacity=".046" transform="matrix(.951729 -.30694 .30694 .951729 496.849245 -337.049511)" class="L"/></g><g class="D"><use href="#E" width="29.079" opacity=".022" transform="matrix(.75336 -.657608 .657608 .75336 484.833043 -146.632689)"/><use href="#D" width="35.882" opacity=".143" transform="matrix(.856569 .516032 -.516032 .856569 724.013827 -313.742782)"/></g><use href="#K" width="32.082" opacity=".193" transform="matrix(.99704 -.076888 .076888 .99704 682.063259 156.54114)" class="B H"/><use href="#A" width="8.999" opacity=".751" transform="matrix(.919669 .392694 -.392694 .919669 584.026536 138.010471)" class="D"/><use href="#E" width="27" opacity=".119" transform="matrix(.933473 -.358648 .358648 .933473 84.029831 -331.544591)" class="I"/><use href="#F" width="6.92" opacity=".899" transform="matrix(.997743 -.067142 .067142 .997743 409.249467 -21.271942)" class="G"/><use href="#K" width="8.335" opacity=".836" transform="matrix(.980236 .197833 -.197833 .980236 446.091746 74.697292)" class="B L"/><use href="#G" width="27.604" opacity=".418" transform="matrix(.95401 -.299776 .299776 .95401 96.507886 -176.607397)" class="D"/><use href="#G" width="8.387" transform="matrix(.996618 .082175 -.082175 .996618 393.825584 -50.395066)" class="J P"/><g class="G"><use href="#G" width="15.947" opacity=".572" transform="matrix(.899158 .437624 -.437624 .899158 588.905112 228.225661)"/><use href="#E" width="7.163" opacity=".803" transform="matrix(.785584 -.618755 .618755 .785584 153.805419 -.38977)"/><use href="#F" width="5.124" opacity=".888" transform="matrix(.742675 -.669652 .669652 .742675 152.05312 149.896512)"/></g><g class="B"><use href="#J" width="22.965" opacity=".195" transform="matrix(.778539 -.627596 .627596 .778539 -.900435 429.563297)" class="C"/><use href="#N" width="14.784" opacity=".601" transform="matrix(.831368 .555722 -.555722 .831368 515.961781 212.395508)" class="L"/></g><use href="#G" width="22.636" opacity=".231" transform="matrix(.935846 -.352409 .352409 .935846 582.444234 -60.651093)" class="E"/><use href="#E" width="12.718" opacity=".76" transform="matrix(.946784 -.32187 .32187 .946784 335.034919 -58.823823)" class="J"/><g class="G"><use href="#D" width="5.578" opacity=".963" transform="matrix(.998484 .055039 -.055039 .998484 429.16296 13.709916)"/><use href="#E" width="23.318" opacity=".549" transform="matrix(.994363 .106029 -.106029 .994363 311.443481 -163.070319)"/></g><g class="B"><use href="#K" width="13.77" opacity=".662" transform="matrix(.957661 .287897 -.287897 .957661 644.333841 83.063369)" class="C"/><use href="#N" width="17.646" opacity=".573" transform="matrix(.893116 .449827 -.449827 .893116 595.932047 -151.860469)" class="K"/></g><use href="#C" width="6.817" opacity=".936" transform="matrix(.838497 -.544906 .544906 .838497 199.878054 86.320341)" class="D"/><g class="B"><use href="#M" width="19.636" opacity=".377" transform="matrix(.996691 .08128 -.08128 .996691 468.738847 277.25939)" class="C"/><use href="#L" width="20.426" opacity=".265" transform="matrix(.758867 -.651246 .651246 .758867 227.192207 419.792057)" class="H"/></g><use href="#F" width="38.625" opacity=".037" transform="matrix(.827543 .561403 -.561403 .827543 355.967889 -293.729969)" class="J"/><use href="#C" width="9.129" transform="matrix(.932065 -.362292 .362292 .932065 229.083226 139.744316)" class="D M"/><g class="B"><use href="#M" width="16.654" opacity=".613" transform="matrix(.898275 -.439433 .439433 .898275 74.360033 144.448469)" class="H"/><use href="#L" width="5.151" opacity=".92" transform="matrix(.989257 -.146186 .146186 .989257 327.526443 38.564298)" class="F"/><use href="#M" width="14.468" opacity=".652" transform="matrix(.872084 .489355 -.489355 .872084 618.562039 -106.460945)" class="C"/></g><use href="#B" width="8.312" opacity=".873" transform="matrix(.957759 .28757 -.28757 .957759 497.25153 71.213839)" class="D"/><use href="#L" width="13.371" opacity=".75" transform="matrix(.990972 -.134068 .134068 .990972 269.777703 -83.79084)" class="B F"/><use href="#G" width="8.582" opacity=".778" transform="matrix(.843453 .537204 -.537204 .843453 691.192636 119.882958)" class="E"/><use href="#C" width="18.696" opacity=".513" transform="matrix(.988816 .14914 -.14914 .988816 280.296304 -135.439966)" class="D"/><g class="B"><use href="#I" width="10.576" opacity=".795" transform="matrix(.937113 .349025 -.349025 .937113 506.929789 111.132137)" class="C"/><use href="#J" width="9.568" opacity=".81" transform="matrix(.933559 -.358424 .358424 .933559 282.002179 -51.624478)" class="K"/><use href="#I" width="16.963" transform="matrix(.960813 .277198 -.277198 .960813 586.044155 -131.819551)" class="C O"/></g><use href="#A" width="8.784" opacity=".812" transform="matrix(.77668 .629895 -.629895 .77668 598.396708 18.159627)" class="I"/><use href="#M" width="10.16" opacity=".646" transform="matrix(.807483 -.589891 .589891 .807483 175.129032 238.785545)" class="B H"/><use href="#B" width="38.94" opacity=".25" transform="matrix(.988745 .149609 -.149609 .988745 618.255784 -285.445301)" class="D"/><g class="B C"><use href="#H" width="15.252" opacity=".535" transform="matrix(.888807 .458282 -.458282 .888807 522.203445 243.264983)"/><use href="#J" width="9.87" opacity=".701" transform="matrix(.785295 .619122 -.619122 .785295 509.476935 74.29718)"/></g><use href="#C" width="14.398" transform="matrix(.974646 -.223751 .223751 .974646 416.317727 18.439975)" class="G M"/><g class="B"><g class="H"><use href="#L" width="29.355" opacity=".18" transform="matrix(.95068 .310173 -.310173 .95068 142.117483 42.491056)"/><use href="#J" width="11.226" opacity=".765" transform="matrix(.90237 .430962 -.430962 .90237 473.752847 -12.321761)"/></g><use href="#L" width="18.994" opacity=".543" transform="matrix(.848492 -.529208 .529208 .848492 369.343666 -15.570092)" class="C"/></g><use href="#D" width="10.194" opacity=".772" transform="matrix(.969757 .244071 -.244071 .969757 515.730355 -88.941889)" class="D"/><g class="B"><use href="#M" width="14.247" opacity=".696" transform="matrix(.751682 .659526 -.659526 .751682 649.331006 231.080726)" class="F"/><use href="#L" width="22.944" opacity=".33" transform="matrix(.998655 -.051853 .051853 .998655 658.520044 81.747563)" class="C"/></g><use href="#E" width="9.277" opacity=".789" transform="matrix(.998217 .059696 -.059696 .998217 400.280482 -92.745785)" class="E"/><use href="#B" width="10.744" opacity=".814" transform="matrix(.767048 .64159 -.64159 .767048 568.664099 90.155681)" class="I"/><g class="B"><use href="#J" width="25.474" opacity=".435" transform="matrix(.998086 .061841 -.061841 .998086 508.937647 -234.97977)" class="C"/><use href="#K" width="25.311" opacity=".502" transform="matrix(.991432 -.130623 .130623 .991432 518.253448 133.853333)" class="H"/><use href="#I" width="6.257" opacity=".863" transform="matrix(.859746 -.510722 .510722 .859746 137.127333 31.690351)" class="C"/></g><use href="#E" width="24.539" opacity=".452" transform="matrix(.989145 .14694 -.14694 .989145 689.976492 42.66135)" class="I"/><use href="#B" width="6.75" opacity=".889" transform="matrix(.708734 -.705476 .705476 .708734 65.766569 123.242751)" class="G"/><use href="#H" width="13.955" opacity=".686" transform="matrix(.989524 -.144369 .144369 .989524 195.818942 27.128855)" class="B C"/><use href="#C" width="20.826" opacity=".552" transform="matrix(.83386 .551976 -.551976 .83386 427.210498 141.299354)" class="E"/><use href="#B" width="7.027" opacity=".894" transform="matrix(.849259 -.527977 .527977 .849259 139.650253 49.746338)" class="D"/><g class="B"><use href="#J" width="10.899" opacity=".798" transform="matrix(.709692 .704512 -.704512 .709692 749.401628 56.371671)" class="F"/><use href="#L" width="28.406" opacity=".39" transform="matrix(.889461 -.45701 .45701 .889461 -4.766905 228.044168)" class="H"/><use href="#N" width="24.996" opacity=".328" transform="matrix(.998713 -.050711 .050711 .998713 72.103058 67.287926)" class="C"/></g><use href="#C" width="25.685" opacity=".172" transform="matrix(.998697 -.051038 .051038 .998697 358.641976 373.61336)" class="D"/><use href="#D" width="4.362" opacity=".988" transform="matrix(.996196 .087144 -.087144 .996196 431.838268 -4.144843)" class="G"/><g class="B"><use href="#K" width="12.694" opacity=".64" transform="matrix(.999836 -.018113 .018113 .999836 544.487824 36.025971)" class="F"/><use href="#J" width="13.747" opacity=".627" transform="matrix(.885869 .463935 -.463935 .885869 537.935995 -120.339074)" class="L"/><use href="#N" width="19.987" opacity=".552" transform="matrix(.980455 .196742 -.196742 .980455 541.886473 -182.197499)" class="C"/></g><use href="#C" width="6.241" opacity=".849" transform="matrix(.8051 .593138 -.593138 .8051 567.893886 89.397312)" class="E"/><g class="B"><use href="#H" width="26.061" opacity=".388" transform="matrix(.979764 -.200154 .200154 .979764 509.772113 197.412118)" class="C"/><use href="#K" width="11.766" opacity=".716" transform="matrix(.999789 .020546 -.020546 .999789 303.688632 -81.204079)" class="L"/></g><use href="#A" width="10.364" opacity=".764" transform="matrix(.97476 .223253 -.223253 .97476 552.659848 90.251454)" class="D"/><use href="#K" width="6.88" opacity=".859" transform="matrix(.988521 .151084 -.151084 .988521 483.146715 -53.882386)" class="B K"/><use href="#D" width="8.363" opacity=".822" transform="matrix(.999846 .017532 -.017532 .999846 334.541222 -41.946063)" class="I"/><use href="#J" width="5.17" opacity=".928" transform="matrix(.945917 -.324407 .324407 .945917 299.385117 16.189348)" class="B C"/><use href="#B" width="12.542" opacity=".754" transform="matrix(.882198 -.470878 .470878 .882198 307.028855 4.932456)" class="G"/><use href="#J" width="7.987" opacity=".848" transform="matrix(.75122 .660052 -.660052 .75122 706.531675 46.082158)" class="B F"/><use href="#E" width="26.824" opacity=".228" transform="matrix(.736959 -.675937 .675937 .736959 -163.362337 315.566954)" class="E"/><use href="#K" width="8.42" opacity=".838" transform="matrix(.986439 -.164127 .164127 .986439 320.454845 -66.023722)" class="B F"/><use href="#C" width="48.941" opacity="-.099" transform="matrix(.959751 -.280852 .280852 .959751 -85.646169 -326.743431)" class="D"/><use href="#L" width="26.096" opacity=".227" transform="matrix(.965685 -.259716 .259716 .965685 -21.932459 -149.060889)" class="B F"/><use href="#A" width="16.27" opacity=".623" transform="matrix(.787062 .616874 -.616874 .787062 470.84024 71.16315)" class="D"/><g class="B"><use href="#J" width="13.493" opacity=".657" transform="matrix(.992585 -.121551 .121551 .992585 337.349968 -150.239295)" class="H"/><use href="#M" width="39.846" opacity=".127" transform="matrix(.973367 -.229253 .229253 .973367 563.537966 -265.572241)" class="C"/></g><use href="#D" width="8.234" opacity=".744" transform="matrix(.716773 -.697306 .697306 .716773 113.189396 1.222818)" class="G"/><g class="D"><use href="#B" width="27.485" opacity=".391" transform="matrix(.711907 .702273 -.702273 .711907 828.943582 329.872842)"/><use href="#A" width="25.961" opacity=".12" transform="matrix(.927234 -.374482 .374482 .927234 -130.573113 -110.382073)"/><use href="#F" width="27.608" opacity=".349" transform="matrix(.807742 -.589536 .589536 .807742 -126.753783 -1.967208)"/></g><use href="#A" width="16.075" opacity=".573" transform="matrix(.802345 .59686 -.59686 .802345 811.756872 143.179042)" class="J"/><use href="#E" width="29.458" opacity=".408" transform="matrix(.81063 -.585559 .585559 .81063 306.880945 -133.914914)" class="E"/><use href="#B" width="13.365" opacity=".623" transform="matrix(1 .000798 -.000798 1 331.477524 157.798656)" class="D"/><use href="#B" width="11.307" opacity=".747" transform="matrix(.969801 -.2439 .2439 .969801 187.12266 43.620956)" class="J"/><use href="#D" width="21.67" opacity=".155" transform="matrix(.957902 -.287096 .287096 .957902 355.922147 391.434611)" class="I"/><use href="#E" width="23.459" opacity=".136" transform="matrix(.920278 .391264 -.391264 .920278 176.075224 148.314022)" class="G"/><use href="#A" width="12.534" opacity=".629" transform="matrix(.999692 .024802 -.024802 .999692 379.720979 165.263071)" class="I"/><use href="#D" width="9.333" opacity=".822" transform="matrix(.89414 .447787 -.447787 .89414 647.910523 6.892665)" class="G"/><use href="#B" width="5.278" opacity=".876" transform="matrix(.918866 -.394569 .394569 .918866 245.604248 88.985245)" class="D"/><use href="#C" width="24.523" opacity=".215" transform="matrix(.779772 -.626064 .626064 .779772 491.303531 132.06549)" class="J"/><g class="B"><use href="#H" width="7.676" opacity=".85" transform="matrix(.959462 -.281837 .281837 .959462 312.233029 78.600701)" class="H"/><use href="#M" width="21.133" opacity=".291" transform="matrix(.938522 .34522 -.34522 .938522 538.356994 339.835297)" class="F"/></g><use href="#G" width="20.099" opacity=".534" transform="matrix(.720515 .693439 -.693439 .720515 646.905439 -103.594408)" class="J"/><use href="#G" width="4.107" opacity=".973" transform="matrix(.999204 -.039881 .039881 .999204 369.790814 1.691791)" class="I"/><g class="B L"><use href="#L" width="7.807" opacity=".898" transform="matrix(.968739 .24808 -.24808 .968739 539.46785 24.636892)"/><use href="#M" width="7.605" opacity=".903" transform="matrix(.805368 .592775 -.592775 .805368 666.539442 104.553122)"/><use href="#K" width="19.561" opacity=".627" transform="matrix(.99454 .104355 -.104355 .99454 305.819722 -109.828503)"/></g><use href="#C" width="17.606" opacity=".558" transform="matrix(.980607 -.195983 .195983 .980607 475.164768 -105.614787)" class="I"/><use href="#F" width="7.141" opacity=".826" transform="matrix(.818807 -.574069 .574069 .818807 232.272544 118.107766)" class="D"/><use href="#N" width="26.865" opacity=".453" transform="matrix(.9967 -.081177 .081177 .9967 381.89618 -242.276175)" class="B F"/><use href="#D" width="13.317" opacity=".695" transform="matrix(.875289 .483599 -.483599 .875289 546.532801 177.596087)" class="E"/><use href="#G" width="5.762" opacity=".921" transform="matrix(.960027 .279906 -.279906 .960027 478.020141 -2.23563)" class="D"/><use href="#G" width="14.323" opacity=".66" transform="matrix(.906114 -.423034 .423034 .906114 363.246525 -23.139121)" class="J"/><g class="B"><use href="#N" width="14.915" opacity=".546" transform="matrix(.888557 .458766 -.458766 .888557 561.370571 245.095369)" class="H"/><use href="#J" width="4.48" opacity=".928" transform="matrix(.979178 -.203004 .203004 .979178 347.703844 17.762407)" class="F"/><g class="H"><use href="#J" width="5.113" opacity=".95" transform="matrix(.846937 -.531693 .531693 .846937 164.397064 53.96093)"/><use href="#M" width="35.617" opacity="-.1" transform="matrix(.992554 -.121809 .121809 .992554 679.139053 -349.264165)"/></g></g><use href="#B" width="24.504" opacity=".318" transform="matrix(.990632 -.136559 .136559 .990632 26.453971 2.648888)" class="J"/><use href="#B" width="24.928" opacity=".144" transform="matrix(.90444 -.426601 .426601 .90444 122.32376 416.475122)" class="E"/><g class="B"><use href="#H" width="9.026" transform="matrix(.988059 .154073 -.154073 .988059 407.368851 105.444445)" class="F M"/><use href="#J" width="5.518" opacity=".878" transform="matrix(.82345 .567388 -.567388 .82345 606.571817 17.392893)" class="L"/><g class="C"><use href="#J" width="5.958" opacity=".935" transform="matrix(.971042 .238909 -.238909 .971042 516.219423 -6.373853)"/><use href="#M" width="27.966" opacity=".379" transform="matrix(.910593 -.413303 .413303 .910593 488.457145 -42.963618)"/></g></g><use href="#C" width="11.377" opacity=".747" transform="matrix(.918879 .394539 -.394539 .918879 605.774951 130.647577)" class="D"/><use href="#H" width="11.653" opacity=".716" transform="matrix(.762395 -.647112 .647112 .762395 259.44595 133.641235)" class="B H"/><use href="#E" width="11.257" opacity=".804" transform="matrix(.967568 .252611 -.252611 .967568 410.902645 36.851698)" class="G"/><g class="B"><g class="C"><use href="#M" width="5.274" opacity=".976" transform="matrix(.927575 -.373636 .373636 .927575 244.683999 39.989229)"/><use href="#N" width="17.363" opacity=".674" transform="matrix(.999738 -.022875 .022875 .999738 247.927496 58.929715)"/></g><use href="#N" width="9.433" opacity=".833" transform="matrix(.737391 .675466 -.675466 .737391 601.628706 139.7375)" class="F"/><use href="#J" width="8.147" transform="matrix(.87152 -.49036 .49036 .87152 262.161017 60.049102)" class="H P"/></g><use href="#G" width="9.871" opacity=".852" transform="matrix(.713715 .700436 -.700436 .713715 742.088031 98.107201)" class="D"/><use href="#D" width="32.307" opacity=".232" transform="matrix(.91241 -.409278 .409278 .91241 517.885627 -136.2144)" class="E"/><use href="#H" width="7.012" opacity=".915" transform="matrix(.999617 -.027685 .027685 .999617 358.912131 27.987997)" class="B F"/><use href="#B" width="15.068" opacity=".705" transform="matrix(.830256 .557382 -.557382 .830256 509.386249 141.668254)" class="I"/><g class="B"><use href="#L" width="15.962" opacity=".672" transform="matrix(.934189 .356779 -.356779 .934189 682.646275 26.093941)" class="C"/><use href="#K" width="8.625" opacity=".834" transform="matrix(.943539 .331262 -.331262 .943539 500.363165 -48.120897)" class="K"/><use href="#H" width="19.913" opacity=".459" transform="matrix(.996694 .081241 -.081241 .996694 602.314935 -163.949436)" class="F"/></g><use href="#B" width="4.67" opacity=".919" transform="matrix(.719032 -.694977 .694977 .719032 133.890305 147.858253)" class="G"/><use href="#J" width="5.733" opacity=".956" transform="matrix(.954665 -.297682 .297682 .954665 297.747281 21.459282)" class="B K"/><g class="J"><use href="#D" width="20.761" opacity=".522" transform="matrix(.995475 -.095026 .095026 .995475 492.95561 164.960523)"/><use href="#C" width="23.693" opacity=".337" transform="matrix(.813162 -.582037 .582037 .813162 455.665656 68.7097)"/></g></svg>