<svg xmlns="http://www.w3.org/2000/svg" version="1.1" xmlns:xlink="http://www.w3.org/1999/xlink" xmlns:svgjs="http://svgjs.dev/svgjs" viewBox="0 0 800 800" opacity="1"><defs><symbol id="bbburst-shape-1" viewBox="0 0 194 167"><path d="m97 0 96.129 166.5H.871L97 0Z"></path></symbol><symbol id="bbburst-shape-2" viewBox="0 0 126 115"><path d="m63 0 62.77 43.877-23.976 70.996H24.206L.23 43.877 63 0Z"></path></symbol><symbol id="bbburst-shape-3" viewBox="0 0 131 127"><path d="m66 0 66 63.5L66 127 0 63.5 66 0Z"></path></symbol><symbol id="bbburst-shape-4" viewBox="0 0 149 143"><path d="M71.647 2.781c.898-2.764 4.808-2.764 5.706 0l15.445 47.534a3 3 0 0 0 2.853 2.073h49.98c2.906 0 4.115 3.719 1.764 5.427L106.96 87.193a2.999 2.999 0 0 0-1.09 3.354l15.445 47.534c.898 2.764-2.266 5.062-4.617 3.354l-40.435-29.378a3 3 0 0 0-3.526 0l-40.435 29.378c-2.351 1.708-5.515-.59-4.617-3.354L43.13 90.547a3 3 0 0 0-1.09-3.354L1.605 57.815c-2.35-1.708-1.142-5.427 1.764-5.427h49.98a3 3 0 0 0 2.853-2.073L71.647 2.781Z"></path></symbol><symbol id="bbburst-shape-5" viewBox="0 0 145 145"><circle cx="72.5" cy="72.5" r="72.5"></circle></symbol><symbol id="bbburst-shape-6" viewBox="0 0 133 116"><path d="M59.7487 10.2513c-13.6683-13.66839-35.8291-13.66839-49.4974 0-13.66839 13.6683-13.66839 35.8291 0 49.4974l49.4974-49.4974ZM66.5 66.5 41.7513 91.2487 66.5 115.997l24.7487-24.7483L66.5 66.5Zm56.249-6.7513c13.668-13.6683 13.668-35.8291 0-49.4974-13.669-13.66839-35.8294-13.66839-49.4977 0l49.4977 49.4974Zm-112.4977 0 31.5 31.5 49.4974-49.4974-31.5-31.5-49.4974 49.4974Zm80.9974 31.5 31.5003-31.5-49.4977-49.4974-31.5 31.5 49.4974 49.4974Z"></path></symbol><symbol id="bbburst-shape-7" viewBox="0 0 139 124"><path fill-rule="evenodd" clip-rule="evenodd" d="M70.1641 15.0917C54.6093.764854 37.8293-2.10782 24.4032 2.82615 10.3804 7.97941.763366 21.4591 1.00047 37.0608c.1068 7.0273 2.86132 13.7317 7.0039 20.2001C12.1442 63.7249 17.853 70.2322 24.25 76.9024c3.8209 3.9842 7.8871 8.0312 12.0767 12.201h.0001c10.0335 9.9862 20.7748 20.6766 30.5497 32.8956 1.38 1.725 3.8972 2.005 5.6223.624.6706-.536 1.1228-1.244 1.3439-2.011 9.5768-11.748 20.0328-22.0735 29.8163-31.7351 4.19-4.1373 8.256-8.1528 12.078-12.1062 6.396-6.6176 12.106-13.0752 16.247-19.4911 4.144-6.4196 6.905-13.0811 7.012-20.0691.237-15.5124-9.399-28.8902-23.411-33.99923-13.32-4.85681-29.9542-2.08621-45.4209 11.88043Zm-3.7351 7.4919C52.1278 8.44857 37.6826 6.46918 27.1626 10.3352 16.2859 14.3323 8.8148 24.7824 8.99955 36.9392c.07575 4.9844 2.03755 10.2234 5.74165 16.0072 3.707 5.7881 8.9752 11.8418 15.2827 18.4187 3.5798 3.7328 7.4978 7.6329 11.6 11.7163 9.0476 9.0063 18.9911 18.9046 28.1786 29.8666 9.2999-11.068 19.4036-21.0473 28.5839-30.1144l.0007-.0006c4.1019-4.0508 8.0189-7.9196 11.5979-11.6222 6.307-6.5252 11.573-12.5298 15.278-18.2697 3.703-5.7362 5.658-10.924 5.734-15.8531.184-12.0276-7.267-22.3914-18.153-26.3608-10.71-3.90518-25.4722-1.80041-40.0023 12.867-1.5547 1.5694-4.0874 1.5813-5.6568.0265-.3146-.3116-.5666-.6625-.7559-1.0371Z"></path></symbol><symbol id="bbburst-shape-8" viewBox="0 0 87 168"><path d="m12 12 31.2546 18.0749c16.4102 9.4902 20.014 31.6325 7.4603 45.8369L36.3296 92.1884c-12.5684 14.2206-8.9394 36.3916 7.5068 45.8636L75 156" stroke-width="14" stroke-linecap="round" stroke-linejoin="round"></path></symbol><symbol id="bbburst-shape-9" viewBox="0 0 182 172"><path d="M13.5809 69.845 91 13.5967l77.419 56.2483-29.571 91.012H43.1524L13.5809 69.845Z" stroke-width="22"></path></symbol><symbol id="bbburst-shape-10" viewBox="0 0 145 145"><circle cx="72.5" cy="72.5" r="61.5" fill="none" stroke-width="22"></circle></symbol><symbol id="bbburst-shape-11" viewBox="0 0 194 167"><path d="M10.398 161 97 11l86.603 150H10.397Z" stroke-width="11"></path></symbol><symbol id="bbburst-shape-12" viewBox="0 0 170 151"><path d="M69.3728 54.2122 85 10.0031l15.627 44.2091c1.413 3.9958 5.19 6.6672 9.428 6.6673h49.312l-39.149 26.1447c-3.803 2.5401-5.399 7.3367-3.875 11.6488l15.179 42.94-40.9683-27.36c-3.3621-2.245-7.7453-2.245-11.1074 0l-40.9682 27.36 15.1785-42.94c1.5243-4.3121-.0712-9.1087-3.8746-11.6488L10.6333 60.8795h49.3112c4.2381-.0001 8.0159-2.6715 9.4283-6.6673Z" stroke-width="12"></path></symbol><symbol id="bbburst-shape-13" viewBox="0 0 159 159"><path stroke-width="22" d="M11 11h137v137H11z"></path></symbol><symbol id="bbburst-shape-14" viewBox="0 0 185 109"><path d="M168 16.5C168 58.1975 134.197 92 92.5 92 50.8025 92 17 58.1975 17 16.5" stroke-width="33" stroke-linecap="round"></path></symbol></defs><use xlink:href="#bbburst-shape-8" width="15.583233456796837" opacity="0.670801336724109" transform="matrix(0.8066419385095027,-0.5910404241992518,0.5910404241992518,0.8066419385095027,66.6350062196228,-35.20689811939269)" fill="none" stroke="#ff5c58"></use><use xlink:href="#bbburst-shape-7" width="26.354809502513422" opacity="0.24279077989274234" transform="matrix(0.7959182610798934,0.6054040978384262,-0.6054040978384262,0.7959182610798934,320.4707402137385,212.52590838882242)" fill="#00a19d"></use><use xlink:href="#bbburst-shape-13" width="20.94514818521949" opacity="0.5016525791496644" transform="matrix(0.8367618163499828,0.547567039456063,-0.547567039456063,0.8367618163499828,425.0747607026683,186.0358709446936)" fill="none" stroke="#2c2891"></use><use xlink:href="#bbburst-shape-8" width="23.151924376044413" opacity="0.09535266412584442" transform="matrix(0.9489134499962111,-0.31553647081801545,0.31553647081801545,0.9489134499962111,435.365613148539,392.7940830912716)" fill="none" stroke="#2c2891"></use><use xlink:href="#bbburst-shape-6" width="13.013765660117759" opacity="0.6792237334472415" transform="matrix(0.8795162471004171,-0.4758688591265434,0.4758688591265434,0.8795162471004171,256.76599741452696,185.62190100723603)" fill="#ffa6d5"></use><use xlink:href="#bbburst-shape-3" width="24.482340553162782" opacity="0.4719882280274711" transform="matrix(0.9825339450008328,-0.18608344074930608,0.18608344074930608,0.9825339450008328,82.04991357555328,63.23953763962612)" fill="#ffbd9b"></use><use xlink:href="#bbburst-shape-11" width="7.173272232261393" opacity="0.8872855294247028" transform="matrix(0.8362314984605953,-0.5483765868291126,0.5483765868291126,0.8362314984605953,152.39638487364033,111.41373045612522)" fill="none" stroke="#2c2891"></use><use xlink:href="#bbburst-shape-12" width="22.192605500248607" opacity="0.4287714351526296" transform="matrix(0.860390245609053,0.5096357770612199,-0.5096357770612199,0.860390245609053,567.2123842127378,305.7729380368157)" fill="none" stroke="#2c2891"></use><use xlink:href="#bbburst-shape-8" width="4.602253824419442" opacity="0.9244164143183018" transform="matrix(0.9962285655673457,0.08676776560237535,-0.08676776560237535,0.9962285655673457,437.23779634688384,-32.35999574610861)" fill="none" stroke="#00a19d"></use><use xlink:href="#bbburst-shape-13" width="6.254270894850157" opacity="0.9008440337927259" transform="matrix(0.7162283768748249,0.6978659700538878,-0.6978659700538878,0.7162283768748249,650.7639754905049,75.16665845556429)" fill="none" stroke="#00a19d"></use><use xlink:href="#bbburst-shape-6" width="4.709765185524687" opacity="0.9488366221401954" transform="matrix(0.981859724896677,0.18960875672241922,-0.18960875672241922,0.981859724896677,464.6940002425011,28.0695826782258)" fill="#ffbd9b"></use><use xlink:href="#bbburst-shape-14" width="7.53232524996405" opacity="0.7987296019269091" transform="matrix(0.8182365888890428,0.5748816266008363,-0.5748816266008363,0.8182365888890428,643.1364216883749,159.6467184578354)" fill="none" stroke="#ff5c58"></use><use xlink:href="#bbburst-shape-1" width="23.340237908969243" opacity="0.5199749078537715" transform="matrix(0.9643006078905632,0.2648100028735514,-0.2648100028735514,0.9643006078905632,416.6971537137772,-190.23202869711966)" fill="#2c2891"></use><use xlink:href="#bbburst-shape-10" width="15.17132915778688" opacity="0.7179605598199139" transform="matrix(0.9459464530090365,-0.3243228453865421,0.3243228453865421,0.9459464530090365,387.52139289505897,-0.9433317987803775)" fill="none" stroke="#2c2891"></use><use xlink:href="#bbburst-shape-10" width="6.942322582618503" opacity="0.8885933891079637" transform="matrix(0.7572857759441958,-0.6530836497360788,0.6530836497360788,0.7572857759441958,96.14126639966321,69.12706102286535)" fill="none" stroke="#ffa6d5"></use><use xlink:href="#bbburst-shape-10" width="4.575532463771893" opacity="0.9653464416807916" transform="matrix(0.7210337178138262,-0.6928999767466959,0.6928999767466959,0.7210337178138262,134.16140703389482,104.51547271416001)" fill="none" stroke="#2c2891"></use><use xlink:href="#bbburst-shape-5" width="19.96039249451643" opacity="0.5325580029412017" transform="matrix(0.7875539979940288,-0.6162456492695273,0.6162456492695273,0.7875539979940288,1.3435033963455965,244.17983158248023)" fill="#00a19d"></use><use xlink:href="#bbburst-shape-9" width="4.816804175905453" opacity="0.9326413787761668" transform="matrix(0.8339564865162572,-0.5518302081233499,0.5518302081233499,0.8339564865162572,158.7279117932532,43.7187944456108)" fill="none" stroke="#ffbd9b"></use><use xlink:href="#bbburst-shape-8" width="25.999227592225903" opacity="0.4604113123375625" transform="matrix(0.9708551144996926,0.23966715805422456,-0.23966715805422456,0.9708551144996926,265.63736581121566,-99.18646770589669)" fill="none" stroke="#00a19d"></use><use xlink:href="#bbburst-shape-10" width="4.533742065299826" opacity="0.9225960827335032" transform="matrix(0.9142509399698371,0.4051483910424295,-0.4051483910424295,0.9142509399698371,578.5349547830597,3.8986648871222656)" fill="none" stroke="#2c2891"></use><use xlink:href="#bbburst-shape-12" width="30.935406794988012" opacity="0.3035927414215015" transform="matrix(0.975660027046551,0.21928864909867843,-0.21928864909867843,0.975660027046551,411.62849468866125,313.6769260594744)" fill="none" stroke="#ff5c58"></use><use xlink:href="#bbburst-shape-6" width="16.611032785257766" opacity="0.45919663014101664" transform="matrix(0.7455588977985862,-0.6664397421472982,0.6664397421472982,0.7455588977985862,370.24221530923836,94.24051692215636)" fill="#ffa6d5"></use><use xlink:href="#bbburst-shape-13" width="23.68619061402473" opacity="0.274253582200091" transform="matrix(0.7765531720521702,-0.6300517208735426,0.6300517208735426,0.7765531720521702,26.127643122962468,-209.70023838537685)" fill="none" stroke="#ffbd9b"></use><use xlink:href="#bbburst-shape-11" width="22.051970894569713" opacity="0.5505116170641031" transform="matrix(0.7548599022909555,0.655886063210135,-0.655886063210135,0.7548599022909555,777.6293546827217,-69.64829214675001)" fill="none" stroke="#2c2891"></use><use xlink:href="#bbburst-shape-8" width="22.132058917305365" opacity="0.5672831353042995" transform="matrix(0.9398382706878842,-0.3416197080825509,0.3416197080825509,0.9398382706878842,447.2382587405815,40.87068373345954)" fill="none" stroke="#ffa6d5"></use><use xlink:href="#bbburst-shape-12" width="23.885771739527957" opacity="0.5027997805310827" transform="matrix(0.8514445103581454,0.5244447023099557,-0.5244447023099557,0.8514445103581454,702.8149851308301,251.64869903994736)" fill="none" stroke="#00a19d"></use><use xlink:href="#bbburst-shape-2" width="9.25226674013369" opacity="0.7644176934058237" transform="matrix(0.8008340468976045,0.5988863242132061,-0.5988863242132061,0.8008340468976045,543.7346422900663,129.37690945054965)" fill="#ffa6d5"></use><use xlink:href="#bbburst-shape-8" width="13.858605617193302" opacity="0.6284249502936271" transform="matrix(0.9928949286219965,0.11899437262627403,-0.11899437262627403,0.9928949286219965,552.2469751798892,126.59673437995968)" fill="none" stroke="#2c2891"></use><use xlink:href="#bbburst-shape-8" width="8.521558418094624" opacity="0.8457413375970155" transform="matrix(0.8015833761731028,-0.597883007822542,0.597883007822542,0.8015833761731028,114.31760805510552,136.31846296652083)" fill="none" stroke="#00a19d"></use><use xlink:href="#bbburst-shape-7" width="7.53804787489453" opacity="0.8617712156979673" transform="matrix(0.9087316132493205,0.41738094719487057,-0.41738094719487057,0.9087316132493205,615.8106524710422,1.257604541497642)" fill="#00a19d"></use><use xlink:href="#bbburst-shape-2" width="30.261243658681092" opacity="-0.1106001938288328" transform="matrix(0.9647236197702768,-0.26326476683622985,0.26326476683622985,0.9647236197702768,638.3258706101885,366.59859349867185)" fill="#ffa6d5"></use><use xlink:href="#bbburst-shape-14" width="22.092353475068446" opacity="0.5206958220136944" transform="matrix(0.7528604826260412,0.6581801377283306,-0.6581801377283306,0.7528604826260412,556.80652815492,283.67925812004944)" fill="none" stroke="#2c2891"></use><use xlink:href="#bbburst-shape-3" width="37.421992614542745" opacity="-0.10237321908747332" transform="matrix(0.9262279549114478,-0.3769638915606598,0.3769638915606598,0.9262279549114478,-117.86999777354336,388.53679025545773)" fill="#00a19d"></use><use xlink:href="#bbburst-shape-1" width="4.601169768391708" opacity="0.9648143067552676" transform="matrix(0.9944653358907004,-0.10506519743376666,0.10506519743376666,0.9944653358907004,347.11795964455814,-10.853117272100064)" fill="#ffa6d5"></use><use xlink:href="#bbburst-shape-2" width="21.896887614580965" opacity="0.32609802501705454" transform="matrix(0.790196665792033,0.612853350624074,-0.612853350624074,0.790196665792033,491.24825729560075,343.43627631420327)" fill="#ffa6d5"></use><use xlink:href="#bbburst-shape-8" width="14.52007089994732" opacity="0.7413090136034813" transform="matrix(0.954047748538331,0.2996546237069298,-0.2996546237069298,0.954047748538331,434.6738030489478,102.38327831874568)" fill="none" stroke="#ff5c58"></use><use xlink:href="#bbburst-shape-6" width="15.24204167681431" opacity="0.5980377093953042" transform="matrix(0.7465309528765094,0.6653506867790029,-0.6653506867790029,0.7465309528765094,715.5291615452206,268.6106073853949)" fill="#2c2891"></use><use xlink:href="#bbburst-shape-7" width="10.259927260324108" opacity="0.7949148584751626" transform="matrix(0.7886289721517256,-0.6148693717228993,0.6148693717228993,0.7886289721517256,98.92514229024988,164.60556231299637)" fill="#2c2891"></use><use xlink:href="#bbburst-shape-11" width="33.55805054995698" opacity="0.1945559690305042" transform="matrix(0.7595411650510441,0.6504592366881284,-0.6504592366881284,0.7595411650510441,290.49144347070416,23.645034249762887)" fill="none" stroke="#00a19d"></use><use xlink:href="#bbburst-shape-12" width="9.071078564231101" opacity="0.7914740722092526" transform="matrix(0.8797478820228403,0.4754404947796587,-0.4754404947796587,0.8797478820228403,678.3451153944393,28.224962993722386)" fill="none" stroke="#00a19d"></use><use xlink:href="#bbburst-shape-4" width="4.797623817959206" opacity="0.946525685118342" transform="matrix(0.7703349360941327,-0.6376394641432166,0.6376394641432166,0.7703349360941327,124.33991331049299,108.47019836753225)" fill="#00a19d"></use><use xlink:href="#bbburst-shape-2" width="32.68180178588687" opacity="0.3464283590949121" transform="matrix(0.8588339724023869,0.5122540461992819,-0.5122540461992819,0.8588339724023869,356.2411070770783,-129.2414351000277)" fill="#ffbd9b"></use><use xlink:href="#bbburst-shape-13" width="34.37594130311941" opacity="0.08099412810844542" transform="matrix(0.9995026191822035,-0.03153591996303577,0.03153591996303577,0.9995026191822035,674.6082398515791,280.6788483959317)" fill="none" stroke="#2c2891"></use><use xlink:href="#bbburst-shape-6" width="24.502950401729557" opacity="0.36216992030862316" transform="matrix(0.888707692506076,0.45847424931017217,-0.45847424931017217,0.888707692506076,823.2591336566413,178.553865902239)" fill="#2c2891"></use><use xlink:href="#bbburst-shape-4" width="9.031322934446958" opacity="0.8196329365666704" transform="matrix(0.9842581346565986,-0.17673687889717027,0.17673687889717027,0.9842581346565986,376.51918530838395,69.70747046548348)" fill="#ffa6d5"></use><use xlink:href="#bbburst-shape-11" width="4.523402251453267" opacity="0.9430726213370346" transform="matrix(0.9904761976508387,-0.13768406548012954,0.13768406548012954,0.9904761976508387,337.2865632401225,-20.980324234612397)" fill="none" stroke="#ffa6d5"></use><use xlink:href="#bbburst-shape-12" width="10.481779459690227" opacity="0.6798991151382849" transform="matrix(0.9567909788987198,-0.2907765855395332,0.2907765855395332,0.9567909788987198,330.5649814805458,-115.58296763627834)" fill="none" stroke="#00a19d"></use><use xlink:href="#bbburst-shape-14" width="16.467981023631783" opacity="0.47290285490800654" transform="matrix(0.8420609620690581,-0.5393823654508295,0.5393823654508295,0.8420609620690581,194.1914661433709,304.22895544851235)" fill="none" stroke="#ffbd9b"></use><use xlink:href="#bbburst-shape-10" width="26.24546746706354" opacity="0.43676174887676666" transform="matrix(0.9796918912404706,-0.20050884827775053,0.20050884827775053,0.9796918912404706,53.95371395902333,-4.685497278837943)" fill="none" stroke="#2c2891"></use><use xlink:href="#bbburst-shape-11" width="35.83713915921319" opacity="0.2308972792250953" transform="matrix(0.9085412662245861,-0.41779512630836874,0.41779512630836874,0.9085412662245861,440.1826151537981,307.6730736457598)" fill="none" stroke="#2c2891"></use><use xlink:href="#bbburst-shape-5" width="6.965855924351018" opacity="0.8754251198815077" transform="matrix(0.973648573996068,-0.2280536216669743,0.2280536216669743,0.973648573996068,253.89689263088428,33.500263754160244)" fill="#ff5c58"></use><use xlink:href="#bbburst-shape-13" width="5.440201335706984" opacity="0.9437569911083286" transform="matrix(0.7454999411779843,-0.6665056921764598,0.6665056921764598,0.7454999411779843,134.9146787546821,128.67287110228102)" fill="none" stroke="#ffa6d5"></use><use xlink:href="#bbburst-shape-4" width="24.690697071551757" opacity="0.40734529655793317" transform="matrix(0.9998736657610495,0.01589504695057881,-0.01589504695057881,0.9998736657610495,624.6716777235014,-134.00001145096968)" fill="#00a19d"></use><use xlink:href="#bbburst-shape-7" width="38.5288915432146" opacity="0.25406094993262607" transform="matrix(0.9387724825919055,0.34453769884909613,-0.34453769884909613,0.9387724825919055,323.3583191479629,-254.5353498621114)" fill="#2c2891"></use><use xlink:href="#bbburst-shape-4" width="33.411744873051134" opacity="0.016262736779046327" transform="matrix(0.7240034492403041,0.6897963507355938,-0.6897963507355938,0.7240034492403041,925.9509060487732,455.61157721172356)" fill="#ffbd9b"></use><use xlink:href="#bbburst-shape-4" width="8.349169389120144" opacity="0.8013930732784004" transform="matrix(0.9851125680081441,-0.1719105242630586,0.1719105242630586,0.9851125680081441,260.5547481282573,66.31231801681258)" fill="#ffa6d5"></use><use xlink:href="#bbburst-shape-14" width="6.583075571179209" opacity="0.8566127786564204" transform="matrix(0.8997447269200248,0.4364165743640014,-0.4364165743640014,0.8997447269200248,507.4811104049162,31.463037813618428)" fill="none" stroke="#ffbd9b"></use><use xlink:href="#bbburst-shape-3" width="15.466257292733442" opacity="0.6877594363443464" transform="matrix(0.9815484342042119,-0.1912136797179009,0.1912136797179009,0.9815484342042119,191.17516941572833,-55.896176221902124)" fill="#2c2891"></use><use xlink:href="#bbburst-shape-2" width="25.766377216299986" opacity="0.17019001383462573" transform="matrix(0.9576855367807434,-0.2878166302369954,0.2878166302369954,0.9576855367807434,644.3870576243467,-13.521440147061355)" fill="#2c2891"></use><use xlink:href="#bbburst-shape-3" width="29.418989393834565" opacity="0.11086835773071924" transform="matrix(0.8669519947904141,0.49839165194545737,-0.49839165194545737,0.8669519947904141,955.050847083143,-109.93289936927704)" fill="#2c2891"></use><use xlink:href="#bbburst-shape-10" width="15.62820401044721" opacity="0.6077982143519423" transform="matrix(0.9994165910386201,-0.03415373415519115,0.03415373415519115,0.9994165910386201,206.6219567403691,40.462526446012646)" fill="none" stroke="#2c2891"></use><use xlink:href="#bbburst-shape-2" width="24.43300052877626" opacity="0.43429286681123735" transform="matrix(0.9966572827864673,0.08169614843244312,-0.08169614843244312,0.9966572827864673,271.1960667189965,206.53758090744822)" fill="#2c2891"></use><use xlink:href="#bbburst-shape-10" width="29.696015320233855" opacity="0.17265510442511223" transform="matrix(0.9605271363401396,0.27818630511621323,-0.27818630511621323,0.9605271363401396,285.0965301359693,317.76766318194103)" fill="none" stroke="#00a19d"></use><use xlink:href="#bbburst-shape-4" width="26.455144092812425" opacity="0.22314402711182668" transform="matrix(0.9982553448425121,-0.05904461443143775,0.05904461443143775,0.9982553448425121,535.3938426030068,305.7262477748644)" fill="#00a19d"></use><use xlink:href="#bbburst-shape-5" width="8.992737437041036" opacity="0.8020585200120753" transform="matrix(0.9314691396517941,0.36382034285667214,-0.36382034285667214,0.9314691396517941,578.932410716007,106.52869724251502)" fill="#ffa6d5"></use><use xlink:href="#bbburst-shape-5" width="21.627758975184214" opacity="0.40214525403282775" transform="matrix(0.95538091081302,0.2953765651741592,-0.2953765651741592,0.95538091081302,386.43606998272475,-225.44185775969848)" fill="#00a19d"></use><use xlink:href="#bbburst-shape-4" width="23.64065521837434" opacity="0.3128876446133376" transform="matrix(0.7577971524573807,0.6524902112120039,-0.6524902112120039,0.7577971524573807,737.8134068418846,-207.8763470800103)" fill="#ff5c58"></use><use xlink:href="#bbburst-shape-10" width="14.466317848595144" opacity="0.6276653607181726" transform="matrix(0.7431387129463511,0.6691373949499765,-0.6691373949499765,0.7431387129463511,587.0945489828769,-51.82985058248863)" fill="none" stroke="#2c2891"></use><use xlink:href="#bbburst-shape-5" width="10.942875804325537" opacity="0.6916133864854503" transform="matrix(0.7820186141446231,-0.6232550738913587,0.6232550738913587,0.7820186141446231,223.88932061794577,205.7399553808449)" fill="#ff5c58"></use><use xlink:href="#bbburst-shape-9" width="13.057069824519164" opacity="0.7616041714671743" transform="matrix(0.9761826382188328,0.21695035570406296,-0.21695035570406296,0.9761826382188328,373.15569137034186,9.303949165201686)" fill="none" stroke="#00a19d"></use><use xlink:href="#bbburst-shape-1" width="5.82764184822388" opacity="0.9432525027538674" transform="matrix(0.9673385072461941,0.25348809123646215,-0.25348809123646215,0.9673385072461941,473.58164528832583,17.572971478852253)" fill="#00a19d"></use><use xlink:href="#bbburst-shape-3" width="14.544507865463387" opacity="0.6213063040427702" transform="matrix(0.907725009443855,-0.4195656173117065,0.4195656173117065,0.907725009443855,393.1397332463606,9.24924802945543)" fill="#ffa6d5"></use><use xlink:href="#bbburst-shape-3" width="10.26694424742516" opacity="0.7218765822893904" transform="matrix(0.9702330979542464,-0.2421729457105102,0.2421729457105102,0.9702330979542464,317.65928222020045,-110.46021969758942)" fill="#2c2891"></use><use xlink:href="#bbburst-shape-11" width="5.846558613509881" opacity="0.8907699473588175" transform="matrix(0.9860240221795527,0.16660320430549075,-0.16660320430549075,0.9860240221795527,493.60342315762364,-34.03649943292396)" fill="none" stroke="#ff5c58"></use><use xlink:href="#bbburst-shape-11" width="15.714202877834573" opacity="0.4877779818088954" transform="matrix(0.9926157915566574,-0.12130082585188989,0.12130082585188989,0.9926157915566574,406.28847072925544,225.533127221725)" fill="none" stroke="#2c2891"></use><use xlink:href="#bbburst-shape-1" width="25.60662089963424" opacity="0.03985107278641009" transform="matrix(0.7920428307406091,0.610465522591082,-0.610465522591082,0.7920428307406091,1000.9313993679781,303.5636339410458)" fill="#ffbd9b"></use><use xlink:href="#bbburst-shape-10" width="23.999734422292285" opacity="0.3997313071560118" transform="matrix(0.9910652054619168,0.1333782535600485,-0.1333782535600485,0.9910652054619168,390.2778602254971,-263.25448799139565)" fill="none" stroke="#ffbd9b"></use><use xlink:href="#bbburst-shape-14" width="5.686523383029531" opacity="0.9220563251685787" transform="matrix(0.7317456812147057,0.6815777710750448,-0.6815777710750448,0.7317456812147057,635.5188940098478,103.53100790283702)" fill="none" stroke="#2c2891"></use><use xlink:href="#bbburst-shape-11" width="20.160720178369633" opacity="0.5122516009913658" transform="matrix(0.9909578545059035,0.1341735092820366,-0.1341735092820366,0.9909578545059035,658.0648807621586,-45.20118558836492)" fill="none" stroke="#ffa6d5"></use><use xlink:href="#bbburst-shape-3" width="12.796142914836906" opacity="0.6030834897133452" transform="matrix(0.9565206744653478,-0.291664532160419,0.291664532160419,0.9565206744653478,366.8120300052202,173.75920069899763)" fill="#2c2891"></use><use xlink:href="#bbburst-shape-11" width="7.426945957466976" opacity="0.8478159517745842" transform="matrix(0.8691688955975257,-0.49451534953505477,0.49451534953505477,0.8691688955975257,148.64376151384909,7.585009955545843)" fill="none" stroke="#ff5c58"></use><use xlink:href="#bbburst-shape-11" width="7.046446172814618" opacity="0.874779833182227" transform="matrix(0.8823963013236388,-0.47050692599616645,0.47050692599616645,0.8823963013236388,165.7774185604739,85.19138347238908)" fill="none" stroke="#ffbd9b"></use><use xlink:href="#bbburst-shape-5" width="23.38842987424782" opacity="0.14176470919632544" transform="matrix(0.9830032930608895,-0.18358792398043752,0.18358792398043752,0.9830032930608895,686.5070313194171,114.7239676982515)" fill="#00a19d"></use><use xlink:href="#bbburst-shape-1" width="10.699348382862901" opacity="0.7165312938743325" transform="matrix(0.7859481311729819,-0.6182924349413449,0.6182924349413449,0.7859481311729819,117.4435271791605,-34.78664409245698)" fill="#ffa6d5"></use><use xlink:href="#bbburst-shape-8" width="6.164466845620441" opacity="0.906031732056211" transform="matrix(0.9525059887497141,0.30451985386166447,-0.30451985386166447,0.9525059887497141,517.9912963121017,60.335548914354774)" fill="none" stroke="#2c2891"></use><use xlink:href="#bbburst-shape-12" width="8.247230305781297" opacity="0.8366447682616306" transform="matrix(0.8259257547974328,0.5637788995362375,-0.5637788995362375,0.8259257547974328,614.0782224640736,140.3618456294572)" fill="none" stroke="#2c2891"></use><use xlink:href="#bbburst-shape-7" width="12.690851573703743" opacity="0.7800101436193766" transform="matrix(0.9769979071179231,-0.21324889094013605,0.21324889094013605,0.9769979071179231,401.54919036749527,44.22980025881401)" fill="#2c2891"></use><use xlink:href="#bbburst-shape-12" width="6.321740015743432" opacity="0.8931188917982728" transform="matrix(0.9001316454918106,-0.43561797573585676,0.43561797573585676,0.9001316454918106,234.11944570991452,-5.45628430878736)" fill="none" stroke="#ff5c58"></use><use xlink:href="#bbburst-shape-12" width="6.82744758886013" opacity="0.911614593795701" transform="matrix(0.9292046837006815,0.36956549593910454,-0.36956549593910454,0.9292046837006815,535.6230185983654,-11.688431888558739)" fill="none" stroke="#ff5c58"></use><use xlink:href="#bbburst-shape-4" width="9.363355598191001" opacity="0.7828944301485805" transform="matrix(0.9790147388191132,-0.20378945305128937,0.20378945305128937,0.9790147388191132,218.87600933595186,-13.331999890080397)" fill="#00a19d"></use><use xlink:href="#bbburst-shape-2" width="6.261120645187891" opacity="0.8644541504025104" transform="matrix(0.9985756284470102,-0.053354608719946364,0.053354608719946364,0.9985756284470102,416.97564721033615,45.49381316695553)" fill="#ffbd9b"></use><use xlink:href="#bbburst-shape-6" width="21.620543730007178" opacity="0.3718778048371888" transform="matrix(0.7968689435977214,-0.6041522049363484,0.6041522049363484,0.7968689435977214,262.24294386894826,347.07795529565095)" fill="#00a19d"></use><use xlink:href="#bbburst-shape-12" width="31.266844267371056" opacity="0.30370057389408356" transform="matrix(0.9923672150422407,-0.1233179245256233,0.1233179245256233,0.9923672150422407,563.4411281858811,-209.69726035431455)" fill="none" stroke="#ffbd9b"></use><use xlink:href="#bbburst-shape-13" width="8.529967231464646" opacity="0.8075939286034404" transform="matrix(0.7442632852058355,-0.6678863393531995,0.6678863393531995,0.7442632852058355,216.07599402142728,110.69116223118681)" fill="none" stroke="#2c2891"></use><use xlink:href="#bbburst-shape-1" width="30.13685882624071" opacity="0.08745363196773648" transform="matrix(0.9607586935150033,-0.2773855310490146,0.2773855310490146,0.9607586935150033,-17.963889588652023,308.0948677922929)" fill="#ff5c58"></use><use xlink:href="#bbburst-shape-9" width="7.921023891890393" opacity="0.8945646842796565" transform="matrix(0.993629179490282,0.11269895148344988,-0.11269895148344988,0.993629179490282,488.2106965446071,-3.987105290971499)" fill="none" stroke="#ff5c58"></use><use xlink:href="#bbburst-shape-10" width="17.7023076051757" opacity="0.5226418562794856" transform="matrix(0.9821637083435572,0.18802779053329335,-0.18802779053329335,0.9821637083435572,257.76801786997953,-45.19875836526461)" fill="none" stroke="#ff5c58"></use><use xlink:href="#bbburst-shape-10" width="5.484271603175456" opacity="0.9553740072033484" transform="matrix(0.9977778250953446,-0.06662891075204402,0.06662891075204402,0.9977778250953446,377.16502574496724,-17.910984022234516)" fill="none" stroke="#00a19d"></use><use xlink:href="#bbburst-shape-2" width="23.782088101582303" opacity="0.47068183085883786" transform="matrix(0.9958273471518273,0.09125729923986396,-0.09125729923986396,0.9958273471518273,645.3561709539351,90.20255552471065)" fill="#2c2891"></use><use xlink:href="#bbburst-shape-13" width="12.084291329778758" opacity="0.6376921929190826" transform="matrix(0.9834381159166131,-0.18124423345966692,0.18124423345966692,0.9834381159166131,164.5314565411997,-36.13812182563936)" fill="none" stroke="#ff5c58"></use><use xlink:href="#bbburst-shape-4" width="29.197518982119043" opacity="0.18163837767882318" transform="matrix(0.842730019510056,-0.5383364321839834,0.5383364321839834,0.842730019510056,114.90008455816596,-292.9603294514818)" fill="#ffbd9b"></use><use xlink:href="#bbburst-shape-1" width="21.54209107232395" opacity="0.5424712278692747" transform="matrix(0.9274764645927893,-0.3738815422382607,0.3738815422382607,0.9274764645927893,34.732542837896574,40.988418249726806)" fill="#ffa6d5"></use><use xlink:href="#bbburst-shape-10" width="23.441778169113775" opacity="0.4165434139482197" transform="matrix(0.8732484456119998,0.48727523252903626,-0.48727523252903626,0.8732484456119998,496.68797274013014,292.36288834740145)" fill="none" stroke="#00a19d"></use><use xlink:href="#bbburst-shape-11" width="7.1158061038993035" opacity="0.9121648312587107" transform="matrix(0.9868102411466833,0.1618812773856966,-0.1618812773856966,0.9868102411466833,425.0904560286358,20.556786618625154)" fill="none" stroke="#2c2891"></use><use xlink:href="#bbburst-shape-14" width="9.85649272415454" opacity="0.7246292716565277" transform="matrix(0.7144595951513745,0.6996767016959576,-0.6996767016959576,0.7144595951513745,556.7419684518406,78.34892447890775)" fill="none" stroke="#2c2891"></use><use xlink:href="#bbburst-shape-3" width="31.03821499030508" opacity="0.15967122683060775" transform="matrix(0.887233494691891,-0.46132063242046134,0.46132063242046134,0.887233494691891,-76.2477630607546,-204.19036044814078)" fill="#ff5c58"></use><use xlink:href="#bbburst-shape-12" width="13.627561868111396" opacity="0.6883536243340553" transform="matrix(0.7750505099559625,0.6318992855012596,-0.6318992855012596,0.7750505099559625,574.1945631856314,205.21527415510286)" fill="none" stroke="#00a19d"></use><use xlink:href="#bbburst-shape-9" width="35.23646520514724" opacity="0.02700334694858586" transform="matrix(0.8043658775655439,-0.5941342735512003,0.5941342735512003,0.8043658775655439,-212.6634352708904,-159.68124617489053)" fill="none" stroke="#ffbd9b"></use><use xlink:href="#bbburst-shape-1" width="8.535928591711846" opacity="0.80999276326783" transform="matrix(0.9949853803542892,0.10002046231262099,-0.10002046231262099,0.9949853803542892,483.71353951261545,-69.20073128067878)" fill="#2c2891"></use><use xlink:href="#bbburst-shape-3" width="27.612000169797327" opacity="0.39437336735480966" transform="matrix(0.8962424515803028,0.4435645026209024,-0.4435645026209024,0.8962424515803028,320.9334393743437,156.6822568966004)" fill="#ff5c58"></use><use xlink:href="#bbburst-shape-9" width="29.1725891910291" opacity="0.2824151984984412" transform="matrix(0.9851538820655261,-0.1716736108178059,0.1716736108178059,0.9851538820655261,100.70629220359729,248.08517972566807)" fill="none" stroke="#ffa6d5"></use><use xlink:href="#bbburst-shape-8" width="12.85687373665945" opacity="0.7015141181604108" transform="matrix(0.907775498734229,0.41945636709653333,-0.41945636709653333,0.907775498734229,661.5984585628421,124.25486509112193)" fill="none" stroke="#00a19d"></use><use xlink:href="#bbburst-shape-5" width="14.825977143936289" opacity="0.6909589713374322" transform="matrix(0.8537114276203347,0.5207463858256243,-0.5207463858256243,0.8537114276203347,687.2995356423362,-55.157915457001764)" fill="#ffa6d5"></use><use xlink:href="#bbburst-shape-3" width="12.778564619231549" opacity="0.65211584196968" transform="matrix(0.9662943037682811,-0.25743993183842506,0.25743993183842506,0.9662943037682811,182.80176528049014,128.46656452662927)" fill="#ffbd9b"></use><use xlink:href="#bbburst-shape-2" width="23.222806990509586" opacity="0.18118584990282838" transform="matrix(0.9084111116892655,-0.4180780455363243,0.4180780455363243,0.9084111116892655,261.3903121242763,-324.87838203547625)" fill="#ff5c58"></use><use xlink:href="#bbburst-shape-14" width="32.76413994786493" opacity="0.039747126516883946" transform="matrix(0.9215197888649622,-0.3883314032244566,0.3883314032244566,0.9215197888649622,-134.23063319144435,270.94289543752757)" fill="none" stroke="#2c2891"></use><use xlink:href="#bbburst-shape-6" width="5.759787893429179" opacity="0.8399348004054943" transform="matrix(0.9392406723252217,-0.3432593180819212,0.3432593180819212,0.9392406723252217,272.1285991122169,96.29173136432394)" fill="#00a19d"></use><use xlink:href="#bbburst-shape-13" width="8.714031035676772" opacity="0.8249225360193094" transform="matrix(0.9953954436597041,-0.09585359013360349,0.09585359013360349,0.9953954436597041,282.1557501908041,-21.34451038738024)" fill="none" stroke="#ff5c58"></use><use xlink:href="#bbburst-shape-13" width="9.862187029874983" opacity="0.786445350714834" transform="matrix(0.7847739590558958,-0.6197820852426563,0.6197820852426563,0.7847739590558958,75.632567232533,26.16584680305516)" fill="none" stroke="#2c2891"></use><use xlink:href="#bbburst-shape-13" width="11.961263471127523" opacity="0.7459984300318537" transform="matrix(0.8207082738035323,-0.5713474681053783,0.5713474681053783,0.8207082738035323,216.84762829368879,-27.506750596912582)" fill="none" stroke="#ff5c58"></use><use xlink:href="#bbburst-shape-3" width="28.643666012347847" opacity="0.2372241849383694" transform="matrix(0.8882327974538143,-0.45939361938034273,0.45939361938034273,0.8882327974538143,477.6866704107536,257.73441843155695)" fill="#ffa6d5"></use><use xlink:href="#bbburst-shape-14" width="12.692438393631331" opacity="0.6428278458459062" transform="matrix(0.9809046249875477,-0.194489374203421,0.194489374203421,0.9809046249875477,437.3660600737784,-96.46429370487982)" fill="none" stroke="#ffa6d5"></use><use xlink:href="#bbburst-shape-12" width="26.548619403656364" opacity="0.03064958809194851" transform="matrix(0.7138207860787409,0.7003284125051106,-0.7003284125051106,0.7138207860787409,439.7083268486855,475.17449994054283)" fill="none" stroke="#ffa6d5"></use><use xlink:href="#bbburst-shape-7" width="9.237611290646054" opacity="0.7798232516725347" transform="matrix(0.8545749386231876,0.5193280988712003,-0.5193280988712003,0.8545749386231876,562.7427480821723,-34.44019443752285)" fill="#00a19d"></use><use xlink:href="#bbburst-shape-11" width="8.791049542702643" opacity="0.7939347935258272" transform="matrix(0.8346330333336905,-0.5508064085213631,0.5508064085213631,0.8346330333336905,170.8668231541002,161.0634223772899)" fill="none" stroke="#ff5c58"></use><use xlink:href="#bbburst-shape-11" width="3.8304773471758953" opacity="0.9844655841128291" transform="matrix(0.9020591011497717,0.4316125322935675,-0.4316125322935675,0.9020591011497717,577.5553392687905,40.560505668634164)" fill="none" stroke="#2c2891"></use><use xlink:href="#bbburst-shape-14" width="13.426397132463727" opacity="0.7287433801971008" transform="matrix(0.8796585267093125,0.47560579936287756,-0.47560579936287756,0.8796585267093125,689.6985312969343,106.58040326420331)" fill="none" stroke="#2c2891"></use><use xlink:href="#bbburst-shape-14" width="9.892372858450802" opacity="0.8310093428913565" transform="matrix(0.9989605020071759,-0.04558415765999365,0.04558415765999365,0.9989605020071759,449.2458432372753,23.856242754278355)" fill="none" stroke="#2c2891"></use><use xlink:href="#bbburst-shape-3" width="10.796599420348159" opacity="0.7234383934119641" transform="matrix(0.9681095321087637,0.25052731156532737,-0.25052731156532737,0.9681095321087637,594.7308545360779,-62.97886809330805)" fill="#2c2891"></use><use xlink:href="#bbburst-shape-8" width="33.17794679155111" opacity="0.31944124835604726" transform="matrix(0.8756342824663725,0.48297474402871315,-0.48297474402871315,0.8756342824663725,579.3804876855814,-264.5163569289637)" fill="none" stroke="#ffa6d5"></use><use xlink:href="#bbburst-shape-6" width="10.250244172549415" opacity="0.6996212761980487" transform="matrix(0.9100297895890048,0.41454285913593014,-0.41454285913593014,0.9100297895890048,584.8759461221533,166.93603462220642)" fill="#00a19d"></use><use xlink:href="#bbburst-shape-7" width="6.4295651244282555" opacity="0.8769867424409443" transform="matrix(0.9996046360695057,0.02811710419568683,-0.02811710419568683,0.9996046360695057,405.50945910984973,-55.234456951541176)" fill="#ffa6d5"></use><use xlink:href="#bbburst-shape-11" width="7.4825972149456925" opacity="0.8459105334014905" transform="matrix(0.766475710493848,-0.6422732948075538,0.6422732948075538,0.766475710493848,150.97795754809908,27.247366741403255)" fill="none" stroke="#ffa6d5"></use><use xlink:href="#bbburst-shape-7" width="11.794204457321381" opacity="0.748883497724963" transform="matrix(0.8000787745747747,0.5998949528666889,-0.5998949528666889,0.8000787745747747,640.798118423452,189.26646607083018)" fill="#00a19d"></use><use xlink:href="#bbburst-shape-2" width="19.471050772586143" opacity="0.5903763666092265" transform="matrix(0.9416846929852057,0.3364965661003971,-0.3364965661003971,0.9416846929852057,361.7787378235122,-64.7749487737945)" fill="#2c2891"></use><use xlink:href="#bbburst-shape-4" width="7.505056197927965" opacity="0.8688413142881674" transform="matrix(0.9150280444170293,0.40339023033577176,-0.40339023033577176,0.9150280444170293,609.9316937064899,60.37886582559486)" fill="#ff5c58"></use><use xlink:href="#bbburst-shape-4" width="17.7107675459591" opacity="0.6066082555495935" transform="matrix(0.8905609834637342,0.454863863955037,-0.454863863955037,0.8905609834637342,716.7847132897853,144.47895506077475)" fill="#00a19d"></use><use xlink:href="#bbburst-shape-11" width="9.30255798297296" opacity="0.7149357293600929" transform="matrix(0.822128790942052,-0.5693015467255993,0.5693015467255993,0.822128790942052,111.62376790984939,-41.33858570287015)" fill="none" stroke="#ffa6d5"></use><use xlink:href="#bbburst-shape-11" width="28.822326249067437" opacity="0.045712893604881844" transform="matrix(0.9517287586229267,-0.30694033623827116,0.30694033623827116,0.9517287586229267,496.8492453341069,-337.0495107189144)" fill="none" stroke="#ffbd9b"></use><use xlink:href="#bbburst-shape-5" width="29.07898324229185" opacity="0.021951100025709436" transform="matrix(0.7533599963681624,-0.6576083301420096,0.6576083301420096,0.7533599963681624,484.8330434348781,-146.6326885954368)" fill="#2c2891"></use><use xlink:href="#bbburst-shape-4" width="35.88221400075516" opacity="0.14323103083970223" transform="matrix(0.8565694154587168,0.5160318173336914,-0.5160318173336914,0.8565694154587168,724.0138265816579,-313.74278181050704)" fill="#2c2891"></use><use xlink:href="#bbburst-shape-11" width="32.08233189501453" opacity="0.19256666879455364" transform="matrix(0.9970397550509036,-0.07688775486404939,0.07688775486404939,0.9970397550509036,682.0632593319268,156.54113985950295)" fill="none" stroke="#ffa6d5"></use><use xlink:href="#bbburst-shape-1" width="8.998883081524367" opacity="0.7510332582971103" transform="matrix(0.9196692433866336,0.3926938792095657,-0.3926938792095657,0.9196692433866336,584.0265357666451,138.0104708170719)" fill="#2c2891"></use><use xlink:href="#bbburst-shape-5" width="26.99959327225969" opacity="0.11853690806710293" transform="matrix(0.9334727050560027,-0.3586484475296514,0.3586484475296514,0.9334727050560027,84.029831380563,-331.54459093803166)" fill="#ffbd9b"></use><use xlink:href="#bbburst-shape-6" width="6.920124315690743" opacity="0.8989692375887595" transform="matrix(0.9977434031767028,-0.06714239657154994,0.06714239657154994,0.9977434031767028,409.24946671371237,-21.271942206054916)" fill="#ffa6d5"></use><use xlink:href="#bbburst-shape-11" width="8.335396648634216" opacity="0.8363098110584309" transform="matrix(0.9802356432813695,0.1978334745202636,-0.1978334745202636,0.9802356432813695,446.0917459040098,74.69729163288343)" fill="none" stroke="#ffbd9b"></use><use xlink:href="#bbburst-shape-7" width="27.60444813642172" opacity="0.417652815131605" transform="matrix(0.954009605554393,-0.29977603725106433,0.29977603725106433,0.954009605554393,96.50788554538718,-176.60739732401316)" fill="#2c2891"></use><use xlink:href="#bbburst-shape-7" width="8.387236578220453" opacity="0.8620206722432906" transform="matrix(0.9966179175387799,0.0821749745400977,-0.0821749745400977,0.9966179175387799,393.82558442276127,-50.39506628659166)" fill="#ff5c58"></use><use xlink:href="#bbburst-shape-7" width="15.946752425087016" opacity="0.5720788111324784" transform="matrix(0.8991579112375785,0.43762432594506784,-0.43762432594506784,0.8991579112375785,588.9051120483693,228.2256608145545)" fill="#ffa6d5"></use><use xlink:href="#bbburst-shape-5" width="7.163118055974745" opacity="0.8034037881177607" transform="matrix(0.7855840438576926,-0.6187549676860743,0.6187549676860743,0.7855840438576926,153.80541943896824,-0.38977021580348037)" fill="#ffa6d5"></use><use xlink:href="#bbburst-shape-6" width="5.124146977079206" opacity="0.8883657832447496" transform="matrix(0.7426747443136567,-0.6696523158764142,0.6696523158764142,0.7426747443136567,152.05312033661232,149.8965117534326)" fill="#ffa6d5"></use><use xlink:href="#bbburst-shape-10" width="22.964655151809577" opacity="0.19488238546305048" transform="matrix(0.7785392503201005,-0.6275959175385193,0.6275959175385193,0.7785392503201005,-0.9004350373995749,429.5632973678579)" fill="none" stroke="#2c2891"></use><use xlink:href="#bbburst-shape-14" width="14.783883422051055" opacity="0.6009562438219531" transform="matrix(0.8313680844789635,0.5557221500982115,-0.5557221500982115,0.8313680844789635,515.961781376798,212.395507866583)" fill="none" stroke="#ffbd9b"></use><use xlink:href="#bbburst-shape-7" width="22.636169135877548" opacity="0.2309489726092755" transform="matrix(0.9358462114608617,-0.35240866688314026,0.35240866688314026,0.9358462114608617,582.4442337231266,-60.651092929357446)" fill="#00a19d"></use><use xlink:href="#bbburst-shape-5" width="12.717529698953067" opacity="0.7604296850688262" transform="matrix(0.9467838429076735,-0.3218700899570787,0.3218700899570787,0.9467838429076735,335.0349192441209,-58.823823283177376)" fill="#ff5c58"></use><use xlink:href="#bbburst-shape-4" width="5.577982288948146" opacity="0.9631974635899145" transform="matrix(0.9984842183779126,0.05503876497750423,-0.05503876497750423,0.9984842183779126,429.16295999392844,13.709915766015797)" fill="#ffa6d5"></use><use xlink:href="#bbburst-shape-5" width="23.317814051974743" opacity="0.5490719420866903" transform="matrix(0.9943630253119783,0.10602911813464304,-0.10602911813464304,0.9943630253119783,311.44348113368346,-163.07031861279256)" fill="#ffa6d5"></use><use xlink:href="#bbburst-shape-11" width="13.769668181077888" opacity="0.6623879138678808" transform="matrix(0.9576613676570992,0.28789703870851857,-0.28789703870851857,0.9576613676570992,644.3338408786436,83.06336859698285)" fill="none" stroke="#2c2891"></use><use xlink:href="#bbburst-shape-14" width="17.646494162177323" opacity="0.5729829118936931" transform="matrix(0.8931156249382014,0.4498271673556923,-0.4498271673556923,0.8931156249382014,595.9320473795981,-151.86046948443865)" fill="none" stroke="#ff5c58"></use><use xlink:href="#bbburst-shape-3" width="6.817378749675729" opacity="0.9362386764069499" transform="matrix(0.8384970576092078,-0.5449061243743741,0.5449061243743741,0.8384970576092078,199.87805408215476,86.3203405097882)" fill="#2c2891"></use><use xlink:href="#bbburst-shape-13" width="19.635549895253508" opacity="0.37659328471687903" transform="matrix(0.9966913250291369,0.0812797798450718,-0.0812797798450718,0.9966913250291369,468.7388469233049,277.25938957543514)" fill="none" stroke="#2c2891"></use><use xlink:href="#bbburst-shape-12" width="20.426321252785357" opacity="0.2649100680446551" transform="matrix(0.7588667309125126,-0.6512459479445198,0.6512459479445198,0.7588667309125126,227.19220662943212,419.7920574786779)" fill="none" stroke="#ffa6d5"></use><use xlink:href="#bbburst-shape-6" width="38.624548229128656" opacity="0.03742655156185759" transform="matrix(0.8275426337161399,0.5614028761790901,-0.5614028761790901,0.8275426337161399,355.9678888536636,-293.72996927293724)" fill="#ff5c58"></use><use xlink:href="#bbburst-shape-3" width="9.129340183382594" opacity="0.7488680165121352" transform="matrix(0.9320647719604991,-0.36229167927268613,0.36229167927268613,0.9320647719604991,229.0832259419937,139.7443164219024)" fill="#2c2891"></use><use xlink:href="#bbburst-shape-13" width="16.654130060963702" opacity="0.6132189882606727" transform="matrix(0.8982754203633342,-0.43943289495789367,0.43943289495789367,0.8982754203633342,74.36003291692703,144.4484689557243)" fill="none" stroke="#ffa6d5"></use><use xlink:href="#bbburst-shape-12" width="5.151234933693283" opacity="0.9204860004479436" transform="matrix(0.9892571405625008,-0.14618587430427235,0.14618587430427235,0.9892571405625008,327.52644269517333,38.564297815706084)" fill="none" stroke="#00a19d"></use><use xlink:href="#bbburst-shape-13" width="14.467660224368945" opacity="0.6515193915878729" transform="matrix(0.8720844281527725,0.4893554435923358,-0.4893554435923358,0.8720844281527725,618.5620391582388,-106.46094530277804)" fill="none" stroke="#2c2891"></use><use xlink:href="#bbburst-shape-2" width="8.311957027766418" opacity="0.8728949931027616" transform="matrix(0.9577594993845195,0.28757041109737713,-0.28757041109737713,0.9577594993845195,497.2515298725317,71.21383864896313)" fill="#2c2891"></use><use xlink:href="#bbburst-shape-12" width="13.37086715620041" opacity="0.7496894993080705" transform="matrix(0.9909721769974056,-0.13406768595385946,0.13406768595385946,0.9909721769974056,269.77770286731766,-83.7908396869575)" fill="none" stroke="#00a19d"></use><use xlink:href="#bbburst-shape-7" width="8.581577601529673" opacity="0.7784067109226093" transform="matrix(0.8434526033902946,0.5372035981209866,-0.5372035981209866,0.8434526033902946,691.1926361707285,119.88295807489203)" fill="#00a19d"></use><use xlink:href="#bbburst-shape-3" width="18.696333133883755" opacity="0.5126279025701083" transform="matrix(0.9888160934303866,0.14913997912387245,-0.14913997912387245,0.9888160934303866,280.29630398221036,-135.4399655098287)" fill="#2c2891"></use><use xlink:href="#bbburst-shape-9" width="10.575992116942121" opacity="0.79518526573539" transform="matrix(0.9371132656560539,0.34902539639895286,-0.34902539639895286,0.9371132656560539,506.9297889216925,111.13213729189124)" fill="none" stroke="#2c2891"></use><use xlink:href="#bbburst-shape-10" width="9.567739864891939" opacity="0.8104352541339426" transform="matrix(0.9335588860340917,-0.3584240593302658,0.3584240593302658,0.9335588860340917,282.0021785766856,-51.62447817460634)" fill="none" stroke="#ff5c58"></use><use xlink:href="#bbburst-shape-9" width="16.963264840676334" opacity="0.6283459174511733" transform="matrix(0.960812685248297,0.27719845574237434,-0.27719845574237434,0.960812685248297,586.0441551228364,-131.8195506295566)" fill="none" stroke="#2c2891"></use><use xlink:href="#bbburst-shape-1" width="8.783803050685066" opacity="0.8115123684367023" transform="matrix(0.7766803138475374,0.629894983375555,-0.629894983375555,0.7766803138475374,598.3967083877349,18.159627116334036)" fill="#ffbd9b"></use><use xlink:href="#bbburst-shape-13" width="10.160244832794495" opacity="0.6455405894254704" transform="matrix(0.8074830272884657,-0.5898908039977018,0.5898908039977018,0.8074830272884657,175.12903174935715,238.78554498402963)" fill="none" stroke="#ffa6d5"></use><use xlink:href="#bbburst-shape-2" width="38.93997887223656" opacity="0.249806665071715" transform="matrix(0.9887451637771482,0.14960949537813567,-0.14960949537813567,0.9887451637771482,618.2557835834988,-285.4453010757967)" fill="#2c2891"></use><use xlink:href="#bbburst-shape-8" width="15.252177444737832" opacity="0.534551167758673" transform="matrix(0.8888066605862855,0.45828235848377946,-0.45828235848377946,0.8888066605862855,522.203445399133,243.2649832973957)" fill="none" stroke="#2c2891"></use><use xlink:href="#bbburst-shape-10" width="9.869708269522265" opacity="0.7009620649856569" transform="matrix(0.7852949616311193,0.6191218161531531,-0.6191218161531531,0.7852949616311193,509.47693465046905,74.29718021471894)" fill="none" stroke="#2c2891"></use><use xlink:href="#bbburst-shape-3" width="14.397576045286682" opacity="0.7486993284766554" transform="matrix(0.974646264195473,-0.22375133449838547,0.22375133449838547,0.974646264195473,416.3177271942671,18.439975120268457)" fill="#ffa6d5"></use><use xlink:href="#bbburst-shape-12" width="29.35506016001836" opacity="0.17993164097518144" transform="matrix(0.9506800270907225,0.31017331621334393,-0.31017331621334393,0.9506800270907225,142.11748282685485,42.49105619629563)" fill="none" stroke="#ffa6d5"></use><use xlink:href="#bbburst-shape-10" width="11.225805848433781" opacity="0.7653329937555301" transform="matrix(0.902369920711154,0.4309623257266762,-0.4309623257266762,0.902369920711154,473.7528472081792,-12.321761320268934)" fill="none" stroke="#ffa6d5"></use><use xlink:href="#bbburst-shape-12" width="18.9939073226694" opacity="0.5426935659975937" transform="matrix(0.8484918333205437,-0.5292084738440445,0.5292084738440445,0.8484918333205437,369.34366622441365,-15.57009212526225)" fill="none" stroke="#2c2891"></use><use xlink:href="#bbburst-shape-4" width="10.194463916472703" opacity="0.7723769571556709" transform="matrix(0.9697573842101758,0.24407092364687263,-0.24407092364687263,0.9697573842101758,515.7303554977484,-88.9418885084537)" fill="#2c2891"></use><use xlink:href="#bbburst-shape-13" width="14.247326126596985" opacity="0.6960966391593666" transform="matrix(0.7516820425094054,0.6595256681653022,-0.6595256681653022,0.7516820425094054,649.331006457967,231.08072630556603)" fill="none" stroke="#00a19d"></use><use xlink:href="#bbburst-shape-12" width="22.94388623009186" opacity="0.32955326384501393" transform="matrix(0.9986547237488181,-0.05185308799070516,0.05185308799070516,0.9986547237488181,658.5200440093224,81.747563077883)" fill="none" stroke="#2c2891"></use><use xlink:href="#bbburst-shape-5" width="9.277170507262458" opacity="0.7886818774932494" transform="matrix(0.9982165761217592,0.059696458485844275,-0.059696458485844275,0.9982165761217592,400.2804822576177,-92.74578450539883)" fill="#00a19d"></use><use xlink:href="#bbburst-shape-2" width="10.743884292830497" opacity="0.8136690714213468" transform="matrix(0.7670477704721513,0.641589991983745,-0.641589991983745,0.7670477704721513,568.6640991410591,90.15568118927604)" fill="#ffbd9b"></use><use xlink:href="#bbburst-shape-10" width="25.474261220792734" opacity="0.43519947449610585" transform="matrix(0.9980860004438954,0.06184121374866732,-0.06184121374866732,0.9980860004438954,508.9376472356602,-234.97976955871698)" fill="none" stroke="#2c2891"></use><use xlink:href="#bbburst-shape-11" width="25.31128460698897" opacity="0.5021591954849198" transform="matrix(0.9914321532095088,-0.13062268402676885,0.13062268402676885,0.9914321532095088,518.2534481489835,133.853333067034)" fill="none" stroke="#ffa6d5"></use><use xlink:href="#bbburst-shape-9" width="6.257055479025112" opacity="0.8630793617794421" transform="matrix(0.8597456628777571,-0.5107224247699391,0.5107224247699391,0.8597456628777571,137.1273333775767,31.690350606852235)" fill="none" stroke="#2c2891"></use><use xlink:href="#bbburst-shape-5" width="24.53874458047614" opacity="0.4519508871592416" transform="matrix(0.9891453508238052,0.14694037887405673,-0.14694037887405673,0.9891453508238052,689.976491588647,42.661349611321555)" fill="#ffbd9b"></use><use xlink:href="#bbburst-shape-2" width="6.7499310280133855" opacity="0.8892355326594074" transform="matrix(0.7087340310164159,-0.7054757779535894,0.7054757779535894,0.7087340310164159,65.76656904734455,123.24275126399135)" fill="#ffa6d5"></use><use xlink:href="#bbburst-shape-8" width="13.955360566481778" opacity="0.6861287940879204" transform="matrix(0.9895239746353207,-0.14436863794438623,0.14436863794438623,0.9895239746353207,195.81894199863729,27.12885459881835)" fill="none" stroke="#2c2891"></use><use xlink:href="#bbburst-shape-3" width="20.82600344480607" opacity="0.5518799648202053" transform="matrix(0.8338601033401652,0.5519758401031054,-0.5519758401031054,0.8338601033401652,427.21049810806176,141.29935357874103)" fill="#00a19d"></use><use xlink:href="#bbburst-shape-2" width="7.026759576193866" opacity="0.8937441112955398" transform="matrix(0.8492587886003775,-0.5279768081885977,0.5279768081885977,0.8492587886003775,139.65025336464143,49.74633828235193)" fill="#2c2891"></use><use xlink:href="#bbburst-shape-10" width="10.89943697903205" opacity="0.7983606316136473" transform="matrix(0.709692229702187,0.7045118445422605,-0.7045118445422605,0.709692229702187,749.4016277226417,56.37167081199891)" fill="none" stroke="#00a19d"></use><use xlink:href="#bbburst-shape-12" width="28.406349886715404" opacity="0.3903089577918819" transform="matrix(0.8894613880045714,-0.4570103272891996,0.4570103272891996,0.8894613880045714,-4.766904513898169,228.04416830282378)" fill="none" stroke="#ffa6d5"></use><use xlink:href="#bbburst-shape-14" width="24.996039180619416" opacity="0.3278996632256904" transform="matrix(0.9987133703488078,-0.05071098388441104,0.05071098388441104,0.9987133703488078,72.10305769367434,67.28792641087244)" fill="none" stroke="#2c2891"></use><use xlink:href="#bbburst-shape-3" width="25.685118158584867" opacity="0.17218239622023201" transform="matrix(0.9986967306792093,-0.05103763445398846,0.05103763445398846,0.9986967306792093,358.64197630946876,373.61336047640384)" fill="#2c2891"></use><use xlink:href="#bbburst-shape-4" width="4.36249157893529" opacity="0.9876770270126888" transform="matrix(0.9961957277708036,0.08714397266133277,-0.08714397266133277,0.9961957277708036,431.838267762338,-4.144843208832981)" fill="#ffa6d5"></use><use xlink:href="#bbburst-shape-11" width="12.694245700658291" opacity="0.639708352087454" transform="matrix(0.999835951596245,-0.0181126998437886,0.0181126998437886,0.999835951596245,544.4878236282387,36.02597065934884)" fill="none" stroke="#00a19d"></use><use xlink:href="#bbburst-shape-10" width="13.746772988637217" opacity="0.6266200706090432" transform="matrix(0.8858690058798073,0.4639354528611948,-0.4639354528611948,0.8858690058798073,537.9359945488128,-120.33907352659318)" fill="none" stroke="#ffbd9b"></use><use xlink:href="#bbburst-shape-14" width="19.987038295668096" opacity="0.5516808217954218" transform="matrix(0.980455377938609,0.19674158653233237,-0.19674158653233237,0.980455377938609,541.8864729050247,-182.1974994868732)" fill="none" stroke="#2c2891"></use><use xlink:href="#bbburst-shape-3" width="6.24061288596798" opacity="0.8485751158727" transform="matrix(0.8051004961003797,0.5931384249725543,-0.5931384249725543,0.8051004961003797,567.8938859078243,89.39731223220048)" fill="#00a19d"></use><use xlink:href="#bbburst-shape-8" width="26.06109139498344" opacity="0.38774842519721886" transform="matrix(0.9797644659915169,-0.2001539187234607,0.2001539187234607,0.9797644659915169,509.77211295730734,197.4121182639028)" fill="none" stroke="#2c2891"></use><use xlink:href="#bbburst-shape-11" width="11.766033779744706" opacity="0.7163232825829913" transform="matrix(0.9997889002334209,0.020546410149870686,-0.020546410149870686,0.9997889002334209,303.6886319200587,-81.2040785495206)" fill="none" stroke="#ffbd9b"></use><use xlink:href="#bbburst-shape-1" width="10.363904372568468" opacity="0.7638801017501985" transform="matrix(0.9747604604640937,0.22325331960763328,-0.22325331960763328,0.9747604604640937,552.6598484586457,90.25145405827288)" fill="#2c2891"></use><use xlink:href="#bbburst-shape-11" width="6.87964837599649" opacity="0.8589323929507162" transform="matrix(0.9885209146507199,0.15108408684604765,-0.15108408684604765,0.9885209146507199,483.1467146013334,-53.882386135794434)" fill="none" stroke="#ff5c58"></use><use xlink:href="#bbburst-shape-4" width="8.362566479056161" opacity="0.8219063256470387" transform="matrix(0.9998462977344095,0.01753228184791324,-0.01753228184791324,0.9998462977344095,334.54122209704434,-41.946062595587875)" fill="#ffbd9b"></use><use xlink:href="#bbburst-shape-10" width="5.169746545107092" opacity="0.9284184621075527" transform="matrix(0.9459174673609889,-0.3244073749799353,0.3244073749799353,0.9459174673609889,299.3851172537816,16.18934836683303)" fill="none" stroke="#2c2891"></use><use xlink:href="#bbburst-shape-2" width="12.541765503981413" opacity="0.7543375956480474" transform="matrix(0.8821984250079061,-0.4708778386307533,0.4708778386307533,0.8821984250079061,307.0288548508873,4.932455726347314)" fill="#ffa6d5"></use><use xlink:href="#bbburst-shape-10" width="7.9871664038624655" opacity="0.8484440334607732" transform="matrix(0.7512195362026205,0.6600524285445208,-0.6600524285445208,0.7512195362026205,706.5316748149596,46.082157972862376)" fill="none" stroke="#00a19d"></use><use xlink:href="#bbburst-shape-5" width="26.823879992339172" opacity="0.22807571459722653" transform="matrix(0.7369589818748107,-0.6759374668074277,0.6759374668074277,0.7369589818748107,-163.36233650497792,315.56695413380913)" fill="#00a19d"></use><use xlink:href="#bbburst-shape-11" width="8.419745145528411" opacity="0.8384770951129553" transform="matrix(0.9864392366318591,-0.16412687906968526,0.16412687906968526,0.9864392366318591,320.45484495707746,-66.02372207998553)" fill="none" stroke="#00a19d"></use><use xlink:href="#bbburst-shape-3" width="48.941472265977325" opacity="-0.09901408414298762" transform="matrix(0.9597509653806414,-0.28085242468408017,0.28085242468408017,0.9597509653806414,-85.64616936448333,-326.7434305614812)" fill="#2c2891"></use><use xlink:href="#bbburst-shape-12" width="26.095996866333508" opacity="0.22735412597865534" transform="matrix(0.9656850280411218,-0.25971604998000786,0.25971604998000786,0.9656850280411218,-21.932458555203908,-149.06088876882953)" fill="none" stroke="#00a19d"></use><use xlink:href="#bbburst-shape-1" width="16.26987839318486" opacity="0.6228155296020648" transform="matrix(0.7870619843036,0.6168739197470418,-0.6168739197470418,0.7870619843036,470.84024038487087,71.16314990135675)" fill="#2c2891"></use><use xlink:href="#bbburst-shape-10" width="13.49343038646587" opacity="0.6573338577943553" transform="matrix(0.9925851274987305,-0.12155148978243256,0.12155148978243256,0.9925851274987305,337.34996805590305,-150.23929505950443)" fill="none" stroke="#ffa6d5"></use><use xlink:href="#bbburst-shape-13" width="39.846129079496976" opacity="0.1271807277845748" transform="matrix(0.9733668243344603,-0.22925319034867933,0.22925319034867933,0.9733668243344603,563.5379659129834,-265.5722414824793)" fill="none" stroke="#2c2891"></use><use xlink:href="#bbburst-shape-4" width="8.233654139644022" opacity="0.7443330689508336" transform="matrix(0.7167733250597199,-0.6973062458366719,0.6973062458366719,0.7167733250597199,113.18939603423763,1.222818398100003)" fill="#ffa6d5"></use><use xlink:href="#bbburst-shape-2" width="27.484501177277092" opacity="0.39057005673080036" transform="matrix(0.7119074021810506,0.7022733447311152,-0.7022733447311152,0.7119074021810506,828.9435824003606,329.8728419809236)" fill="#2c2891"></use><use xlink:href="#bbburst-shape-1" width="25.961255352428402" opacity="0.11996836788474052" transform="matrix(0.9272342269858718,-0.37448189316162256,0.37448189316162256,0.9272342269858718,-130.57311349809453,-110.38207254748374)" fill="#2c2891"></use><use xlink:href="#bbburst-shape-6" width="27.607920260598853" opacity="0.34887484506599087" transform="matrix(0.8077422612404976,-0.5895357829734236,0.5895357829734236,0.8077422612404976,-126.75378341887291,-1.96720812385945)" fill="#2c2891"></use><use xlink:href="#bbburst-shape-1" width="16.074561736712255" opacity="0.5727910685659424" transform="matrix(0.802345308695402,0.5968601223188562,-0.5968601223188562,0.802345308695402,811.7568716647115,143.1790417076325)" fill="#ff5c58"></use><use xlink:href="#bbburst-shape-5" width="29.457931054070368" opacity="0.40757036167052807" transform="matrix(0.8106299244844849,-0.5855588147490209,0.5855588147490209,0.8106299244844849,306.8809451729681,-133.91491388161427)" fill="#00a19d"></use><use xlink:href="#bbburst-shape-2" width="13.36496588164771" opacity="0.6231141568192664" transform="matrix(0.9999996815613053,0.0007980459185580285,-0.0007980459185580285,0.9999996815613053,331.47752430553334,157.79865567867756)" fill="#2c2891"></use><use xlink:href="#bbburst-shape-2" width="11.3068922808809" opacity="0.7468868350268131" transform="matrix(0.969800504664204,-0.2438995308586205,0.2438995308586205,0.969800504664204,187.12266021672497,43.620955730041544)" fill="#ff5c58"></use><use xlink:href="#bbburst-shape-4" width="21.67018506185356" opacity="0.15506001439499584" transform="matrix(0.9579017720820122,-0.28709614250654913,0.28709614250654913,0.9579017720820122,355.92214666859275,391.43461130011605)" fill="#ffbd9b"></use><use xlink:href="#bbburst-shape-5" width="23.459370124441207" opacity="0.13568640987825709" transform="matrix(0.92027849767029,0.3912639604227739,-0.3912639604227739,0.92027849767029,176.0752235303223,148.31402171781764)" fill="#ffa6d5"></use><use xlink:href="#bbburst-shape-1" width="12.534206472786954" opacity="0.6288815969496788" transform="matrix(0.999692391954629,0.02480164244626696,-0.02480164244626696,0.999692391954629,379.72097948184785,165.26307069177875)" fill="#ffbd9b"></use><use xlink:href="#bbburst-shape-4" width="9.332584535794739" opacity="0.8216897219963192" transform="matrix(0.8941402114306184,0.44778709483727747,-0.44778709483727747,0.8941402114306184,647.910522553866,6.892665189529112)" fill="#ffa6d5"></use><use xlink:href="#bbburst-shape-2" width="5.27765444336977" opacity="0.8760084669755386" transform="matrix(0.9188661613107926,-0.3945693571451899,0.3945693571451899,0.9188661613107926,245.6042477382506,88.98524474182204)" fill="#2c2891"></use><use xlink:href="#bbburst-shape-3" width="24.52303374907749" opacity="0.2150507345542828" transform="matrix(0.779771669677602,-0.6260640088427099,0.6260640088427099,0.779771669677602,491.303531344486,132.06549045513282)" fill="#ff5c58"></use><use xlink:href="#bbburst-shape-8" width="7.676295707514088" opacity="0.8496257341485295" transform="matrix(0.9594621733352711,-0.281837431755894,0.281837431755894,0.9594621733352711,312.23302916073044,78.60070126149753)" fill="none" stroke="#ffa6d5"></use><use xlink:href="#bbburst-shape-13" width="21.133046269221225" opacity="0.29099006066119093" transform="matrix(0.9385219324205974,0.34521961468825546,-0.34521961468825546,0.9385219324205974,538.356993799722,339.8352974209785)" fill="none" stroke="#00a19d"></use><use xlink:href="#bbburst-shape-7" width="20.09862672021407" opacity="0.5341093513863222" transform="matrix(0.7205148697317304,0.6934394872629245,-0.6934394872629245,0.7205148697317304,646.905439105564,-103.59440756639756)" fill="#ff5c58"></use><use xlink:href="#bbburst-shape-7" width="4.107177836065842" opacity="0.9727588234089741" transform="matrix(0.9992044504748172,-0.039880648832718704,0.039880648832718704,0.9992044504748172,369.7908135875813,1.6917911476949143)" fill="#ffbd9b"></use><use xlink:href="#bbburst-shape-12" width="7.806801065457897" opacity="0.8979424906969328" transform="matrix(0.9687394209193295,0.24808049975135524,-0.24808049975135524,0.9687394209193295,539.4678504895629,24.63689181106747)" fill="none" stroke="#ffbd9b"></use><use xlink:href="#bbburst-shape-13" width="7.605493768452413" opacity="0.9032861256648707" transform="matrix(0.8053681121095739,0.5927750028443007,-0.5927750028443007,0.8053681121095739,666.5394416500504,104.55312156015157)" fill="none" stroke="#ffbd9b"></use><use xlink:href="#bbburst-shape-11" width="19.560559944765572" opacity="0.626854866680475" transform="matrix(0.9945400771322117,0.10435533037585719,-0.10435533037585719,0.9945400771322117,305.81972177854846,-109.82850307693138)" fill="none" stroke="#ffbd9b"></use><use xlink:href="#bbburst-shape-3" width="17.605931457206964" opacity="0.5579092586688688" transform="matrix(0.9806072403049705,-0.19598326525872034,0.19598326525872034,0.9806072403049705,475.1647681363876,-105.6147866980454)" fill="#ffbd9b"></use><use xlink:href="#bbburst-shape-6" width="7.141460045274238" opacity="0.8264191287478795" transform="matrix(0.8188072334983328,-0.5740685624303133,0.5740685624303133,0.8188072334983328,232.2725443699493,118.10776560411631)" fill="#2c2891"></use><use xlink:href="#bbburst-shape-14" width="26.865419747665033" opacity="0.4526856600763034" transform="matrix(0.9966997410789085,-0.08117651220172467,0.08117651220172467,0.9966997410789085,381.8961803834529,-242.27617451210577)" fill="none" stroke="#00a19d"></use><use xlink:href="#bbburst-shape-4" width="13.316873314723956" opacity="0.6950824446478364" transform="matrix(0.87528940812255,0.48359947480169607,-0.48359947480169607,0.87528940812255,546.5328006772374,177.59608670145508)" fill="#00a19d"></use><use xlink:href="#bbburst-shape-7" width="5.762408369946575" opacity="0.9206852128854521" transform="matrix(0.9600272981384094,0.279906389403789,-0.279906389403789,0.9600272981384094,478.0201412351667,-2.235629839709077)" fill="#2c2891"></use><use xlink:href="#bbburst-shape-7" width="14.323334483690957" opacity="0.6601871858795442" transform="matrix(0.9061140149658786,-0.4230335588135006,0.4230335588135006,0.9061140149658786,363.24652492067423,-23.139121224737664)" fill="#ff5c58"></use><use xlink:href="#bbburst-shape-14" width="14.91455619980277" opacity="0.5455341088992909" transform="matrix(0.8885569227885789,0.458766383864916,-0.458766383864916,0.8885569227885789,561.3705714147727,245.09536936736185)" fill="none" stroke="#ffa6d5"></use><use xlink:href="#bbburst-shape-10" width="4.479978486047965" opacity="0.9280690625300128" transform="matrix(0.9791779742372615,-0.20300368166270474,0.20300368166270474,0.9791779742372615,347.70384383755976,17.762406600680833)" fill="none" stroke="#00a19d"></use><use xlink:href="#bbburst-shape-10" width="5.11266718592526" opacity="0.9500436514131867" transform="matrix(0.8469370419216978,-0.5316931888043369,0.5316931888043369,0.8469370419216978,164.3970644140588,53.960929698531686)" fill="none" stroke="#ffa6d5"></use><use xlink:href="#bbburst-shape-13" width="35.61696684123095" opacity="-0.09995418232528408" transform="matrix(0.9925536143146021,-0.12180854941678032,0.12180854941678032,0.9925536143146021,679.1390527940753,-349.26416477097274)" fill="none" stroke="#ffa6d5"></use><use xlink:href="#bbburst-shape-2" width="24.503679284729177" opacity="0.3182227401483274" transform="matrix(0.9906319727409753,-0.13655875872064616,0.13655875872064616,0.9906319727409753,26.45397091165303,2.648887914425245)" fill="#ff5c58"></use><use xlink:href="#bbburst-shape-2" width="24.92819689859691" opacity="0.14439326190372537" transform="matrix(0.9044398935693463,-0.42660107702661687,0.42660107702661687,0.9044398935693463,122.32376035961886,416.4751222685413)" fill="#00a19d"></use><use xlink:href="#bbburst-shape-8" width="9.026329702275694" opacity="0.7490292168190028" transform="matrix(0.988059419974183,0.15407330268505648,-0.15407330268505648,0.988059419974183,407.36885104691953,105.44444536555415)" fill="none" stroke="#00a19d"></use><use xlink:href="#bbburst-shape-10" width="5.518311912242481" opacity="0.8783462730616902" transform="matrix(0.8234504628875342,0.5673881697482823,-0.5673881697482823,0.8234504628875342,606.571816538967,17.392893353179034)" fill="none" stroke="#ffbd9b"></use><use xlink:href="#bbburst-shape-10" width="5.957504002839615" opacity="0.9351380212997564" transform="matrix(0.97104204575702,0.23890865487047844,-0.23890865487047844,0.97104204575702,516.2194227161215,-6.373853474756686)" fill="none" stroke="#2c2891"></use><use xlink:href="#bbburst-shape-13" width="27.96616517844018" opacity="0.3786931062981833" transform="matrix(0.910593407928926,-0.4133033334445594,0.4133033334445594,0.910593407928926,488.4571445865978,-42.963618492532305)" fill="none" stroke="#2c2891"></use><use xlink:href="#bbburst-shape-3" width="11.376970818904272" opacity="0.7473559295043593" transform="matrix(0.918879096996691,0.39453923138586056,-0.39453923138586056,0.918879096996691,605.7749507250762,130.64757711808795)" fill="#2c2891"></use><use xlink:href="#bbburst-shape-8" width="11.653067228166519" opacity="0.7164911561964318" transform="matrix(0.7623950484909287,-0.6471118837083079,0.6471118837083079,0.7623950484909287,259.4459495648171,133.64123534881463)" fill="none" stroke="#ffa6d5"></use><use xlink:href="#bbburst-shape-5" width="11.25694936524825" opacity="0.8035690493766563" transform="matrix(0.9675680221978546,0.25261061422697934,-0.25261061422697934,0.9675680221978546,410.90264477380254,36.851698277382525)" fill="#ffa6d5"></use><use xlink:href="#bbburst-shape-13" width="5.273820865533126" opacity="0.976445636361506" transform="matrix(0.9275752554009696,-0.3736363814831552,0.3736363814831552,0.9275752554009696,244.68399873525837,39.989229277680806)" fill="none" stroke="#2c2891"></use><use xlink:href="#bbburst-shape-14" width="17.362964107474983" opacity="0.6744936239656593" transform="matrix(0.9997383441863431,-0.022874509034053903,0.022874509034053903,0.9997383441863431,247.92749565184883,58.92971490232486)" fill="none" stroke="#2c2891"></use><use xlink:href="#bbburst-shape-14" width="9.43317738002914" opacity="0.8326911071596098" transform="matrix(0.7373906845695072,0.6754664894057392,-0.6754664894057392,0.7373906845695072,601.6287059595221,139.73749967643596)" fill="none" stroke="#00a19d"></use><use xlink:href="#bbburst-shape-10" width="8.146632799333661" opacity="0.8617499076073271" transform="matrix(0.871519871874474,-0.4903601869319128,0.4903601869319128,0.871519871874474,262.1610166688756,60.04910163319772)" fill="none" stroke="#ffa6d5"></use><use xlink:href="#bbburst-shape-7" width="9.87139855516998" opacity="0.8517276928147957" transform="matrix(0.7137149459206495,0.7004362754522957,-0.7004362754522957,0.7137149459206495,742.0880305935636,98.10720114630266)" fill="#2c2891"></use><use xlink:href="#bbburst-shape-4" width="32.30666749133049" opacity="0.2319599700976751" transform="matrix(0.9124097758515438,-0.4092779018350925,0.4092779018350925,0.9124097758515438,517.8856267926285,-136.21440031059672)" fill="#00a19d"></use><use xlink:href="#bbburst-shape-8" width="7.011824328762109" opacity="0.9147373462583898" transform="matrix(0.9996166968351085,-0.027685003313470055,0.027685003313470055,0.9996166968351085,358.9121307284091,27.987996804413967)" fill="none" stroke="#00a19d"></use><use xlink:href="#bbburst-shape-2" width="15.068358014484403" opacity="0.7052462934767626" transform="matrix(0.8302562202517607,0.5573819235795684,-0.5573819235795684,0.8302562202517607,509.3862492250872,141.66825409398137)" fill="#ffbd9b"></use><use xlink:href="#bbburst-shape-12" width="15.961982678888393" opacity="0.672435797648038" transform="matrix(0.9341888587386672,0.35677888980227873,-0.35677888980227873,0.9341888587386672,682.6462750098359,26.093940924151298)" fill="none" stroke="#2c2891"></use><use xlink:href="#bbburst-shape-11" width="8.625116395016626" opacity="0.8340774426974555" transform="matrix(0.9435388677646995,0.3312618375504623,-0.3312618375504623,0.9435388677646995,500.3631647853522,-48.12089699167319)" fill="none" stroke="#ff5c58"></use><use xlink:href="#bbburst-shape-8" width="19.912832641106025" opacity="0.4586019109526259" transform="matrix(0.9966944624635268,0.08124129796194479,-0.08124129796194479,0.9966944624635268,602.314934590758,-163.94943573433346)" fill="none" stroke="#00a19d"></use><use xlink:href="#bbburst-shape-2" width="4.670131612280382" opacity="0.9189748665565683" transform="matrix(0.7190324321161529,-0.6949765187149347,0.6949765187149347,0.7190324321161529,133.89030466974162,147.85825329950467)" fill="#ffa6d5"></use><use xlink:href="#bbburst-shape-10" width="5.7331427131102135" opacity="0.9561952297687407" transform="matrix(0.9546652177876992,-0.297681578110512,0.297681578110512,0.9546652177876992,297.7472805301534,21.459281735070476)" fill="none" stroke="#ff5c58"></use><use xlink:href="#bbburst-shape-4" width="20.761403814791077" opacity="0.5220610488639323" transform="matrix(0.9954747953551027,-0.09502595336389065,0.09502595336389065,0.9954747953551027,492.955609675499,164.9605229988956)" fill="#ff5c58"></use><use xlink:href="#bbburst-shape-3" width="23.6932959663434" opacity="0.33673454930477487" transform="matrix(0.8131620671667587,-0.5820373291474387,0.5820373291474387,0.8131620671667587,455.66565601032545,68.70970007920255)" fill="#ff5c58"></use></svg>